{
 "cells": [
  {
   "cell_type": "code",
   "execution_count": 1,
   "metadata": {},
   "outputs": [],
   "source": [
    "import mido"
   ]
  },
  {
   "cell_type": "code",
   "execution_count": 6,
   "metadata": {},
   "outputs": [
    {
     "name": "stdout",
     "output_type": "stream",
     "text": [
      "Track 0: \n",
      "<meta message time_signature numerator=4 denominator=4 clocks_per_click=24 notated_32nd_notes_per_beat=8 time=0>\n",
      "<meta message key_signature key='Eb' time=0>\n",
      "<meta message set_tempo tempo=495868 time=0>\n",
      "control_change channel=0 control=121 value=0 time=0\n",
      "program_change channel=0 program=0 time=0\n",
      "control_change channel=0 control=7 value=100 time=0\n",
      "control_change channel=0 control=10 value=64 time=0\n",
      "control_change channel=0 control=91 value=0 time=0\n",
      "control_change channel=0 control=93 value=0 time=0\n",
      "<meta message midi_port port=0 time=0>\n",
      "note_on channel=0 note=55 velocity=91 time=9600\n",
      "note_on channel=0 note=58 velocity=81 time=0\n",
      "note_on channel=0 note=62 velocity=96 time=0\n",
      "note_on channel=0 note=55 velocity=0 time=227\n",
      "note_on channel=0 note=58 velocity=0 time=0\n",
      "note_on channel=0 note=62 velocity=0 time=0\n",
      "note_on channel=0 note=55 velocity=93 time=13\n",
      "note_on channel=0 note=55 velocity=0 time=227\n",
      "note_on channel=0 note=58 velocity=90 time=13\n",
      "note_on channel=0 note=58 velocity=0 time=227\n",
      "note_on channel=0 note=62 velocity=97 time=13\n",
      "note_on channel=0 note=62 velocity=0 time=227\n",
      "note_on channel=0 note=67 velocity=105 time=13\n",
      "note_on channel=0 note=67 velocity=0 time=227\n",
      "note_on channel=0 note=62 velocity=101 time=13\n",
      "note_on channel=0 note=62 velocity=0 time=227\n",
      "note_on channel=0 note=58 velocity=88 time=13\n",
      "note_on channel=0 note=58 velocity=0 time=227\n",
      "note_on channel=0 note=55 velocity=87 time=13\n",
      "note_on channel=0 note=55 velocity=0 time=119\n",
      "note_on channel=0 note=56 velocity=80 time=121\n",
      "note_on channel=0 note=65 velocity=96 time=480\n",
      "note_on channel=0 note=56 velocity=0 time=431\n",
      "note_on channel=0 note=65 velocity=0 time=24\n",
      "note_on channel=0 note=63 velocity=81 time=985\n",
      "note_on channel=0 note=67 velocity=99 time=0\n",
      "note_on channel=0 note=63 velocity=0 time=119\n",
      "note_on channel=0 note=67 velocity=0 time=0\n",
      "note_on channel=0 note=63 velocity=91 time=121\n",
      "note_on channel=0 note=63 velocity=0 time=227\n",
      "note_on channel=0 note=67 velocity=104 time=13\n",
      "note_on channel=0 note=67 velocity=0 time=227\n",
      "note_on channel=0 note=70 velocity=81 time=13\n",
      "note_on channel=0 note=70 velocity=0 time=119\n",
      "note_on channel=0 note=72 velocity=102 time=121\n",
      "note_on channel=0 note=72 velocity=0 time=227\n",
      "note_on channel=0 note=75 velocity=107 time=13\n",
      "note_on channel=0 note=75 velocity=0 time=227\n",
      "note_on channel=0 note=70 velocity=89 time=13\n",
      "note_on channel=0 note=70 velocity=0 time=239\n",
      "note_on channel=0 note=60 velocity=84 time=241\n",
      "note_on channel=0 note=63 velocity=85 time=0\n",
      "note_on channel=0 note=67 velocity=97 time=0\n",
      "note_on channel=0 note=70 velocity=84 time=0\n",
      "note_on channel=0 note=60 velocity=0 time=239\n",
      "note_on channel=0 note=63 velocity=0 time=0\n",
      "note_on channel=0 note=67 velocity=0 time=0\n",
      "note_on channel=0 note=70 velocity=0 time=0\n",
      "note_on channel=0 note=67 velocity=102 time=241\n",
      "note_on channel=0 note=70 velocity=79 time=0\n",
      "note_on channel=0 note=67 velocity=0 time=119\n",
      "note_on channel=0 note=70 velocity=0 time=0\n",
      "note_on channel=0 note=63 velocity=83 time=121\n",
      "note_on channel=0 note=67 velocity=90 time=0\n",
      "note_on channel=0 note=63 velocity=0 time=227\n",
      "note_on channel=0 note=67 velocity=0 time=0\n",
      "note_on channel=0 note=63 velocity=80 time=253\n",
      "note_on channel=0 note=67 velocity=93 time=0\n",
      "note_on channel=0 note=70 velocity=92 time=0\n",
      "note_on channel=0 note=63 velocity=0 time=227\n",
      "note_on channel=0 note=67 velocity=0 time=0\n",
      "note_on channel=0 note=70 velocity=0 time=0\n",
      "note_on channel=0 note=60 velocity=80 time=493\n",
      "note_on channel=0 note=63 velocity=82 time=0\n",
      "note_on channel=0 note=65 velocity=97 time=0\n",
      "note_on channel=0 note=53 velocity=90 time=0\n",
      "note_on channel=0 note=60 velocity=0 time=455\n",
      "note_on channel=0 note=63 velocity=0 time=0\n",
      "note_on channel=0 note=65 velocity=0 time=0\n",
      "note_on channel=0 note=63 velocity=82 time=265\n",
      "note_on channel=0 note=65 velocity=100 time=0\n",
      "note_on channel=0 note=69 velocity=89 time=0\n",
      "note_on channel=0 note=63 velocity=0 time=227\n",
      "note_on channel=0 note=65 velocity=0 time=456\n",
      "note_on channel=0 note=69 velocity=0 time=0\n",
      "note_on channel=0 note=53 velocity=0 time=420\n",
      "note_on channel=0 note=66 velocity=66 time=97\n",
      "note_on channel=0 note=71 velocity=75 time=0\n",
      "note_on channel=0 note=66 velocity=0 time=239\n",
      "note_on channel=0 note=71 velocity=0 time=0\n",
      "note_on channel=0 note=65 velocity=71 time=271\n",
      "note_on channel=0 note=70 velocity=67 time=0\n",
      "note_on channel=0 note=65 velocity=0 time=426\n",
      "note_on channel=0 note=70 velocity=0 time=0\n",
      "note_on channel=0 note=64 velocity=75 time=24\n",
      "note_on channel=0 note=69 velocity=69 time=0\n",
      "note_on channel=0 note=64 velocity=0 time=239\n",
      "note_on channel=0 note=69 velocity=0 time=0\n",
      "note_on channel=0 note=65 velocity=70 time=241\n",
      "note_on channel=0 note=70 velocity=73 time=0\n",
      "note_on channel=0 note=65 velocity=0 time=239\n",
      "note_on channel=0 note=70 velocity=0 time=0\n",
      "note_on channel=0 note=66 velocity=87 time=241\n",
      "note_on channel=0 note=71 velocity=98 time=0\n",
      "note_on channel=0 note=66 velocity=0 time=239\n",
      "note_on channel=0 note=71 velocity=0 time=0\n",
      "note_on channel=0 note=70 velocity=71 time=241\n",
      "note_on channel=0 note=70 velocity=0 time=239\n",
      "note_on channel=0 note=69 velocity=91 time=241\n",
      "note_on channel=0 note=69 velocity=0 time=239\n",
      "note_on channel=0 note=70 velocity=86 time=241\n",
      "note_on channel=0 note=70 velocity=0 time=239\n",
      "note_on channel=0 note=63 velocity=93 time=241\n",
      "note_on channel=0 note=67 velocity=111 time=0\n",
      "note_on channel=0 note=63 velocity=0 time=119\n",
      "note_on channel=0 note=67 velocity=0 time=0\n",
      "note_on channel=0 note=63 velocity=105 time=121\n",
      "note_on channel=0 note=63 velocity=0 time=119\n",
      "note_on channel=0 note=75 velocity=86 time=121\n",
      "note_on channel=0 note=75 velocity=0 time=227\n",
      "note_on channel=0 note=63 velocity=98 time=43\n",
      "note_on channel=0 note=63 velocity=0 time=44\n",
      "note_on channel=0 note=62 velocity=98 time=166\n",
      "note_on channel=0 note=65 velocity=100 time=0\n",
      "note_on channel=0 note=62 velocity=0 time=119\n",
      "note_on channel=0 note=65 velocity=0 time=0\n",
      "note_on channel=0 note=62 velocity=95 time=121\n",
      "note_on channel=0 note=62 velocity=0 time=119\n",
      "note_on channel=0 note=70 velocity=93 time=121\n",
      "note_on channel=0 note=70 velocity=0 time=227\n",
      "note_on channel=0 note=62 velocity=95 time=43\n",
      "note_on channel=0 note=62 velocity=0 time=44\n",
      "note_on channel=0 note=61 velocity=89 time=166\n",
      "note_on channel=0 note=64 velocity=97 time=0\n",
      "note_on channel=0 note=67 velocity=97 time=0\n",
      "note_on channel=0 note=61 velocity=0 time=455\n",
      "note_on channel=0 note=64 velocity=0 time=0\n",
      "note_on channel=0 note=67 velocity=0 time=0\n",
      "note_on channel=0 note=70 velocity=91 time=25\n",
      "note_on channel=0 note=70 velocity=0 time=227\n",
      "note_on channel=0 note=67 velocity=103 time=13\n",
      "note_on channel=0 note=70 velocity=107 time=120\n",
      "note_on channel=0 note=67 velocity=0 time=107\n",
      "note_on channel=0 note=70 velocity=0 time=6\n",
      "note_on channel=0 note=60 velocity=86 time=7\n",
      "note_on channel=0 note=63 velocity=92 time=0\n",
      "note_on channel=0 note=65 velocity=103 time=0\n",
      "note_on channel=0 note=60 velocity=0 time=239\n",
      "note_on channel=0 note=63 velocity=0 time=0\n",
      "note_on channel=0 note=65 velocity=0 time=0\n",
      "note_on channel=0 note=69 velocity=89 time=241\n",
      "note_on channel=0 note=60 velocity=84 time=720\n",
      "note_on channel=0 note=69 velocity=0 time=191\n",
      "note_on channel=0 note=63 velocity=87 time=49\n",
      "note_on channel=0 note=60 velocity=0 time=119\n",
      "note_on channel=0 note=63 velocity=0 time=108\n",
      "note_on channel=0 note=65 velocity=96 time=13\n",
      "note_on channel=0 note=65 velocity=0 time=119\n",
      "note_on channel=0 note=72 velocity=95 time=121\n",
      "note_on channel=0 note=75 velocity=98 time=60\n",
      "note_on channel=0 note=75 velocity=0 time=89\n",
      "note_on channel=0 note=72 velocity=0 time=90\n",
      "note_on channel=0 note=63 velocity=42 time=1\n",
      "note_on channel=0 note=63 velocity=0 time=227\n",
      "note_on channel=0 note=58 velocity=69 time=493\n",
      "note_on channel=0 note=62 velocity=83 time=0\n",
      "note_on channel=0 note=58 velocity=0 time=227\n",
      "note_on channel=0 note=62 velocity=0 time=0\n",
      "note_on channel=0 note=53 velocity=67 time=13\n",
      "note_on channel=0 note=53 velocity=0 time=227\n",
      "note_on channel=0 note=58 velocity=76 time=13\n",
      "note_on channel=0 note=58 velocity=0 time=227\n",
      "note_on channel=0 note=62 velocity=91 time=13\n",
      "note_on channel=0 note=62 velocity=0 time=227\n",
      "note_on channel=0 note=79 velocity=110 time=13\n",
      "note_on channel=0 note=53 velocity=85 time=240\n",
      "note_on channel=0 note=79 velocity=0 time=215\n",
      "note_on channel=0 note=53 velocity=0 time=12\n",
      "note_on channel=0 note=77 velocity=108 time=13\n",
      "note_on channel=0 note=77 velocity=0 time=239\n",
      "note_on channel=0 note=58 velocity=72 time=241\n",
      "note_on channel=0 note=62 velocity=85 time=0\n",
      "note_on channel=0 note=58 velocity=0 time=227\n",
      "note_on channel=0 note=62 velocity=0 time=0\n",
      "note_on channel=0 note=53 velocity=87 time=13\n",
      "note_on channel=0 note=53 velocity=0 time=227\n",
      "note_on channel=0 note=58 velocity=82 time=13\n",
      "note_on channel=0 note=58 velocity=0 time=227\n",
      "note_on channel=0 note=62 velocity=82 time=13\n",
      "note_on channel=0 note=62 velocity=0 time=227\n",
      "note_on channel=0 note=79 velocity=115 time=13\n",
      "note_on channel=0 note=79 velocity=0 time=227\n",
      "note_on channel=0 note=53 velocity=80 time=13\n",
      "note_on channel=0 note=53 velocity=0 time=227\n",
      "note_on channel=0 note=77 velocity=106 time=13\n",
      "note_on channel=0 note=77 velocity=0 time=119\n",
      "note_on channel=0 note=53 velocity=76 time=121\n",
      "note_on channel=0 note=53 velocity=0 time=119\n",
      "note_on channel=0 note=58 velocity=78 time=121\n",
      "note_on channel=0 note=62 velocity=96 time=0\n",
      "note_on channel=0 note=58 velocity=0 time=227\n",
      "note_on channel=0 note=62 velocity=0 time=0\n",
      "note_on channel=0 note=53 velocity=87 time=13\n",
      "note_on channel=0 note=53 velocity=0 time=227\n",
      "note_on channel=0 note=58 velocity=85 time=13\n",
      "note_on channel=0 note=58 velocity=0 time=227\n",
      "note_on channel=0 note=62 velocity=85 time=13\n",
      "note_on channel=0 note=62 velocity=0 time=227\n",
      "note_on channel=0 note=79 velocity=115 time=13\n",
      "note_on channel=0 note=79 velocity=0 time=119\n",
      "note_on channel=0 note=53 velocity=81 time=121\n",
      "note_on channel=0 note=53 velocity=0 time=227\n",
      "note_on channel=0 note=77 velocity=114 time=13\n",
      "note_on channel=0 note=77 velocity=0 time=119\n",
      "note_on channel=0 note=53 velocity=79 time=121\n",
      "note_on channel=0 note=53 velocity=0 time=119\n",
      "note_on channel=0 note=58 velocity=82 time=121\n",
      "note_on channel=0 note=62 velocity=102 time=0\n",
      "note_on channel=0 note=58 velocity=0 time=227\n",
      "note_on channel=0 note=62 velocity=0 time=0\n",
      "note_on channel=0 note=55 velocity=93 time=13\n",
      "note_on channel=0 note=55 velocity=0 time=227\n",
      "note_on channel=0 note=58 velocity=85 time=13\n",
      "note_on channel=0 note=58 velocity=0 time=227\n",
      "note_on channel=0 note=62 velocity=110 time=13\n",
      "note_on channel=0 note=62 velocity=0 time=227\n",
      "note_on channel=0 note=81 velocity=115 time=13\n",
      "note_on channel=0 note=81 velocity=0 time=119\n",
      "note_on channel=0 note=55 velocity=87 time=121\n",
      "note_on channel=0 note=55 velocity=0 time=227\n",
      "note_on channel=0 note=79 velocity=115 time=13\n",
      "note_on channel=0 note=79 velocity=0 time=119\n",
      "note_on channel=0 note=55 velocity=93 time=121\n",
      "note_on channel=0 note=55 velocity=0 time=119\n",
      "note_on channel=0 note=60 velocity=89 time=121\n",
      "note_on channel=0 note=63 velocity=95 time=0\n",
      "note_on channel=0 note=60 velocity=0 time=227\n",
      "note_on channel=0 note=63 velocity=0 time=0\n",
      "note_on channel=0 note=60 velocity=97 time=13\n",
      "note_on channel=0 note=60 velocity=0 time=227\n",
      "note_on channel=0 note=63 velocity=107 time=13\n",
      "note_on channel=0 note=63 velocity=0 time=227\n",
      "note_on channel=0 note=67 velocity=106 time=13\n",
      "note_on channel=0 note=67 velocity=0 time=227\n",
      "note_on channel=0 note=86 velocity=115 time=13\n",
      "note_on channel=0 note=86 velocity=0 time=119\n",
      "note_on channel=0 note=60 velocity=88 time=121\n",
      "note_on channel=0 note=60 velocity=0 time=227\n",
      "note_on channel=0 note=84 velocity=115 time=13\n",
      "note_on channel=0 note=84 velocity=0 time=119\n",
      "note_on channel=0 note=60 velocity=78 time=121\n",
      "note_on channel=0 note=60 velocity=0 time=119\n",
      "note_on channel=0 note=63 velocity=90 time=121\n",
      "note_on channel=0 note=67 velocity=104 time=0\n",
      "note_on channel=0 note=63 velocity=0 time=227\n",
      "note_on channel=0 note=67 velocity=0 time=0\n",
      "note_on channel=0 note=60 velocity=93 time=13\n",
      "note_on channel=0 note=60 velocity=0 time=227\n",
      "note_on channel=0 note=63 velocity=98 time=13\n",
      "note_on channel=0 note=63 velocity=0 time=227\n",
      "note_on channel=0 note=67 velocity=94 time=13\n",
      "note_on channel=0 note=67 velocity=0 time=119\n",
      "note_on channel=0 note=63 velocity=73 time=121\n",
      "note_on channel=0 note=69 velocity=90 time=0\n",
      "note_on channel=0 note=63 velocity=0 time=119\n",
      "note_on channel=0 note=69 velocity=0 time=0\n",
      "note_on channel=0 note=63 velocity=81 time=121\n",
      "note_on channel=0 note=63 velocity=0 time=227\n",
      "note_on channel=0 note=65 velocity=76 time=13\n",
      "note_on channel=0 note=65 velocity=0 time=227\n",
      "note_on channel=0 note=72 velocity=67 time=13\n",
      "note_on channel=0 note=72 velocity=0 time=119\n",
      "note_on channel=0 note=58 velocity=81 time=121\n",
      "note_on channel=0 note=62 velocity=91 time=0\n",
      "note_on channel=0 note=58 velocity=0 time=227\n",
      "note_on channel=0 note=62 velocity=0 time=0\n",
      "note_on channel=0 note=53 velocity=84 time=13\n",
      "note_on channel=0 note=53 velocity=0 time=227\n",
      "note_on channel=0 note=58 velocity=90 time=13\n",
      "note_on channel=0 note=58 velocity=0 time=227\n",
      "note_on channel=0 note=62 velocity=101 time=13\n",
      "note_on channel=0 note=62 velocity=0 time=227\n",
      "note_on channel=0 note=79 velocity=111 time=13\n",
      "note_on channel=0 note=79 velocity=0 time=119\n",
      "note_on channel=0 note=53 velocity=79 time=121\n",
      "note_on channel=0 note=53 velocity=0 time=227\n",
      "note_on channel=0 note=77 velocity=110 time=28\n",
      "note_on channel=0 note=77 velocity=0 time=212\n",
      "note_on channel=0 note=53 velocity=79 time=13\n",
      "note_on channel=0 note=53 velocity=0 time=119\n",
      "note_on channel=0 note=58 velocity=76 time=121\n",
      "note_on channel=0 note=62 velocity=99 time=0\n",
      "note_on channel=0 note=58 velocity=0 time=227\n",
      "note_on channel=0 note=62 velocity=0 time=0\n",
      "note_on channel=0 note=55 velocity=96 time=13\n",
      "note_on channel=0 note=55 velocity=0 time=227\n",
      "note_on channel=0 note=58 velocity=91 time=13\n",
      "note_on channel=0 note=58 velocity=0 time=227\n",
      "note_on channel=0 note=62 velocity=96 time=13\n",
      "note_on channel=0 note=62 velocity=0 time=227\n",
      "note_on channel=0 note=81 velocity=115 time=13\n",
      "note_on channel=0 note=81 velocity=0 time=119\n",
      "note_on channel=0 note=55 velocity=89 time=121\n",
      "note_on channel=0 note=55 velocity=0 time=227\n",
      "note_on channel=0 note=79 velocity=115 time=13\n",
      "note_on channel=0 note=79 velocity=0 time=119\n",
      "note_on channel=0 note=55 velocity=87 time=121\n",
      "note_on channel=0 note=55 velocity=0 time=119\n",
      "note_on channel=0 note=63 velocity=100 time=121\n",
      "note_on channel=0 note=67 velocity=103 time=0\n",
      "note_on channel=0 note=63 velocity=0 time=227\n",
      "note_on channel=0 note=67 velocity=0 time=0\n",
      "note_on channel=0 note=60 velocity=91 time=13\n",
      "note_on channel=0 note=60 velocity=0 time=227\n",
      "note_on channel=0 note=63 velocity=100 time=13\n",
      "note_on channel=0 note=63 velocity=0 time=227\n",
      "note_on channel=0 note=67 velocity=109 time=13\n",
      "note_on channel=0 note=67 velocity=0 time=227\n",
      "note_on channel=0 note=59 velocity=97 time=13\n",
      "note_on channel=0 note=63 velocity=101 time=0\n",
      "note_on channel=0 note=59 velocity=0 time=227\n",
      "note_on channel=0 note=63 velocity=0 time=0\n",
      "note_on channel=0 note=67 velocity=106 time=13\n",
      "note_on channel=0 note=67 velocity=0 time=119\n",
      "note_on channel=0 note=58 velocity=84 time=121\n",
      "note_on channel=0 note=63 velocity=101 time=0\n",
      "note_on channel=0 note=58 velocity=0 time=227\n",
      "note_on channel=0 note=63 velocity=0 time=0\n",
      "note_on channel=0 note=67 velocity=98 time=13\n",
      "note_on channel=0 note=67 velocity=0 time=119\n",
      "note_on channel=0 note=57 velocity=98 time=121\n",
      "note_on channel=0 note=63 velocity=113 time=0\n",
      "note_on channel=0 note=57 velocity=0 time=239\n",
      "note_on channel=0 note=63 velocity=0 time=0\n",
      "note_on channel=0 note=57 velocity=115 time=1\n",
      "note_on channel=0 note=63 velocity=119 time=240\n",
      "note_on channel=0 note=57 velocity=0 time=119\n",
      "note_on channel=0 note=63 velocity=0 time=108\n",
      "note_on channel=0 note=67 velocity=125 time=13\n",
      "note_on channel=0 note=67 velocity=0 time=119\n",
      "note_on channel=0 note=56 velocity=112 time=121\n",
      "note_on channel=0 note=63 velocity=124 time=0\n",
      "note_on channel=0 note=56 velocity=0 time=227\n",
      "note_on channel=0 note=63 velocity=0 time=0\n",
      "note_on channel=0 note=67 velocity=127 time=13\n",
      "note_on channel=0 note=67 velocity=0 time=227\n",
      "note_on channel=0 note=55 velocity=123 time=13\n",
      "note_on channel=0 note=63 velocity=122 time=0\n",
      "note_on channel=0 note=55 velocity=0 time=227\n",
      "note_on channel=0 note=63 velocity=0 time=0\n",
      "note_on channel=0 note=67 velocity=127 time=43\n",
      "note_on channel=0 note=67 velocity=0 time=44\n",
      "note_on channel=0 note=63 velocity=120 time=166\n",
      "note_on channel=0 note=67 velocity=127 time=0\n",
      "note_on channel=0 note=63 velocity=0 time=227\n",
      "note_on channel=0 note=67 velocity=0 time=0\n",
      "note_on channel=0 note=63 velocity=102 time=13\n",
      "note_on channel=0 note=63 velocity=0 time=119\n",
      "note_on channel=0 note=75 velocity=116 time=121\n",
      "note_on channel=0 note=75 velocity=0 time=227\n",
      "note_on channel=0 note=67 velocity=106 time=13\n",
      "note_on channel=0 note=67 velocity=0 time=119\n",
      "note_on channel=0 note=70 velocity=101 time=121\n",
      "note_on channel=0 note=70 velocity=0 time=227\n",
      "note_on channel=0 note=63 velocity=95 time=13\n",
      "note_on channel=0 note=63 velocity=0 time=119\n",
      "note_on channel=0 note=62 velocity=106 time=121\n",
      "note_on channel=0 note=65 velocity=103 time=0\n",
      "note_on channel=0 note=62 velocity=0 time=227\n",
      "note_on channel=0 note=65 velocity=0 time=0\n",
      "note_on channel=0 note=58 velocity=88 time=13\n",
      "note_on channel=0 note=58 velocity=0 time=119\n",
      "note_on channel=0 note=60 velocity=103 time=121\n",
      "note_on channel=0 note=63 velocity=113 time=0\n",
      "note_on channel=0 note=67 velocity=114 time=0\n",
      "note_on channel=0 note=60 velocity=0 time=119\n",
      "note_on channel=0 note=63 velocity=0 time=0\n",
      "note_on channel=0 note=67 velocity=0 time=0\n",
      "note_on channel=0 note=60 velocity=112 time=121\n",
      "note_on channel=0 note=60 velocity=0 time=227\n",
      "note_on channel=0 note=63 velocity=114 time=13\n",
      "note_on channel=0 note=63 velocity=0 time=227\n",
      "note_on channel=0 note=67 velocity=116 time=13\n",
      "note_on channel=0 note=67 velocity=0 time=227\n",
      "note_on channel=0 note=86 velocity=127 time=13\n",
      "note_on channel=0 note=86 velocity=0 time=119\n",
      "note_on channel=0 note=60 velocity=103 time=121\n",
      "note_on channel=0 note=60 velocity=0 time=227\n",
      "note_on channel=0 note=84 velocity=127 time=13\n",
      "note_on channel=0 note=84 velocity=0 time=119\n",
      "note_on channel=0 note=60 velocity=96 time=121\n",
      "note_on channel=0 note=60 velocity=0 time=119\n",
      "note_on channel=0 note=65 velocity=110 time=121\n",
      "note_on channel=0 note=68 velocity=114 time=0\n",
      "note_on channel=0 note=65 velocity=0 time=119\n",
      "note_on channel=0 note=68 velocity=0 time=0\n",
      "note_on channel=0 note=65 velocity=106 time=181\n",
      "note_on channel=0 note=65 velocity=0 time=89\n",
      "note_on channel=0 note=77 velocity=118 time=166\n",
      "note_on channel=0 note=77 velocity=0 time=41\n",
      "note_on channel=0 note=64 velocity=96 time=154\n",
      "note_on channel=0 note=68 velocity=97 time=0\n",
      "note_on channel=0 note=72 velocity=101 time=0\n",
      "note_on channel=0 note=64 velocity=0 time=44\n",
      "note_on channel=0 note=68 velocity=0 time=0\n",
      "note_on channel=0 note=72 velocity=0 time=0\n",
      "note_on channel=0 note=63 velocity=107 time=166\n",
      "note_on channel=0 note=68 velocity=100 time=0\n",
      "note_on channel=0 note=72 velocity=115 time=0\n",
      "note_on channel=0 note=63 velocity=0 time=119\n",
      "note_on channel=0 note=68 velocity=0 time=0\n",
      "note_on channel=0 note=72 velocity=0 time=0\n",
      "note_on channel=0 note=63 velocity=105 time=121\n",
      "note_on channel=0 note=63 velocity=0 time=119\n",
      "note_on channel=0 note=62 velocity=105 time=121\n",
      "note_on channel=0 note=68 velocity=114 time=0\n",
      "note_on channel=0 note=72 velocity=120 time=0\n",
      "note_on channel=0 note=62 velocity=0 time=119\n",
      "note_on channel=0 note=68 velocity=0 time=0\n",
      "note_on channel=0 note=72 velocity=0 time=0\n",
      "note_on channel=0 note=62 velocity=104 time=121\n",
      "note_on channel=0 note=62 velocity=0 time=119\n",
      "note_on channel=0 note=58 velocity=93 time=121\n",
      "note_on channel=0 note=62 velocity=105 time=0\n",
      "note_on channel=0 note=65 velocity=108 time=0\n",
      "note_on channel=0 note=58 velocity=0 time=227\n",
      "note_on channel=0 note=62 velocity=0 time=0\n",
      "note_on channel=0 note=65 velocity=0 time=0\n",
      "note_on channel=0 note=46 velocity=90 time=28\n",
      "note_on channel=0 note=46 velocity=0 time=41\n",
      "note_on channel=0 note=46 velocity=83 time=64\n",
      "note_on channel=0 note=46 velocity=0 time=59\n",
      "note_on channel=0 note=62 velocity=118 time=61\n",
      "note_on channel=0 note=65 velocity=108 time=0\n",
      "note_on channel=0 note=70 velocity=105 time=0\n",
      "note_on channel=0 note=62 velocity=0 time=227\n",
      "note_on channel=0 note=65 velocity=0 time=0\n",
      "note_on channel=0 note=70 velocity=0 time=0\n",
      "note_on channel=0 note=46 velocity=100 time=28\n",
      "note_on channel=0 note=46 velocity=0 time=41\n",
      "note_on channel=0 note=46 velocity=95 time=64\n",
      "note_on channel=0 note=46 velocity=0 time=59\n",
      "note_on channel=0 note=58 velocity=93 time=61\n",
      "note_on channel=0 note=62 velocity=115 time=0\n",
      "note_on channel=0 note=58 velocity=0 time=119\n",
      "note_on channel=0 note=62 velocity=0 time=0\n",
      "note_on channel=0 note=46 velocity=102 time=121\n",
      "note_on channel=0 note=46 velocity=0 time=59\n",
      "note_on channel=0 note=46 velocity=89 time=76\n",
      "note_on channel=0 note=46 velocity=0 time=41\n",
      "note_on channel=0 note=58 velocity=102 time=64\n",
      "note_on channel=0 note=62 velocity=121 time=0\n",
      "note_on channel=0 note=68 velocity=107 time=0\n",
      "note_on channel=0 note=46 velocity=111 time=120\n",
      "note_on channel=0 note=46 velocity=0 time=59\n",
      "note_on channel=0 note=58 velocity=0 time=60\n",
      "note_on channel=0 note=62 velocity=0 time=0\n",
      "note_on channel=0 note=68 velocity=0 time=0\n",
      "note_on channel=0 note=46 velocity=115 time=1\n",
      "note_on channel=0 note=46 velocity=0 time=119\n",
      "note_on channel=0 note=63 velocity=100 time=121\n",
      "note_on channel=0 note=67 velocity=109 time=0\n",
      "note_on channel=0 note=63 velocity=0 time=119\n",
      "note_on channel=0 note=67 velocity=0 time=0\n",
      "note_on channel=0 note=63 velocity=109 time=121\n",
      "note_on channel=0 note=63 velocity=0 time=119\n",
      "note_on channel=0 note=75 velocity=110 time=121\n",
      "note_on channel=0 note=75 velocity=0 time=119\n",
      "note_on channel=0 note=63 velocity=98 time=121\n",
      "note_on channel=0 note=63 velocity=0 time=119\n",
      "note_on channel=0 note=62 velocity=115 time=121\n",
      "note_on channel=0 note=65 velocity=111 time=0\n",
      "note_on channel=0 note=62 velocity=0 time=119\n",
      "note_on channel=0 note=65 velocity=0 time=0\n",
      "note_on channel=0 note=62 velocity=100 time=121\n",
      "note_on channel=0 note=62 velocity=0 time=119\n",
      "note_on channel=0 note=70 velocity=102 time=121\n",
      "note_on channel=0 note=70 velocity=0 time=227\n",
      "note_on channel=0 note=62 velocity=100 time=13\n",
      "note_on channel=0 note=62 velocity=0 time=119\n",
      "note_on channel=0 note=63 velocity=102 time=121\n",
      "note_on channel=0 note=67 velocity=101 time=0\n",
      "note_on channel=0 note=63 velocity=0 time=227\n",
      "note_on channel=0 note=67 velocity=0 time=0\n",
      "note_on channel=0 note=60 velocity=86 time=13\n",
      "note_on channel=0 note=60 velocity=0 time=227\n",
      "note_on channel=0 note=67 velocity=99 time=13\n",
      "note_on channel=0 note=67 velocity=0 time=227\n",
      "note_on channel=0 note=60 velocity=91 time=13\n",
      "note_on channel=0 note=60 velocity=0 time=119\n",
      "note_on channel=0 note=56 velocity=73 time=121\n",
      "note_on channel=0 note=59 velocity=91 time=0\n",
      "note_on channel=0 note=63 velocity=86 time=0\n",
      "note_on channel=0 note=56 velocity=0 time=455\n",
      "note_on channel=0 note=59 velocity=0 time=0\n",
      "note_on channel=0 note=63 velocity=0 time=0\n",
      "note_on channel=0 note=63 velocity=72 time=505\n",
      "note_on channel=0 note=67 velocity=84 time=0\n",
      "note_on channel=0 note=70 velocity=74 time=0\n",
      "note_on channel=0 note=63 velocity=0 time=119\n",
      "note_on channel=0 note=67 velocity=0 time=0\n",
      "note_on channel=0 note=70 velocity=0 time=0\n",
      "note_on channel=0 note=63 velocity=70 time=121\n",
      "note_on channel=0 note=63 velocity=0 time=227\n",
      "note_on channel=0 note=67 velocity=86 time=13\n",
      "note_on channel=0 note=67 velocity=0 time=227\n",
      "note_on channel=0 note=70 velocity=75 time=13\n",
      "note_on channel=0 note=70 velocity=0 time=119\n",
      "note_on channel=0 note=72 velocity=77 time=121\n",
      "note_on channel=0 note=72 velocity=0 time=227\n",
      "note_on channel=0 note=75 velocity=91 time=13\n",
      "note_on channel=0 note=75 velocity=0 time=227\n",
      "note_on channel=0 note=70 velocity=77 time=13\n",
      "note_on channel=0 note=70 velocity=0 time=227\n",
      "note_on channel=0 note=75 velocity=84 time=13\n",
      "note_on channel=0 note=75 velocity=0 time=227\n",
      "note_on channel=0 note=69 velocity=86 time=13\n",
      "note_on channel=0 note=69 velocity=0 time=227\n",
      "note_on channel=0 note=75 velocity=92 time=13\n",
      "note_on channel=0 note=75 velocity=0 time=227\n",
      "note_on channel=0 note=68 velocity=83 time=13\n",
      "note_on channel=0 note=68 velocity=0 time=227\n",
      "note_on channel=0 note=75 velocity=78 time=13\n",
      "note_on channel=0 note=75 velocity=0 time=119\n",
      "note_on channel=0 note=58 velocity=79 time=121\n",
      "note_on channel=0 note=62 velocity=93 time=0\n",
      "note_on channel=0 note=58 velocity=0 time=227\n",
      "note_on channel=0 note=62 velocity=0 time=0\n",
      "note_on channel=0 note=53 velocity=73 time=13\n",
      "note_on channel=0 note=53 velocity=0 time=227\n",
      "note_on channel=0 note=58 velocity=89 time=13\n",
      "note_on channel=0 note=58 velocity=0 time=227\n",
      "note_on channel=0 note=62 velocity=100 time=13\n",
      "note_on channel=0 note=62 velocity=0 time=227\n",
      "note_on channel=0 note=79 velocity=112 time=13\n",
      "note_on channel=0 note=79 velocity=0 time=119\n",
      "note_on channel=0 note=53 velocity=74 time=121\n",
      "note_on channel=0 note=53 velocity=0 time=227\n",
      "note_on channel=0 note=77 velocity=108 time=13\n",
      "note_on channel=0 note=77 velocity=0 time=119\n",
      "note_on channel=0 note=53 velocity=83 time=121\n",
      "note_on channel=0 note=53 velocity=0 time=119\n",
      "note_on channel=0 note=58 velocity=83 time=121\n",
      "note_on channel=0 note=62 velocity=100 time=0\n",
      "note_on channel=0 note=58 velocity=0 time=239\n",
      "note_on channel=0 note=62 velocity=0 time=0\n",
      "note_on channel=0 note=79 velocity=127 time=721\n",
      "note_on channel=0 note=79 velocity=0 time=119\n",
      "note_on channel=0 note=53 velocity=95 time=121\n",
      "note_on channel=0 note=53 velocity=0 time=227\n",
      "note_on channel=0 note=77 velocity=121 time=13\n",
      "note_on channel=0 note=77 velocity=0 time=119\n",
      "note_on channel=0 note=53 velocity=84 time=121\n",
      "note_on channel=0 note=53 velocity=0 time=119\n",
      "note_on channel=0 note=58 velocity=91 time=121\n",
      "note_on channel=0 note=62 velocity=106 time=0\n",
      "note_on channel=0 note=58 velocity=0 time=239\n",
      "note_on channel=0 note=62 velocity=0 time=0\n",
      "note_on channel=0 note=79 velocity=112 time=721\n",
      "note_on channel=0 note=79 velocity=0 time=119\n",
      "note_on channel=0 note=53 velocity=95 time=121\n",
      "note_on channel=0 note=53 velocity=0 time=227\n",
      "note_on channel=0 note=77 velocity=118 time=13\n",
      "note_on channel=0 note=77 velocity=0 time=227\n",
      "note_on channel=0 note=53 velocity=91 time=13\n",
      "note_on channel=0 note=53 velocity=0 time=119\n",
      "note_on channel=0 note=58 velocity=95 time=121\n",
      "note_on channel=0 note=62 velocity=113 time=0\n",
      "note_on channel=0 note=58 velocity=0 time=227\n",
      "note_on channel=0 note=62 velocity=0 time=0\n",
      "note_on channel=0 note=55 velocity=105 time=13\n",
      "note_on channel=0 note=55 velocity=0 time=227\n",
      "note_on channel=0 note=58 velocity=102 time=13\n",
      "note_on channel=0 note=58 velocity=0 time=227\n",
      "note_on channel=0 note=62 velocity=110 time=13\n",
      "note_on channel=0 note=62 velocity=0 time=227\n",
      "note_on channel=0 note=81 velocity=127 time=13\n",
      "note_on channel=0 note=81 velocity=0 time=119\n",
      "note_on channel=0 note=55 velocity=96 time=121\n",
      "note_on channel=0 note=55 velocity=0 time=227\n",
      "note_on channel=0 note=79 velocity=127 time=13\n",
      "note_on channel=0 note=79 velocity=0 time=119\n",
      "note_on channel=0 note=55 velocity=102 time=91\n",
      "note_on channel=0 note=60 velocity=90 time=30\n",
      "note_on channel=0 note=63 velocity=108 time=0\n",
      "note_on channel=0 note=55 velocity=0 time=225\n",
      "note_on channel=0 note=60 velocity=0 time=2\n",
      "note_on channel=0 note=60 velocity=108 time=13\n",
      "note_on channel=0 note=63 velocity=0 time=443\n",
      "note_on channel=0 note=63 velocity=106 time=37\n",
      "note_on channel=0 note=67 velocity=110 time=240\n",
      "note_on channel=0 note=86 velocity=125 time=240\n",
      "note_on channel=0 note=60 velocity=0 time=407\n",
      "note_on channel=0 note=86 velocity=0 time=48\n",
      "note_on channel=0 note=60 velocity=97 time=25\n",
      "note_on channel=0 note=84 velocity=127 time=60\n",
      "note_on channel=0 note=84 velocity=0 time=170\n",
      "note_on channel=0 note=60 velocity=0 time=9\n",
      "note_on channel=0 note=60 velocity=92 time=1\n",
      "note_on channel=0 note=63 velocity=0 time=167\n",
      "note_on channel=0 note=67 velocity=0 time=12\n",
      "note_on channel=0 note=60 velocity=0 time=48\n",
      "note_on channel=0 note=63 velocity=100 time=13\n",
      "note_on channel=0 note=67 velocity=114 time=0\n",
      "note_on channel=0 note=63 velocity=0 time=227\n",
      "note_on channel=0 note=67 velocity=0 time=0\n",
      "note_on channel=0 note=60 velocity=97 time=13\n",
      "note_on channel=0 note=60 velocity=0 time=227\n",
      "note_on channel=0 note=63 velocity=101 time=13\n",
      "note_on channel=0 note=63 velocity=0 time=227\n",
      "note_on channel=0 note=67 velocity=108 time=13\n",
      "note_on channel=0 note=67 velocity=0 time=119\n",
      "note_on channel=0 note=63 velocity=86 time=121\n",
      "note_on channel=0 note=69 velocity=104 time=0\n",
      "note_on channel=0 note=63 velocity=0 time=119\n",
      "note_on channel=0 note=69 velocity=0 time=0\n",
      "note_on channel=0 note=63 velocity=100 time=121\n",
      "note_on channel=0 note=63 velocity=0 time=227\n",
      "note_on channel=0 note=65 velocity=97 time=13\n",
      "note_on channel=0 note=65 velocity=0 time=227\n",
      "note_on channel=0 note=72 velocity=99 time=13\n",
      "note_on channel=0 note=72 velocity=0 time=119\n",
      "note_on channel=0 note=58 velocity=86 time=121\n",
      "note_on channel=0 note=62 velocity=106 time=0\n",
      "note_on channel=0 note=58 velocity=0 time=227\n",
      "note_on channel=0 note=62 velocity=0 time=0\n",
      "note_on channel=0 note=53 velocity=90 time=13\n",
      "note_on channel=0 note=53 velocity=0 time=227\n",
      "note_on channel=0 note=58 velocity=102 time=13\n",
      "note_on channel=0 note=58 velocity=0 time=227\n",
      "note_on channel=0 note=62 velocity=100 time=13\n",
      "note_on channel=0 note=62 velocity=0 time=227\n",
      "note_on channel=0 note=79 velocity=126 time=13\n",
      "note_on channel=0 note=79 velocity=0 time=119\n",
      "note_on channel=0 note=53 velocity=92 time=121\n",
      "note_on channel=0 note=53 velocity=0 time=227\n",
      "note_on channel=0 note=77 velocity=118 time=13\n",
      "note_on channel=0 note=77 velocity=0 time=119\n",
      "note_on channel=0 note=53 velocity=93 time=121\n",
      "note_on channel=0 note=53 velocity=0 time=119\n",
      "note_on channel=0 note=58 velocity=106 time=121\n",
      "note_on channel=0 note=62 velocity=120 time=0\n",
      "note_on channel=0 note=58 velocity=0 time=227\n",
      "note_on channel=0 note=62 velocity=0 time=0\n",
      "note_on channel=0 note=55 velocity=101 time=13\n",
      "note_on channel=0 note=55 velocity=0 time=227\n",
      "note_on channel=0 note=58 velocity=98 time=13\n",
      "note_on channel=0 note=58 velocity=0 time=227\n",
      "note_on channel=0 note=62 velocity=101 time=13\n",
      "note_on channel=0 note=62 velocity=0 time=227\n",
      "note_on channel=0 note=81 velocity=127 time=13\n",
      "note_on channel=0 note=81 velocity=0 time=119\n",
      "note_on channel=0 note=55 velocity=97 time=121\n",
      "note_on channel=0 note=55 velocity=0 time=227\n",
      "note_on channel=0 note=79 velocity=127 time=13\n",
      "note_on channel=0 note=79 velocity=0 time=119\n",
      "note_on channel=0 note=55 velocity=103 time=121\n",
      "note_on channel=0 note=55 velocity=0 time=119\n",
      "note_on channel=0 note=63 velocity=105 time=121\n",
      "note_on channel=0 note=67 velocity=120 time=0\n",
      "note_on channel=0 note=63 velocity=0 time=227\n",
      "note_on channel=0 note=67 velocity=0 time=0\n",
      "note_on channel=0 note=60 velocity=107 time=13\n",
      "note_on channel=0 note=60 velocity=0 time=227\n",
      "note_on channel=0 note=63 velocity=119 time=13\n",
      "note_on channel=0 note=63 velocity=0 time=227\n",
      "note_on channel=0 note=67 velocity=127 time=13\n",
      "note_on channel=0 note=67 velocity=0 time=119\n",
      "note_on channel=0 note=59 velocity=115 time=121\n",
      "note_on channel=0 note=63 velocity=116 time=0\n",
      "note_on channel=0 note=59 velocity=0 time=227\n",
      "note_on channel=0 note=63 velocity=0 time=0\n",
      "note_on channel=0 note=67 velocity=115 time=13\n",
      "note_on channel=0 note=67 velocity=0 time=119\n",
      "note_on channel=0 note=58 velocity=109 time=121\n",
      "note_on channel=0 note=63 velocity=124 time=0\n",
      "note_on channel=0 note=58 velocity=0 time=227\n",
      "note_on channel=0 note=63 velocity=0 time=0\n",
      "note_on channel=0 note=67 velocity=120 time=13\n",
      "note_on channel=0 note=67 velocity=0 time=119\n",
      "note_on channel=0 note=57 velocity=106 time=121\n",
      "note_on channel=0 note=63 velocity=119 time=0\n",
      "note_on channel=0 note=57 velocity=0 time=239\n",
      "note_on channel=0 note=63 velocity=0 time=0\n",
      "note_on channel=0 note=57 velocity=112 time=1\n",
      "note_on channel=0 note=63 velocity=127 time=240\n",
      "note_on channel=0 note=57 velocity=0 time=119\n",
      "note_on channel=0 note=63 velocity=0 time=108\n",
      "note_on channel=0 note=67 velocity=122 time=13\n",
      "note_on channel=0 note=67 velocity=0 time=119\n",
      "note_on channel=0 note=56 velocity=103 time=121\n",
      "note_on channel=0 note=63 velocity=120 time=0\n",
      "note_on channel=0 note=56 velocity=0 time=239\n",
      "note_on channel=0 note=63 velocity=0 time=0\n",
      "note_on channel=0 note=55 velocity=121 time=241\n",
      "note_on channel=0 note=63 velocity=119 time=0\n",
      "note_on channel=0 note=55 velocity=0 time=239\n",
      "note_on channel=0 note=63 velocity=0 time=0\n",
      "note_on channel=0 note=67 velocity=122 time=241\n",
      "note_on channel=0 note=63 velocity=116 time=0\n",
      "note_on channel=0 note=63 velocity=0 time=227\n",
      "note_on channel=0 note=63 velocity=102 time=13\n",
      "note_on channel=0 note=67 velocity=0 time=215\n",
      "note_on channel=0 note=75 velocity=108 time=25\n",
      "note_on channel=0 note=63 velocity=0 time=215\n",
      "note_on channel=0 note=63 velocity=96 time=25\n",
      "note_on channel=0 note=70 velocity=102 time=240\n",
      "note_on channel=0 note=63 velocity=0 time=240\n",
      "note_on channel=0 note=63 velocity=96 time=0\n",
      "note_on channel=0 note=75 velocity=0 time=191\n",
      "note_on channel=0 note=70 velocity=0 time=24\n",
      "note_on channel=0 note=63 velocity=0 time=12\n",
      "note_on channel=0 note=62 velocity=118 time=13\n",
      "note_on channel=0 note=65 velocity=115 time=0\n",
      "note_on channel=0 note=58 velocity=91 time=240\n",
      "note_on channel=0 note=62 velocity=0 time=215\n",
      "note_on channel=0 note=65 velocity=0 time=0\n",
      "note_on channel=0 note=58 velocity=0 time=12\n",
      "note_on channel=0 note=60 velocity=94 time=13\n",
      "note_on channel=0 note=63 velocity=117 time=0\n",
      "note_on channel=0 note=67 velocity=123 time=0\n",
      "note_on channel=0 note=60 velocity=0 time=227\n",
      "note_on channel=0 note=60 velocity=99 time=13\n",
      "note_on channel=0 note=63 velocity=0 time=215\n",
      "note_on channel=0 note=60 velocity=0 time=12\n",
      "note_on channel=0 note=63 velocity=113 time=13\n",
      "note_on channel=0 note=67 velocity=0 time=240\n",
      "note_on channel=0 note=67 velocity=115 time=0\n",
      "note_on channel=0 note=67 velocity=0 time=227\n",
      "note_on channel=0 note=86 velocity=126 time=13\n",
      "note_on channel=0 note=86 velocity=0 time=455\n",
      "note_on channel=0 note=60 velocity=103 time=25\n",
      "note_on channel=0 note=84 velocity=127 time=120\n",
      "note_on channel=0 note=84 velocity=0 time=113\n",
      "note_on channel=0 note=60 velocity=0 time=6\n",
      "note_on channel=0 note=60 velocity=105 time=1\n",
      "note_on channel=0 note=63 velocity=0 time=167\n",
      "note_on channel=0 note=60 velocity=0 time=60\n",
      "note_on channel=0 note=65 velocity=110 time=13\n",
      "note_on channel=0 note=68 velocity=105 time=0\n",
      "note_on channel=0 note=65 velocity=0 time=119\n",
      "note_on channel=0 note=68 velocity=0 time=0\n",
      "note_on channel=0 note=65 velocity=112 time=121\n",
      "note_on channel=0 note=65 velocity=0 time=119\n",
      "note_on channel=0 note=77 velocity=108 time=121\n",
      "note_on channel=0 note=77 velocity=0 time=119\n",
      "note_on channel=0 note=64 velocity=113 time=121\n",
      "note_on channel=0 note=68 velocity=113 time=0\n",
      "note_on channel=0 note=72 velocity=126 time=0\n",
      "note_on channel=0 note=64 velocity=0 time=119\n",
      "note_on channel=0 note=68 velocity=0 time=0\n",
      "note_on channel=0 note=72 velocity=0 time=0\n",
      "note_on channel=0 note=63 velocity=117 time=121\n",
      "note_on channel=0 note=68 velocity=120 time=0\n",
      "note_on channel=0 note=72 velocity=123 time=0\n",
      "note_on channel=0 note=63 velocity=0 time=227\n",
      "note_on channel=0 note=68 velocity=0 time=0\n",
      "note_on channel=0 note=72 velocity=0 time=0\n",
      "note_on channel=0 note=63 velocity=114 time=13\n",
      "note_on channel=0 note=63 velocity=0 time=119\n",
      "note_on channel=0 note=62 velocity=121 time=121\n",
      "note_on channel=0 note=68 velocity=119 time=0\n",
      "note_on channel=0 note=72 velocity=122 time=0\n",
      "note_on channel=0 note=62 velocity=0 time=239\n",
      "note_on channel=0 note=68 velocity=0 time=0\n",
      "note_on channel=0 note=72 velocity=0 time=0\n",
      "note_on channel=0 note=62 velocity=121 time=241\n",
      "note_on channel=0 note=53 velocity=112 time=0\n",
      "note_on channel=0 note=58 velocity=108 time=0\n",
      "note_on channel=0 note=62 velocity=0 time=179\n",
      "note_on channel=0 note=53 velocity=0 time=60\n",
      "note_on channel=0 note=58 velocity=0 time=0\n",
      "note_on channel=0 note=58 velocity=102 time=151\n",
      "note_on channel=0 note=62 velocity=115 time=0\n",
      "note_on channel=0 note=65 velocity=107 time=0\n",
      "note_on channel=0 note=58 velocity=0 time=44\n",
      "note_on channel=0 note=62 velocity=0 time=0\n",
      "note_on channel=0 note=65 velocity=0 time=0\n",
      "note_on channel=0 note=58 velocity=110 time=46\n",
      "note_on channel=0 note=62 velocity=121 time=0\n",
      "note_on channel=0 note=65 velocity=107 time=0\n",
      "note_on channel=0 note=58 velocity=0 time=227\n",
      "note_on channel=0 note=62 velocity=0 time=0\n",
      "note_on channel=0 note=65 velocity=0 time=0\n",
      "note_on channel=0 note=58 velocity=98 time=148\n",
      "note_on channel=0 note=62 velocity=115 time=0\n",
      "note_on channel=0 note=58 velocity=0 time=41\n",
      "note_on channel=0 note=62 velocity=0 time=0\n",
      "note_on channel=0 note=58 velocity=112 time=64\n",
      "note_on channel=0 note=62 velocity=127 time=0\n",
      "note_on channel=0 note=58 velocity=0 time=179\n",
      "note_on channel=0 note=62 velocity=0 time=0\n",
      "note_on channel=0 note=58 velocity=93 time=181\n",
      "note_on channel=0 note=62 velocity=112 time=0\n",
      "note_on channel=0 note=68 velocity=102 time=0\n",
      "note_on channel=0 note=58 velocity=0 time=59\n",
      "note_on channel=0 note=62 velocity=0 time=0\n",
      "note_on channel=0 note=68 velocity=0 time=0\n",
      "note_on channel=0 note=58 velocity=117 time=61\n",
      "note_on channel=0 note=62 velocity=127 time=0\n",
      "note_on channel=0 note=68 velocity=127 time=0\n",
      "note_on channel=0 note=58 velocity=0 time=119\n",
      "note_on channel=0 note=62 velocity=0 time=0\n",
      "note_on channel=0 note=68 velocity=0 time=0\n",
      "note_on channel=0 note=58 velocity=119 time=136\n",
      "note_on channel=0 note=62 velocity=127 time=0\n",
      "note_on channel=0 note=68 velocity=124 time=0\n",
      "note_on channel=0 note=58 velocity=0 time=212\n",
      "note_on channel=0 note=62 velocity=0 time=0\n",
      "note_on channel=0 note=68 velocity=0 time=0\n",
      "note_on channel=0 note=58 velocity=110 time=13\n",
      "note_on channel=0 note=63 velocity=124 time=0\n",
      "note_on channel=0 note=67 velocity=127 time=0\n",
      "note_on channel=0 note=58 velocity=0 time=119\n",
      "note_on channel=0 note=63 velocity=0 time=0\n",
      "note_on channel=0 note=67 velocity=0 time=0\n",
      "note_on channel=0 note=58 velocity=102 time=121\n",
      "note_on channel=0 note=58 velocity=0 time=119\n",
      "note_on channel=0 note=70 velocity=114 time=121\n",
      "note_on channel=0 note=70 velocity=0 time=227\n",
      "note_on channel=0 note=58 velocity=107 time=13\n",
      "note_on channel=0 note=58 velocity=0 time=119\n",
      "note_on channel=0 note=62 velocity=123 time=121\n",
      "note_on channel=0 note=65 velocity=121 time=0\n",
      "note_on channel=0 note=62 velocity=0 time=227\n",
      "note_on channel=0 note=65 velocity=0 time=0\n",
      "note_on channel=0 note=58 velocity=100 time=13\n",
      "note_on channel=0 note=58 velocity=0 time=119\n",
      "note_on channel=0 note=70 velocity=102 time=121\n",
      "note_on channel=0 note=70 velocity=0 time=227\n",
      "note_on channel=0 note=58 velocity=96 time=13\n",
      "note_on channel=0 note=58 velocity=0 time=119\n",
      "note_on channel=0 note=63 velocity=117 time=121\n",
      "note_on channel=0 note=67 velocity=114 time=0\n",
      "note_on channel=0 note=63 velocity=0 time=455\n",
      "note_on channel=0 note=67 velocity=0 time=0\n",
      "note_on channel=0 note=67 velocity=115 time=25\n",
      "note_on channel=0 note=86 velocity=126 time=480\n",
      "note_on channel=0 note=60 velocity=105 time=240\n",
      "note_on channel=0 note=86 velocity=0 time=215\n",
      "note_on channel=0 note=84 velocity=127 time=25\n",
      "note_on channel=0 note=60 velocity=0 time=215\n",
      "note_on channel=0 note=60 velocity=103 time=25\n",
      "note_on channel=0 note=67 velocity=0 time=167\n",
      "note_on channel=0 note=84 velocity=0 time=48\n",
      "note_on channel=0 note=60 velocity=0 time=12\n",
      "note_on channel=0 note=65 velocity=119 time=13\n",
      "note_on channel=0 note=68 velocity=112 time=0\n",
      "note_on channel=0 note=65 velocity=0 time=119\n",
      "note_on channel=0 note=68 velocity=0 time=0\n",
      "note_on channel=0 note=65 velocity=114 time=121\n",
      "note_on channel=0 note=65 velocity=0 time=119\n",
      "note_on channel=0 note=77 velocity=127 time=121\n",
      "note_on channel=0 note=77 velocity=0 time=119\n",
      "note_on channel=0 note=64 velocity=114 time=121\n",
      "note_on channel=0 note=68 velocity=114 time=0\n",
      "note_on channel=0 note=72 velocity=122 time=0\n",
      "note_on channel=0 note=64 velocity=0 time=119\n",
      "note_on channel=0 note=68 velocity=0 time=0\n",
      "note_on channel=0 note=72 velocity=0 time=0\n",
      "note_on channel=0 note=63 velocity=120 time=121\n",
      "note_on channel=0 note=68 velocity=127 time=0\n",
      "note_on channel=0 note=72 velocity=119 time=0\n",
      "note_on channel=0 note=63 velocity=0 time=227\n",
      "note_on channel=0 note=68 velocity=0 time=0\n",
      "note_on channel=0 note=72 velocity=0 time=0\n",
      "note_on channel=0 note=63 velocity=108 time=13\n",
      "note_on channel=0 note=63 velocity=0 time=119\n",
      "note_on channel=0 note=62 velocity=125 time=121\n",
      "note_on channel=0 note=68 velocity=116 time=0\n",
      "note_on channel=0 note=72 velocity=116 time=0\n",
      "note_on channel=0 note=62 velocity=0 time=239\n",
      "note_on channel=0 note=68 velocity=0 time=0\n",
      "note_on channel=0 note=72 velocity=0 time=0\n",
      "note_on channel=0 note=62 velocity=127 time=241\n",
      "note_on channel=0 note=58 velocity=106 time=0\n",
      "note_on channel=0 note=65 velocity=127 time=0\n",
      "note_on channel=0 note=58 velocity=0 time=239\n",
      "note_on channel=0 note=65 velocity=0 time=0\n",
      "note_on channel=0 note=62 velocity=0 time=45\n",
      "note_on channel=0 note=46 velocity=91 time=16\n",
      "note_on channel=0 note=46 velocity=0 time=89\n",
      "note_on channel=0 note=70 velocity=110 time=91\n",
      "note_on channel=0 note=70 velocity=0 time=59\n",
      "note_on channel=0 note=62 velocity=120 time=61\n",
      "note_on channel=0 note=65 velocity=114 time=0\n",
      "note_on channel=0 note=70 velocity=122 time=0\n",
      "note_on channel=0 note=62 velocity=0 time=179\n",
      "note_on channel=0 note=65 velocity=0 time=0\n",
      "note_on channel=0 note=70 velocity=0 time=0\n",
      "note_on channel=0 note=58 velocity=88 time=181\n",
      "note_on channel=0 note=62 velocity=107 time=0\n",
      "note_on channel=0 note=65 velocity=109 time=0\n",
      "note_on channel=0 note=58 velocity=0 time=59\n",
      "note_on channel=0 note=62 velocity=0 time=0\n",
      "note_on channel=0 note=65 velocity=0 time=0\n",
      "note_on channel=0 note=58 velocity=101 time=61\n",
      "note_on channel=0 note=62 velocity=121 time=0\n",
      "note_on channel=0 note=65 velocity=121 time=0\n",
      "note_on channel=0 note=58 velocity=0 time=179\n",
      "note_on channel=0 note=62 velocity=0 time=0\n",
      "note_on channel=0 note=65 velocity=0 time=0\n",
      "note_on channel=0 note=58 velocity=98 time=181\n",
      "note_on channel=0 note=62 velocity=118 time=0\n",
      "note_on channel=0 note=68 velocity=109 time=0\n",
      "note_on channel=0 note=58 velocity=0 time=47\n",
      "note_on channel=0 note=62 velocity=0 time=0\n",
      "note_on channel=0 note=68 velocity=0 time=0\n",
      "note_on channel=0 note=58 velocity=103 time=49\n",
      "note_on channel=0 note=62 velocity=125 time=0\n",
      "note_on channel=0 note=68 velocity=120 time=0\n",
      "note_on channel=0 note=46 velocity=111 time=96\n",
      "note_on channel=0 note=58 velocity=0 time=85\n",
      "note_on channel=0 note=62 velocity=0 time=0\n",
      "note_on channel=0 note=68 velocity=0 time=0\n",
      "note_on channel=0 note=46 velocity=0 time=5\n",
      "note_on channel=0 note=46 velocity=121 time=6\n",
      "note_on channel=0 note=46 velocity=0 time=47\n",
      "note_on channel=0 note=63 velocity=110 time=145\n",
      "note_on channel=0 note=67 velocity=118 time=0\n",
      "note_on channel=0 note=70 velocity=112 time=0\n",
      "note_on channel=0 note=63 velocity=0 time=227\n",
      "note_on channel=0 note=67 velocity=0 time=0\n",
      "note_on channel=0 note=70 velocity=0 time=0\n",
      "note_on channel=0 note=63 velocity=102 time=13\n",
      "note_on channel=0 note=63 velocity=0 time=119\n",
      "note_on channel=0 note=70 velocity=110 time=121\n",
      "note_on channel=0 note=70 velocity=0 time=227\n",
      "note_on channel=0 note=63 velocity=106 time=28\n",
      "note_on channel=0 note=63 velocity=0 time=212\n",
      "note_on channel=0 note=62 velocity=114 time=13\n",
      "note_on channel=0 note=65 velocity=121 time=0\n",
      "note_on channel=0 note=70 velocity=109 time=0\n",
      "note_on channel=0 note=62 velocity=0 time=227\n",
      "note_on channel=0 note=65 velocity=0 time=0\n",
      "note_on channel=0 note=70 velocity=0 time=0\n",
      "note_on channel=0 note=62 velocity=108 time=73\n",
      "note_on channel=0 note=62 velocity=0 time=170\n",
      "note_on channel=0 note=70 velocity=119 time=10\n",
      "note_on channel=0 note=70 velocity=0 time=227\n",
      "note_on channel=0 note=62 velocity=115 time=73\n",
      "note_on channel=0 note=62 velocity=0 time=89\n",
      "note_on channel=0 note=63 velocity=116 time=91\n",
      "note_on channel=0 note=67 velocity=115 time=0\n",
      "note_on channel=0 note=63 velocity=0 time=227\n",
      "note_on channel=0 note=67 velocity=0 time=0\n",
      "note_on channel=0 note=60 velocity=111 time=13\n",
      "note_on channel=0 note=60 velocity=0 time=227\n",
      "note_on channel=0 note=63 velocity=124 time=13\n",
      "note_on channel=0 note=63 velocity=0 time=227\n",
      "note_on channel=0 note=67 velocity=119 time=13\n",
      "note_on channel=0 note=67 velocity=0 time=227\n",
      "note_on channel=0 note=86 velocity=127 time=13\n",
      "note_on channel=0 note=86 velocity=0 time=227\n",
      "note_on channel=0 note=60 velocity=108 time=13\n",
      "note_on channel=0 note=60 velocity=0 time=227\n",
      "note_on channel=0 note=84 velocity=127 time=13\n",
      "note_on channel=0 note=84 velocity=0 time=239\n",
      "note_on channel=0 note=65 velocity=116 time=241\n",
      "note_on channel=0 note=68 velocity=105 time=0\n",
      "note_on channel=0 note=65 velocity=0 time=119\n",
      "note_on channel=0 note=68 velocity=0 time=0\n",
      "note_on channel=0 note=65 velocity=112 time=121\n",
      "note_on channel=0 note=65 velocity=0 time=119\n",
      "note_on channel=0 note=77 velocity=116 time=121\n",
      "note_on channel=0 note=77 velocity=0 time=119\n",
      "note_on channel=0 note=64 velocity=116 time=121\n",
      "note_on channel=0 note=68 velocity=116 time=0\n",
      "note_on channel=0 note=72 velocity=127 time=0\n",
      "note_on channel=0 note=64 velocity=0 time=119\n",
      "note_on channel=0 note=68 velocity=0 time=0\n",
      "note_on channel=0 note=72 velocity=0 time=0\n",
      "note_on channel=0 note=63 velocity=120 time=121\n",
      "note_on channel=0 note=68 velocity=119 time=0\n",
      "note_on channel=0 note=72 velocity=127 time=0\n",
      "note_on channel=0 note=63 velocity=0 time=227\n",
      "note_on channel=0 note=68 velocity=0 time=0\n",
      "note_on channel=0 note=72 velocity=0 time=0\n",
      "note_on channel=0 note=63 velocity=109 time=13\n",
      "note_on channel=0 note=63 velocity=0 time=119\n",
      "note_on channel=0 note=62 velocity=127 time=121\n",
      "note_on channel=0 note=68 velocity=116 time=0\n",
      "note_on channel=0 note=72 velocity=125 time=0\n",
      "note_on channel=0 note=62 velocity=0 time=227\n",
      "note_on channel=0 note=68 velocity=0 time=0\n",
      "note_on channel=0 note=72 velocity=0 time=0\n",
      "note_on channel=0 note=62 velocity=108 time=43\n",
      "note_on channel=0 note=62 velocity=0 time=44\n",
      "note_on channel=0 note=61 velocity=112 time=166\n",
      "note_on channel=0 note=65 velocity=126 time=0\n",
      "note_on channel=0 note=68 velocity=119 time=0\n",
      "note_on channel=0 note=61 velocity=0 time=179\n",
      "note_on channel=0 note=65 velocity=0 time=0\n",
      "note_on channel=0 note=68 velocity=0 time=0\n",
      "note_on channel=0 note=68 velocity=103 time=181\n",
      "note_on channel=0 note=73 velocity=116 time=0\n",
      "note_on channel=0 note=68 velocity=0 time=59\n",
      "note_on channel=0 note=73 velocity=0 time=0\n",
      "note_on channel=0 note=68 velocity=119 time=61\n",
      "note_on channel=0 note=73 velocity=124 time=0\n",
      "note_on channel=0 note=73 velocity=0 time=155\n",
      "note_on channel=0 note=49 velocity=115 time=10\n",
      "note_on channel=0 note=68 velocity=0 time=74\n",
      "note_on channel=0 note=49 velocity=0 time=81\n",
      "note_on channel=0 note=48 velocity=127 time=10\n",
      "note_on channel=0 note=48 velocity=0 time=141\n",
      "note_on channel=0 note=61 velocity=112 time=9\n",
      "note_on channel=0 note=65 velocity=121 time=0\n",
      "note_on channel=0 note=68 velocity=119 time=0\n",
      "note_on channel=0 note=61 velocity=0 time=227\n",
      "note_on channel=0 note=65 velocity=0 time=0\n",
      "note_on channel=0 note=68 velocity=0 time=0\n",
      "note_on channel=0 note=73 velocity=127 time=13\n",
      "note_on channel=0 note=73 velocity=0 time=119\n",
      "note_on channel=0 note=61 velocity=113 time=121\n",
      "note_on channel=0 note=65 velocity=120 time=0\n",
      "note_on channel=0 note=68 velocity=117 time=0\n",
      "note_on channel=0 note=61 velocity=0 time=239\n",
      "note_on channel=0 note=65 velocity=0 time=0\n",
      "note_on channel=0 note=68 velocity=0 time=0\n",
      "note_on channel=0 note=57 velocity=88 time=241\n",
      "note_on channel=0 note=61 velocity=90 time=0\n",
      "note_on channel=0 note=64 velocity=98 time=0\n",
      "note_on channel=0 note=57 velocity=0 time=239\n",
      "note_on channel=0 note=61 velocity=0 time=0\n",
      "note_on channel=0 note=64 velocity=0 time=0\n",
      "note_on channel=0 note=64 velocity=92 time=241\n",
      "note_on channel=0 note=64 velocity=0 time=239\n",
      "note_on channel=0 note=64 velocity=97 time=241\n",
      "note_on channel=0 note=64 velocity=0 time=239\n",
      "note_on channel=0 note=64 velocity=98 time=241\n",
      "note_on channel=0 note=64 velocity=0 time=239\n",
      "note_on channel=0 note=64 velocity=97 time=241\n",
      "note_on channel=0 note=64 velocity=0 time=239\n",
      "note_on channel=0 note=64 velocity=91 time=241\n",
      "note_on channel=0 note=64 velocity=0 time=239\n",
      "note_on channel=0 note=64 velocity=94 time=241\n",
      "note_on channel=0 note=64 velocity=0 time=239\n",
      "note_on channel=0 note=64 velocity=91 time=241\n",
      "note_on channel=0 note=64 velocity=0 time=239\n",
      "note_on channel=0 note=66 velocity=88 time=241\n",
      "note_on channel=0 note=66 velocity=0 time=239\n",
      "note_on channel=0 note=64 velocity=91 time=241\n",
      "note_on channel=0 note=64 velocity=0 time=119\n",
      "note_on channel=0 note=64 velocity=93 time=121\n",
      "note_on channel=0 note=64 velocity=0 time=119\n",
      "note_on channel=0 note=63 velocity=100 time=121\n",
      "note_on channel=0 note=63 velocity=0 time=239\n",
      "note_on channel=0 note=64 velocity=92 time=241\n",
      "note_on channel=0 note=64 velocity=0 time=239\n",
      "note_on channel=0 note=66 velocity=83 time=271\n",
      "note_on channel=0 note=66 velocity=0 time=426\n",
      "note_on channel=0 note=64 velocity=89 time=54\n",
      "note_on channel=0 note=64 velocity=0 time=84\n",
      "note_on channel=0 note=64 velocity=96 time=156\n",
      "note_on channel=0 note=64 velocity=0 time=84\n",
      "note_on channel=0 note=63 velocity=99 time=126\n",
      "note_on channel=0 note=63 velocity=0 time=239\n",
      "note_on channel=0 note=64 velocity=97 time=241\n",
      "note_on channel=0 note=64 velocity=0 time=119\n",
      "note_on channel=0 note=64 velocity=86 time=121\n",
      "note_on channel=0 note=64 velocity=0 time=119\n",
      "note_on channel=0 note=69 velocity=110 time=121\n",
      "note_on channel=0 note=69 velocity=0 time=239\n",
      "note_on channel=0 note=64 velocity=91 time=241\n",
      "note_on channel=0 note=64 velocity=0 time=119\n",
      "note_on channel=0 note=64 velocity=89 time=121\n",
      "note_on channel=0 note=64 velocity=0 time=119\n",
      "note_on channel=0 note=69 velocity=110 time=121\n",
      "note_on channel=0 note=69 velocity=0 time=239\n",
      "note_on channel=0 note=64 velocity=98 time=271\n",
      "note_on channel=0 note=64 velocity=0 time=84\n",
      "note_on channel=0 note=64 velocity=98 time=156\n",
      "note_on channel=0 note=64 velocity=0 time=84\n",
      "note_on channel=0 note=63 velocity=107 time=126\n",
      "note_on channel=0 note=63 velocity=0 time=119\n",
      "note_on channel=0 note=63 velocity=102 time=121\n",
      "note_on channel=0 note=63 velocity=0 time=119\n",
      "note_on channel=0 note=64 velocity=105 time=121\n",
      "note_on channel=0 note=64 velocity=0 time=239\n",
      "note_on channel=0 note=66 velocity=107 time=301\n",
      "note_on channel=0 note=66 velocity=0 time=89\n",
      "note_on channel=0 note=64 velocity=103 time=361\n",
      "note_on channel=0 note=64 velocity=0 time=426\n",
      "note_on channel=0 note=56 velocity=95 time=24\n",
      "note_on channel=0 note=61 velocity=107 time=0\n",
      "note_on channel=0 note=65 velocity=112 time=0\n",
      "note_on channel=0 note=56 velocity=0 time=119\n",
      "note_on channel=0 note=61 velocity=0 time=0\n",
      "note_on channel=0 note=65 velocity=0 time=0\n",
      "note_on channel=0 note=56 velocity=107 time=121\n",
      "note_on channel=0 note=61 velocity=97 time=0\n",
      "note_on channel=0 note=65 velocity=112 time=0\n",
      "note_on channel=0 note=56 velocity=0 time=119\n",
      "note_on channel=0 note=61 velocity=0 time=0\n",
      "note_on channel=0 note=65 velocity=0 time=0\n",
      "note_on channel=0 note=56 velocity=107 time=121\n",
      "note_on channel=0 note=61 velocity=103 time=0\n",
      "note_on channel=0 note=65 velocity=118 time=0\n",
      "note_on channel=0 note=56 velocity=0 time=119\n",
      "note_on channel=0 note=61 velocity=0 time=0\n",
      "note_on channel=0 note=65 velocity=0 time=0\n",
      "note_on channel=0 note=56 velocity=109 time=121\n",
      "note_on channel=0 note=61 velocity=103 time=0\n",
      "note_on channel=0 note=65 velocity=116 time=0\n",
      "note_on channel=0 note=56 velocity=0 time=119\n",
      "note_on channel=0 note=61 velocity=0 time=0\n",
      "note_on channel=0 note=65 velocity=0 time=0\n",
      "note_on channel=0 note=56 velocity=105 time=121\n",
      "note_on channel=0 note=60 velocity=120 time=0\n",
      "note_on channel=0 note=63 velocity=119 time=0\n",
      "note_on channel=0 note=56 velocity=0 time=239\n",
      "note_on channel=0 note=60 velocity=0 time=0\n",
      "note_on channel=0 note=63 velocity=0 time=0\n",
      "note_on channel=0 note=56 velocity=127 time=241\n",
      "note_on channel=0 note=60 velocity=127 time=0\n",
      "note_on channel=0 note=63 velocity=127 time=0\n",
      "note_on channel=0 note=56 velocity=0 time=239\n",
      "note_on channel=0 note=60 velocity=0 time=0\n",
      "note_on channel=0 note=63 velocity=0 time=0\n",
      "note_on channel=0 note=60 velocity=104 time=241\n",
      "note_on channel=0 note=64 velocity=115 time=0\n",
      "note_on channel=0 note=67 velocity=113 time=0\n",
      "note_on channel=0 note=60 velocity=0 time=119\n",
      "note_on channel=0 note=64 velocity=0 time=0\n",
      "note_on channel=0 note=67 velocity=0 time=0\n",
      "note_on channel=0 note=60 velocity=97 time=121\n",
      "note_on channel=0 note=64 velocity=112 time=0\n",
      "note_on channel=0 note=67 velocity=104 time=0\n",
      "note_on channel=0 note=60 velocity=0 time=119\n",
      "note_on channel=0 note=64 velocity=0 time=0\n",
      "note_on channel=0 note=67 velocity=0 time=0\n",
      "note_on channel=0 note=60 velocity=105 time=121\n",
      "note_on channel=0 note=64 velocity=115 time=0\n",
      "note_on channel=0 note=67 velocity=112 time=0\n",
      "note_on channel=0 note=60 velocity=0 time=119\n",
      "note_on channel=0 note=64 velocity=0 time=0\n",
      "note_on channel=0 note=67 velocity=0 time=0\n",
      "note_on channel=0 note=60 velocity=75 time=136\n",
      "note_on channel=0 note=64 velocity=112 time=0\n",
      "note_on channel=0 note=67 velocity=98 time=0\n",
      "note_on channel=0 note=60 velocity=0 time=212\n",
      "note_on channel=0 note=64 velocity=0 time=0\n",
      "note_on channel=0 note=67 velocity=0 time=0\n",
      "note_on channel=0 note=59 velocity=104 time=13\n",
      "note_on channel=0 note=62 velocity=115 time=0\n",
      "note_on channel=0 note=68 velocity=122 time=0\n",
      "note_on channel=0 note=59 velocity=0 time=239\n",
      "note_on channel=0 note=62 velocity=0 time=0\n",
      "note_on channel=0 note=68 velocity=0 time=0\n",
      "note_on channel=0 note=59 velocity=120 time=241\n",
      "note_on channel=0 note=62 velocity=126 time=0\n",
      "note_on channel=0 note=68 velocity=127 time=0\n",
      "note_on channel=0 note=59 velocity=0 time=239\n",
      "note_on channel=0 note=62 velocity=0 time=0\n",
      "note_on channel=0 note=68 velocity=0 time=0\n",
      "note_on channel=0 note=57 velocity=108 time=241\n",
      "note_on channel=0 note=61 velocity=111 time=0\n",
      "note_on channel=0 note=64 velocity=120 time=0\n",
      "note_on channel=0 note=69 velocity=126 time=0\n",
      "note_on channel=0 note=57 velocity=0 time=239\n",
      "note_on channel=0 note=61 velocity=0 time=0\n",
      "note_on channel=0 note=64 velocity=0 time=0\n",
      "note_on channel=0 note=69 velocity=0 time=0\n",
      "note_on channel=0 note=57 velocity=100 time=4081\n",
      "note_on channel=0 note=57 velocity=0 time=119\n",
      "note_on channel=0 note=57 velocity=117 time=121\n",
      "note_on channel=0 note=57 velocity=0 time=227\n",
      "note_on channel=0 note=58 velocity=114 time=13\n",
      "note_on channel=0 note=58 velocity=0 time=227\n",
      "note_on channel=0 note=57 velocity=107 time=13\n",
      "note_on channel=0 note=57 velocity=0 time=119\n",
      "note_on channel=0 note=55 velocity=107 time=121\n",
      "note_on channel=0 note=55 velocity=0 time=119\n",
      "note_on channel=0 note=53 velocity=96 time=121\n",
      "note_on channel=0 note=53 velocity=0 time=119\n",
      "note_on channel=0 note=52 velocity=117 time=121\n",
      "note_on channel=0 note=52 velocity=0 time=239\n",
      "note_on channel=0 note=71 velocity=94 time=2641\n",
      "note_on channel=0 note=71 velocity=0 time=239\n",
      "note_on channel=0 note=70 velocity=92 time=241\n",
      "note_on channel=0 note=70 velocity=0 time=239\n",
      "note_on channel=0 note=69 velocity=93 time=241\n",
      "note_on channel=0 note=69 velocity=0 time=239\n",
      "note_on channel=0 note=70 velocity=85 time=241\n",
      "note_on channel=0 note=70 velocity=0 time=239\n",
      "note_on channel=0 note=71 velocity=91 time=241\n",
      "note_on channel=0 note=71 velocity=0 time=239\n",
      "note_on channel=0 note=70 velocity=93 time=241\n",
      "note_on channel=0 note=70 velocity=0 time=239\n",
      "note_on channel=0 note=69 velocity=93 time=271\n",
      "note_on channel=0 note=69 velocity=0 time=426\n",
      "note_on channel=0 note=70 velocity=86 time=54\n",
      "note_on channel=0 note=70 velocity=0 time=426\n",
      "note_on channel=0 note=63 velocity=103 time=24\n",
      "note_on channel=0 note=68 velocity=104 time=0\n",
      "note_on channel=0 note=72 velocity=112 time=0\n",
      "note_on channel=0 note=63 velocity=0 time=239\n",
      "note_on channel=0 note=68 velocity=0 time=0\n",
      "note_on channel=0 note=72 velocity=0 time=0\n",
      "note_on channel=0 note=63 velocity=95 time=301\n",
      "note_on channel=0 note=67 velocity=109 time=0\n",
      "note_on channel=0 note=70 velocity=97 time=0\n",
      "note_on channel=0 note=63 velocity=0 time=89\n",
      "note_on channel=0 note=67 velocity=0 time=0\n",
      "note_on channel=0 note=70 velocity=0 time=0\n",
      "note_on channel=0 note=63 velocity=91 time=121\n",
      "note_on channel=0 note=67 velocity=99 time=0\n",
      "note_on channel=0 note=70 velocity=99 time=0\n",
      "note_on channel=0 note=63 velocity=0 time=84\n",
      "note_on channel=0 note=67 velocity=0 time=0\n",
      "note_on channel=0 note=70 velocity=0 time=0\n",
      "note_on channel=0 note=63 velocity=104 time=126\n",
      "note_on channel=0 note=66 velocity=97 time=0\n",
      "note_on channel=0 note=69 velocity=113 time=0\n",
      "note_on channel=0 note=63 velocity=0 time=239\n",
      "note_on channel=0 note=66 velocity=0 time=0\n",
      "note_on channel=0 note=69 velocity=0 time=0\n",
      "note_on channel=0 note=63 velocity=102 time=241\n",
      "note_on channel=0 note=67 velocity=111 time=0\n",
      "note_on channel=0 note=70 velocity=104 time=0\n",
      "note_on channel=0 note=63 velocity=0 time=239\n",
      "note_on channel=0 note=67 velocity=0 time=0\n",
      "note_on channel=0 note=70 velocity=0 time=0\n",
      "note_on channel=0 note=63 velocity=104 time=241\n",
      "note_on channel=0 note=68 velocity=106 time=0\n",
      "note_on channel=0 note=72 velocity=106 time=0\n",
      "note_on channel=0 note=63 velocity=0 time=119\n",
      "note_on channel=0 note=68 velocity=0 time=0\n",
      "note_on channel=0 note=72 velocity=0 time=0\n",
      "note_on channel=0 note=63 velocity=86 time=151\n",
      "note_on channel=0 note=68 velocity=98 time=0\n",
      "note_on channel=0 note=72 velocity=105 time=0\n",
      "note_on channel=0 note=63 velocity=0 time=84\n",
      "note_on channel=0 note=68 velocity=0 time=0\n",
      "note_on channel=0 note=72 velocity=0 time=0\n",
      "note_on channel=0 note=63 velocity=99 time=126\n",
      "note_on channel=0 note=67 velocity=112 time=0\n",
      "note_on channel=0 note=70 velocity=102 time=0\n",
      "note_on channel=0 note=63 velocity=0 time=239\n",
      "note_on channel=0 note=67 velocity=0 time=0\n",
      "note_on channel=0 note=70 velocity=0 time=0\n",
      "note_on channel=0 note=63 velocity=93 time=241\n",
      "note_on channel=0 note=66 velocity=103 time=0\n",
      "note_on channel=0 note=69 velocity=109 time=0\n",
      "note_on channel=0 note=63 velocity=0 time=119\n",
      "note_on channel=0 note=66 velocity=0 time=0\n",
      "note_on channel=0 note=69 velocity=0 time=0\n",
      "note_on channel=0 note=63 velocity=79 time=121\n",
      "note_on channel=0 note=66 velocity=86 time=0\n",
      "note_on channel=0 note=69 velocity=96 time=0\n",
      "note_on channel=0 note=63 velocity=0 time=119\n",
      "note_on channel=0 note=66 velocity=0 time=0\n",
      "note_on channel=0 note=69 velocity=0 time=0\n",
      "note_on channel=0 note=63 velocity=95 time=121\n",
      "note_on channel=0 note=67 velocity=106 time=0\n",
      "note_on channel=0 note=70 velocity=118 time=0\n",
      "note_on channel=0 note=63 velocity=0 time=239\n",
      "note_on channel=0 note=67 velocity=0 time=0\n",
      "note_on channel=0 note=70 velocity=0 time=0\n",
      "note_on channel=0 note=63 velocity=100 time=241\n",
      "note_on channel=0 note=68 velocity=104 time=0\n",
      "note_on channel=0 note=72 velocity=110 time=0\n",
      "note_on channel=0 note=63 velocity=0 time=239\n",
      "note_on channel=0 note=68 velocity=0 time=0\n",
      "note_on channel=0 note=72 velocity=0 time=0\n",
      "note_on channel=0 note=68 velocity=97 time=301\n",
      "note_on channel=0 note=72 velocity=111 time=0\n",
      "note_on channel=0 note=68 velocity=0 time=89\n",
      "note_on channel=0 note=72 velocity=0 time=0\n",
      "note_on channel=0 note=68 velocity=99 time=91\n",
      "note_on channel=0 note=72 velocity=113 time=0\n",
      "note_on channel=0 note=68 velocity=0 time=119\n",
      "note_on channel=0 note=72 velocity=0 time=0\n",
      "note_on channel=0 note=63 velocity=99 time=121\n",
      "note_on channel=0 note=67 velocity=111 time=0\n",
      "note_on channel=0 note=70 velocity=103 time=0\n",
      "note_on channel=0 note=63 velocity=0 time=239\n",
      "note_on channel=0 note=67 velocity=0 time=0\n",
      "note_on channel=0 note=70 velocity=0 time=0\n",
      "note_on channel=0 note=70 velocity=96 time=241\n",
      "note_on channel=0 note=70 velocity=0 time=119\n",
      "note_on channel=0 note=70 velocity=86 time=121\n",
      "note_on channel=0 note=70 velocity=0 time=119\n",
      "note_on channel=0 note=60 velocity=93 time=121\n",
      "note_on channel=0 note=63 velocity=97 time=0\n",
      "note_on channel=0 note=69 velocity=105 time=0\n",
      "note_on channel=0 note=60 velocity=0 time=239\n",
      "note_on channel=0 note=63 velocity=0 time=0\n",
      "note_on channel=0 note=69 velocity=0 time=0\n",
      "note_on channel=0 note=69 velocity=103 time=271\n",
      "note_on channel=0 note=69 velocity=0 time=84\n",
      "note_on channel=0 note=69 velocity=90 time=126\n",
      "note_on channel=0 note=69 velocity=0 time=119\n",
      "note_on channel=0 note=62 velocity=94 time=121\n",
      "note_on channel=0 note=65 velocity=95 time=0\n",
      "note_on channel=0 note=70 velocity=112 time=0\n",
      "note_on channel=0 note=62 velocity=0 time=227\n",
      "note_on channel=0 note=65 velocity=0 time=0\n",
      "note_on channel=0 note=70 velocity=0 time=0\n",
      "note_on channel=0 note=70 velocity=87 time=13\n",
      "note_on channel=0 note=70 velocity=0 time=119\n",
      "note_on channel=0 note=70 velocity=79 time=121\n",
      "note_on channel=0 note=70 velocity=0 time=119\n",
      "note_on channel=0 note=70 velocity=92 time=121\n",
      "note_on channel=0 note=70 velocity=0 time=119\n",
      "note_on channel=0 note=72 velocity=88 time=121\n",
      "note_on channel=0 note=72 velocity=0 time=227\n",
      "note_on channel=0 note=75 velocity=81 time=13\n",
      "note_on channel=0 note=75 velocity=0 time=227\n",
      "note_on channel=0 note=70 velocity=90 time=13\n",
      "note_on channel=0 note=70 velocity=0 time=239\n",
      "note_on channel=0 note=69 velocity=98 time=241\n",
      "note_on channel=0 note=69 velocity=0 time=227\n",
      "note_on channel=0 note=75 velocity=97 time=13\n",
      "note_on channel=0 note=75 velocity=0 time=227\n",
      "note_on channel=0 note=68 velocity=93 time=13\n",
      "note_on channel=0 note=68 velocity=0 time=227\n",
      "note_on channel=0 note=75 velocity=79 time=13\n",
      "note_on channel=0 note=75 velocity=0 time=119\n",
      "note_on channel=0 note=71 velocity=89 time=121\n",
      "note_on channel=0 note=71 velocity=0 time=239\n",
      "note_on channel=0 note=70 velocity=83 time=241\n",
      "note_on channel=0 note=70 velocity=0 time=239\n",
      "note_on channel=0 note=69 velocity=90 time=271\n",
      "note_on channel=0 note=69 velocity=0 time=426\n",
      "note_on channel=0 note=70 velocity=81 time=84\n",
      "note_on channel=0 note=70 velocity=0 time=89\n",
      "note_on channel=0 note=71 velocity=93 time=331\n",
      "note_on channel=0 note=71 velocity=0 time=239\n",
      "note_on channel=0 note=70 velocity=86 time=241\n",
      "note_on channel=0 note=70 velocity=0 time=239\n",
      "note_on channel=0 note=69 velocity=103 time=241\n",
      "note_on channel=0 note=69 velocity=0 time=239\n",
      "note_on channel=0 note=58 velocity=127 time=241\n",
      "note_on channel=0 note=58 velocity=0 time=239\n",
      "note_on channel=0 note=63 velocity=127 time=241\n",
      "note_on channel=0 note=63 velocity=0 time=239\n",
      "note_on channel=0 note=58 velocity=118 time=241\n",
      "note_on channel=0 note=58 velocity=0 time=239\n",
      "note_on channel=0 note=58 velocity=124 time=241\n",
      "note_on channel=0 note=63 velocity=127 time=0\n",
      "note_on channel=0 note=67 velocity=125 time=0\n",
      "note_on channel=0 note=58 velocity=0 time=239\n",
      "note_on channel=0 note=63 velocity=0 time=0\n",
      "note_on channel=0 note=67 velocity=0 time=0\n",
      "note_on channel=0 note=58 velocity=93 time=481\n",
      "note_on channel=0 note=62 velocity=105 time=0\n",
      "note_on channel=0 note=65 velocity=99 time=0\n",
      "note_on channel=0 note=58 velocity=0 time=119\n",
      "note_on channel=0 note=62 velocity=0 time=0\n",
      "note_on channel=0 note=65 velocity=0 time=0\n",
      "note_on channel=0 note=58 velocity=102 time=121\n",
      "note_on channel=0 note=62 velocity=115 time=0\n",
      "note_on channel=0 note=65 velocity=119 time=0\n",
      "note_on channel=0 note=58 velocity=0 time=119\n",
      "note_on channel=0 note=62 velocity=0 time=0\n",
      "note_on channel=0 note=65 velocity=0 time=0\n",
      "note_on channel=0 note=58 velocity=109 time=121\n",
      "note_on channel=0 note=63 velocity=110 time=0\n",
      "note_on channel=0 note=67 velocity=119 time=0\n",
      "note_on channel=0 note=58 velocity=0 time=119\n",
      "note_on channel=0 note=63 velocity=0 time=0\n",
      "note_on channel=0 note=67 velocity=0 time=0\n",
      "note_on channel=0 note=58 velocity=100 time=121\n",
      "note_on channel=0 note=65 velocity=106 time=0\n",
      "note_on channel=0 note=68 velocity=114 time=0\n",
      "note_on channel=0 note=58 velocity=0 time=119\n",
      "note_on channel=0 note=65 velocity=0 time=0\n",
      "note_on channel=0 note=68 velocity=0 time=0\n",
      "note_on channel=0 note=58 velocity=86 time=121\n",
      "note_on channel=0 note=63 velocity=97 time=0\n",
      "note_on channel=0 note=67 velocity=111 time=0\n",
      "note_on channel=0 note=58 velocity=0 time=119\n",
      "note_on channel=0 note=63 velocity=0 time=0\n",
      "note_on channel=0 note=67 velocity=0 time=0\n",
      "note_on channel=0 note=58 velocity=116 time=121\n",
      "note_on channel=0 note=62 velocity=123 time=0\n",
      "note_on channel=0 note=65 velocity=123 time=0\n",
      "note_on channel=0 note=58 velocity=0 time=239\n",
      "note_on channel=0 note=62 velocity=0 time=0\n",
      "note_on channel=0 note=65 velocity=0 time=0\n",
      "note_on channel=0 note=58 velocity=109 time=1201\n",
      "note_on channel=0 note=58 velocity=0 time=239\n",
      "note_on channel=0 note=63 velocity=107 time=241\n",
      "note_on channel=0 note=63 velocity=0 time=239\n",
      "note_on channel=0 note=58 velocity=92 time=241\n",
      "note_on channel=0 note=58 velocity=0 time=119\n",
      "note_on channel=0 note=58 velocity=81 time=151\n",
      "note_on channel=0 note=62 velocity=98 time=0\n",
      "note_on channel=0 note=65 velocity=98 time=0\n",
      "note_on channel=0 note=58 velocity=0 time=44\n",
      "note_on channel=0 note=62 velocity=0 time=0\n",
      "note_on channel=0 note=65 velocity=0 time=0\n",
      "note_on channel=0 note=58 velocity=96 time=181\n",
      "note_on channel=0 note=62 velocity=98 time=0\n",
      "note_on channel=0 note=65 velocity=109 time=0\n",
      "note_on channel=0 note=58 velocity=0 time=212\n",
      "note_on channel=0 note=62 velocity=0 time=0\n",
      "note_on channel=0 note=65 velocity=0 time=0\n",
      "note_on channel=0 note=58 velocity=92 time=43\n",
      "note_on channel=0 note=63 velocity=97 time=0\n",
      "note_on channel=0 note=67 velocity=106 time=0\n",
      "note_on channel=0 note=58 velocity=0 time=44\n",
      "note_on channel=0 note=63 velocity=0 time=0\n",
      "note_on channel=0 note=67 velocity=0 time=0\n",
      "note_on channel=0 note=58 velocity=96 time=196\n",
      "note_on channel=0 note=65 velocity=110 time=0\n",
      "note_on channel=0 note=68 velocity=98 time=0\n",
      "note_on channel=0 note=58 velocity=0 time=44\n",
      "note_on channel=0 note=65 velocity=0 time=0\n",
      "note_on channel=0 note=68 velocity=0 time=0\n",
      "note_on channel=0 note=58 velocity=71 time=166\n",
      "note_on channel=0 note=63 velocity=95 time=0\n",
      "note_on channel=0 note=67 velocity=109 time=0\n",
      "note_on channel=0 note=58 velocity=0 time=119\n",
      "note_on channel=0 note=63 velocity=0 time=0\n",
      "note_on channel=0 note=67 velocity=0 time=0\n",
      "note_on channel=0 note=58 velocity=109 time=121\n",
      "note_on channel=0 note=62 velocity=111 time=0\n",
      "note_on channel=0 note=65 velocity=108 time=0\n",
      "note_on channel=0 note=58 velocity=0 time=239\n",
      "note_on channel=0 note=62 velocity=0 time=0\n",
      "note_on channel=0 note=65 velocity=0 time=0\n",
      "note_on channel=0 note=58 velocity=102 time=1201\n",
      "note_on channel=0 note=58 velocity=0 time=239\n",
      "note_on channel=0 note=63 velocity=124 time=241\n",
      "note_on channel=0 note=63 velocity=0 time=239\n",
      "note_on channel=0 note=58 velocity=106 time=241\n",
      "note_on channel=0 note=58 velocity=0 time=119\n",
      "note_on channel=0 note=58 velocity=93 time=121\n",
      "note_on channel=0 note=62 velocity=105 time=0\n",
      "note_on channel=0 note=65 velocity=103 time=0\n",
      "note_on channel=0 note=58 velocity=0 time=119\n",
      "note_on channel=0 note=62 velocity=0 time=0\n",
      "note_on channel=0 note=65 velocity=0 time=0\n",
      "note_on channel=0 note=58 velocity=107 time=121\n",
      "note_on channel=0 note=65 velocity=122 time=0\n",
      "note_on channel=0 note=58 velocity=0 time=119\n",
      "note_on channel=0 note=65 velocity=0 time=0\n",
      "note_on channel=0 note=58 velocity=89 time=121\n",
      "note_on channel=0 note=63 velocity=106 time=0\n",
      "note_on channel=0 note=67 velocity=109 time=0\n",
      "note_on channel=0 note=58 velocity=0 time=119\n",
      "note_on channel=0 note=63 velocity=0 time=0\n",
      "note_on channel=0 note=67 velocity=0 time=0\n",
      "note_on channel=0 note=58 velocity=96 time=121\n",
      "note_on channel=0 note=65 velocity=100 time=0\n",
      "note_on channel=0 note=68 velocity=120 time=0\n",
      "note_on channel=0 note=58 velocity=0 time=119\n",
      "note_on channel=0 note=65 velocity=0 time=0\n",
      "note_on channel=0 note=68 velocity=0 time=0\n",
      "note_on channel=0 note=58 velocity=83 time=121\n",
      "note_on channel=0 note=63 velocity=104 time=0\n",
      "note_on channel=0 note=67 velocity=116 time=0\n",
      "note_on channel=0 note=58 velocity=0 time=119\n",
      "note_on channel=0 note=63 velocity=0 time=0\n",
      "note_on channel=0 note=67 velocity=0 time=0\n",
      "note_on channel=0 note=58 velocity=103 time=121\n",
      "note_on channel=0 note=62 velocity=115 time=0\n",
      "note_on channel=0 note=65 velocity=109 time=0\n",
      "note_on channel=0 note=58 velocity=0 time=239\n",
      "note_on channel=0 note=62 velocity=0 time=0\n",
      "note_on channel=0 note=65 velocity=0 time=0\n",
      "note_on channel=0 note=58 velocity=91 time=721\n",
      "note_on channel=0 note=62 velocity=111 time=0\n",
      "note_on channel=0 note=65 velocity=98 time=0\n",
      "note_on channel=0 note=58 velocity=0 time=119\n",
      "note_on channel=0 note=62 velocity=0 time=0\n",
      "note_on channel=0 note=65 velocity=0 time=0\n",
      "note_on channel=0 note=58 velocity=102 time=151\n",
      "note_on channel=0 note=63 velocity=100 time=0\n",
      "note_on channel=0 note=67 velocity=113 time=0\n",
      "note_on channel=0 note=58 velocity=0 time=84\n",
      "note_on channel=0 note=63 velocity=0 time=0\n",
      "note_on channel=0 note=67 velocity=0 time=0\n",
      "note_on channel=0 note=58 velocity=71 time=156\n",
      "note_on channel=0 note=65 velocity=93 time=0\n",
      "note_on channel=0 note=68 velocity=107 time=0\n",
      "note_on channel=0 note=58 velocity=0 time=44\n",
      "note_on channel=0 note=65 velocity=0 time=0\n",
      "note_on channel=0 note=68 velocity=0 time=0\n",
      "note_on channel=0 note=58 velocity=81 time=166\n",
      "note_on channel=0 note=63 velocity=98 time=0\n",
      "note_on channel=0 note=67 velocity=106 time=0\n",
      "note_on channel=0 note=58 velocity=0 time=119\n",
      "note_on channel=0 note=63 velocity=0 time=0\n",
      "note_on channel=0 note=67 velocity=0 time=0\n",
      "note_on channel=0 note=58 velocity=90 time=121\n",
      "note_on channel=0 note=62 velocity=102 time=0\n",
      "note_on channel=0 note=65 velocity=112 time=0\n",
      "note_on channel=0 note=58 velocity=0 time=239\n",
      "note_on channel=0 note=62 velocity=0 time=0\n",
      "note_on channel=0 note=65 velocity=0 time=0\n",
      "note_on channel=0 note=58 velocity=87 time=721\n",
      "note_on channel=0 note=62 velocity=105 time=0\n",
      "note_on channel=0 note=65 velocity=106 time=0\n",
      "note_on channel=0 note=58 velocity=0 time=119\n",
      "note_on channel=0 note=62 velocity=0 time=0\n",
      "note_on channel=0 note=65 velocity=0 time=0\n",
      "note_on channel=0 note=58 velocity=92 time=121\n",
      "note_on channel=0 note=63 velocity=93 time=0\n",
      "note_on channel=0 note=67 velocity=113 time=0\n",
      "note_on channel=0 note=58 velocity=0 time=119\n",
      "note_on channel=0 note=63 velocity=0 time=0\n",
      "note_on channel=0 note=67 velocity=0 time=0\n",
      "note_on channel=0 note=58 velocity=83 time=121\n",
      "note_on channel=0 note=65 velocity=108 time=0\n",
      "note_on channel=0 note=68 velocity=104 time=0\n",
      "note_on channel=0 note=58 velocity=0 time=119\n",
      "note_on channel=0 note=65 velocity=0 time=0\n",
      "note_on channel=0 note=68 velocity=0 time=0\n",
      "note_on channel=0 note=58 velocity=81 time=121\n",
      "note_on channel=0 note=63 velocity=102 time=0\n",
      "note_on channel=0 note=67 velocity=113 time=0\n",
      "note_on channel=0 note=58 velocity=0 time=119\n",
      "note_on channel=0 note=63 velocity=0 time=0\n",
      "note_on channel=0 note=67 velocity=0 time=0\n",
      "note_on channel=0 note=58 velocity=109 time=121\n",
      "note_on channel=0 note=62 velocity=120 time=0\n",
      "note_on channel=0 note=65 velocity=113 time=0\n",
      "note_on channel=0 note=58 velocity=0 time=239\n",
      "note_on channel=0 note=62 velocity=0 time=0\n",
      "note_on channel=0 note=65 velocity=0 time=0\n",
      "note_on channel=0 note=59 velocity=105 time=2641\n",
      "note_on channel=0 note=62 velocity=110 time=0\n",
      "note_on channel=0 note=66 velocity=96 time=0\n",
      "note_on channel=0 note=59 velocity=0 time=239\n",
      "note_on channel=0 note=62 velocity=0 time=0\n",
      "note_on channel=0 note=66 velocity=0 time=0\n",
      "note_on channel=0 note=61 velocity=104 time=241\n",
      "note_on channel=0 note=64 velocity=125 time=0\n",
      "note_on channel=0 note=69 velocity=120 time=0\n",
      "note_on channel=0 note=61 velocity=0 time=239\n",
      "note_on channel=0 note=64 velocity=0 time=0\n",
      "note_on channel=0 note=69 velocity=0 time=0\n",
      "note_on channel=0 note=62 velocity=113 time=241\n",
      "note_on channel=0 note=66 velocity=110 time=0\n",
      "note_on channel=0 note=69 velocity=116 time=0\n",
      "note_on channel=0 note=62 velocity=0 time=239\n",
      "note_on channel=0 note=66 velocity=0 time=0\n",
      "note_on channel=0 note=69 velocity=0 time=0\n",
      "note_on channel=0 note=61 velocity=92 time=241\n",
      "note_on channel=0 note=65 velocity=110 time=0\n",
      "note_on channel=0 note=68 velocity=99 time=0\n",
      "note_on channel=0 note=71 velocity=112 time=0\n",
      "note_on channel=0 note=61 velocity=0 time=239\n",
      "note_on channel=0 note=65 velocity=0 time=0\n",
      "note_on channel=0 note=68 velocity=0 time=0\n",
      "note_on channel=0 note=71 velocity=0 time=0\n",
      "note_on channel=0 note=61 velocity=107 time=241\n",
      "note_on channel=0 note=66 velocity=116 time=0\n",
      "note_on channel=0 note=70 velocity=110 time=0\n",
      "note_on channel=0 note=61 velocity=0 time=239\n",
      "note_on channel=0 note=66 velocity=0 time=0\n",
      "note_on channel=0 note=70 velocity=0 time=0\n",
      "note_on channel=0 note=62 velocity=100 time=241\n",
      "note_on channel=0 note=65 velocity=108 time=0\n",
      "note_on channel=0 note=70 velocity=97 time=0\n",
      "note_on channel=0 note=62 velocity=0 time=239\n",
      "note_on channel=0 note=65 velocity=0 time=0\n",
      "note_on channel=0 note=70 velocity=0 time=0\n",
      "note_on channel=0 note=63 velocity=100 time=241\n",
      "note_on channel=0 note=67 velocity=115 time=0\n",
      "note_on channel=0 note=70 velocity=102 time=0\n",
      "note_on channel=0 note=63 velocity=0 time=239\n",
      "note_on channel=0 note=67 velocity=0 time=0\n",
      "note_on channel=0 note=70 velocity=0 time=0\n",
      "note_on channel=0 note=51 velocity=114 time=2221\n",
      "note_on channel=0 note=51 velocity=0 time=89\n",
      "note_on channel=0 note=51 velocity=122 time=91\n",
      "note_on channel=0 note=51 velocity=0 time=119\n",
      "note_on channel=0 note=56 velocity=124 time=121\n",
      "note_on channel=0 note=56 velocity=0 time=227\n",
      "note_on channel=0 note=51 velocity=112 time=73\n",
      "note_on channel=0 note=51 velocity=0 time=89\n",
      "note_on channel=0 note=50 velocity=112 time=151\n",
      "note_on channel=0 note=50 velocity=0 time=89\n",
      "note_on channel=0 note=48 velocity=105 time=91\n",
      "note_on channel=0 note=48 velocity=0 time=119\n",
      "note_on channel=0 note=46 velocity=112 time=121\n",
      "note_on channel=0 note=46 velocity=0 time=239\n",
      "note_on channel=0 note=58 velocity=90 time=721\n",
      "note_on channel=0 note=63 velocity=99 time=0\n",
      "note_on channel=0 note=67 velocity=111 time=0\n",
      "note_on channel=0 note=67 velocity=0 time=720\n",
      "note_on channel=0 note=58 velocity=0 time=191\n",
      "note_on channel=0 note=63 velocity=0 time=0\n",
      "note_on channel=0 note=60 velocity=101 time=49\n",
      "note_on channel=0 note=63 velocity=104 time=0\n",
      "note_on channel=0 note=68 velocity=106 time=0\n",
      "note_on channel=0 note=60 velocity=0 time=239\n",
      "note_on channel=0 note=63 velocity=0 time=0\n",
      "note_on channel=0 note=68 velocity=0 time=0\n",
      "note_on channel=0 note=68 velocity=99 time=241\n",
      "note_on channel=0 note=68 velocity=0 time=239\n",
      "note_on channel=0 note=62 velocity=105 time=241\n",
      "note_on channel=0 note=66 velocity=109 time=0\n",
      "note_on channel=0 note=69 velocity=112 time=0\n",
      "note_on channel=0 note=62 velocity=0 time=455\n",
      "note_on channel=0 note=66 velocity=0 time=0\n",
      "note_on channel=0 note=69 velocity=0 time=0\n",
      "note_on channel=0 note=66 velocity=96 time=25\n",
      "note_on channel=0 note=69 velocity=110 time=0\n",
      "note_on channel=0 note=66 velocity=0 time=227\n",
      "note_on channel=0 note=69 velocity=0 time=0\n",
      "note_on channel=0 note=66 velocity=92 time=43\n",
      "note_on channel=0 note=69 velocity=106 time=0\n",
      "note_on channel=0 note=66 velocity=0 time=84\n",
      "note_on channel=0 note=69 velocity=0 time=0\n",
      "note_on channel=0 note=62 velocity=98 time=126\n",
      "note_on channel=0 note=67 velocity=106 time=0\n",
      "note_on channel=0 note=70 velocity=114 time=0\n",
      "note_on channel=0 note=62 velocity=0 time=239\n",
      "note_on channel=0 note=67 velocity=0 time=0\n",
      "note_on channel=0 note=70 velocity=0 time=0\n",
      "note_on channel=0 note=67 velocity=106 time=241\n",
      "note_on channel=0 note=70 velocity=102 time=0\n",
      "note_on channel=0 note=67 velocity=0 time=239\n",
      "note_on channel=0 note=70 velocity=0 time=0\n",
      "note_on channel=0 note=62 velocity=100 time=241\n",
      "note_on channel=0 note=65 velocity=114 time=0\n",
      "note_on channel=0 note=68 velocity=109 time=0\n",
      "note_on channel=0 note=46 velocity=75 time=240\n",
      "note_on channel=0 note=46 velocity=0 time=119\n",
      "note_on channel=0 note=46 velocity=114 time=121\n",
      "note_on channel=0 note=46 velocity=0 time=119\n",
      "note_on channel=0 note=46 velocity=107 time=121\n",
      "note_on channel=0 note=46 velocity=0 time=119\n",
      "note_on channel=0 note=46 velocity=112 time=151\n",
      "note_on channel=0 note=46 velocity=0 time=44\n",
      "note_on channel=0 note=46 velocity=92 time=166\n",
      "note_on channel=0 note=46 velocity=0 time=119\n",
      "note_on channel=0 note=46 velocity=114 time=121\n",
      "note_on channel=0 note=46 velocity=0 time=119\n",
      "note_on channel=0 note=46 velocity=92 time=136\n",
      "note_on channel=0 note=62 velocity=0 time=128\n",
      "note_on channel=0 note=65 velocity=0 time=0\n",
      "note_on channel=0 note=68 velocity=0 time=0\n",
      "note_on channel=0 note=46 velocity=0 time=84\n",
      "note_on channel=0 note=46 velocity=118 time=13\n",
      "note_on channel=0 note=46 velocity=0 time=119\n",
      "note_on channel=0 note=46 velocity=86 time=136\n",
      "note_on channel=0 note=46 velocity=0 time=212\n",
      "note_on channel=0 note=46 velocity=116 time=13\n",
      "note_on channel=0 note=46 velocity=0 time=119\n",
      "note_on channel=0 note=46 velocity=104 time=151\n",
      "note_on channel=0 note=46 velocity=0 time=44\n",
      "note_on channel=0 note=46 velocity=120 time=211\n",
      "note_on channel=0 note=46 velocity=0 time=184\n",
      "note_on channel=0 note=46 velocity=90 time=41\n",
      "note_on channel=0 note=46 velocity=0 time=44\n",
      "note_on channel=0 note=46 velocity=114 time=196\n",
      "note_on channel=0 note=46 velocity=0 time=44\n",
      "note_on channel=0 note=46 velocity=106 time=181\n",
      "note_on channel=0 note=46 velocity=0 time=212\n",
      "note_on channel=0 note=46 velocity=118 time=13\n",
      "note_on channel=0 note=46 velocity=0 time=119\n",
      "note_on channel=0 note=46 velocity=107 time=121\n",
      "note_on channel=0 note=46 velocity=0 time=119\n",
      "note_on channel=0 note=46 velocity=112 time=121\n",
      "note_on channel=0 note=46 velocity=0 time=119\n",
      "note_on channel=0 note=46 velocity=92 time=121\n",
      "note_on channel=0 note=46 velocity=0 time=119\n",
      "note_on channel=0 note=46 velocity=103 time=121\n",
      "note_on channel=0 note=46 velocity=0 time=119\n",
      "note_on channel=0 note=46 velocity=106 time=121\n",
      "note_on channel=0 note=46 velocity=0 time=119\n",
      "note_on channel=0 note=46 velocity=112 time=121\n",
      "note_on channel=0 note=46 velocity=0 time=119\n",
      "note_on channel=0 note=46 velocity=102 time=136\n",
      "note_on channel=0 note=46 velocity=0 time=212\n",
      "note_on channel=0 note=46 velocity=116 time=13\n",
      "note_on channel=0 note=46 velocity=0 time=119\n",
      "note_on channel=0 note=46 velocity=107 time=136\n",
      "note_on channel=0 note=46 velocity=0 time=212\n",
      "note_on channel=0 note=46 velocity=107 time=13\n",
      "note_on channel=0 note=46 velocity=0 time=119\n",
      "note_on channel=0 note=46 velocity=109 time=121\n",
      "note_on channel=0 note=46 velocity=0 time=119\n",
      "note_on channel=0 note=46 velocity=107 time=121\n",
      "note_on channel=0 note=46 velocity=0 time=119\n",
      "note_on channel=0 note=46 velocity=110 time=121\n",
      "note_on channel=0 note=46 velocity=0 time=119\n",
      "note_on channel=0 note=46 velocity=122 time=121\n",
      "note_on channel=0 note=46 velocity=0 time=239\n",
      "note_on channel=0 note=46 velocity=83 time=70801\n",
      "note_on channel=0 note=46 velocity=0 time=119\n",
      "note_on channel=0 note=48 velocity=86 time=121\n",
      "note_on channel=0 note=48 velocity=0 time=119\n",
      "note_on channel=0 note=46 velocity=79 time=121\n",
      "note_on channel=0 note=46 velocity=0 time=119\n",
      "note_on channel=0 note=48 velocity=98 time=121\n",
      "note_on channel=0 note=48 velocity=0 time=119\n",
      "note_on channel=0 note=50 velocity=99 time=121\n",
      "note_on channel=0 note=50 velocity=0 time=119\n",
      "note_on channel=0 note=51 velocity=96 time=121\n",
      "note_on channel=0 note=51 velocity=0 time=119\n",
      "note_on channel=0 note=50 velocity=83 time=121\n",
      "note_on channel=0 note=50 velocity=0 time=119\n",
      "note_on channel=0 note=51 velocity=106 time=121\n",
      "note_on channel=0 note=51 velocity=0 time=119\n",
      "note_on channel=0 note=53 velocity=91 time=121\n",
      "note_on channel=0 note=53 velocity=0 time=119\n",
      "note_on channel=0 note=55 velocity=98 time=121\n",
      "note_on channel=0 note=55 velocity=0 time=119\n",
      "note_on channel=0 note=56 velocity=109 time=121\n",
      "note_on channel=0 note=56 velocity=0 time=119\n",
      "note_on channel=0 note=55 velocity=95 time=121\n",
      "note_on channel=0 note=55 velocity=0 time=119\n",
      "note_on channel=0 note=56 velocity=91 time=121\n",
      "note_on channel=0 note=56 velocity=0 time=119\n",
      "note_on channel=0 note=58 velocity=98 time=121\n",
      "note_on channel=0 note=58 velocity=0 time=119\n",
      "note_on channel=0 note=60 velocity=97 time=121\n",
      "note_on channel=0 note=60 velocity=0 time=119\n",
      "note_on channel=0 note=58 velocity=93 time=121\n",
      "note_on channel=0 note=58 velocity=0 time=119\n",
      "note_on channel=0 note=62 velocity=113 time=121\n",
      "note_on channel=0 note=62 velocity=0 time=119\n",
      "note_on channel=0 note=58 velocity=88 time=121\n",
      "note_on channel=0 note=58 velocity=0 time=119\n",
      "note_on channel=0 note=65 velocity=105 time=121\n",
      "note_on channel=0 note=65 velocity=0 time=119\n",
      "note_on channel=0 note=58 velocity=79 time=121\n",
      "note_on channel=0 note=58 velocity=0 time=227\n",
      "note_on channel=0 note=58 velocity=81 time=13\n",
      "note_on channel=0 note=63 velocity=97 time=0\n",
      "note_on channel=0 note=67 velocity=100 time=0\n",
      "note_on channel=0 note=58 velocity=0 time=119\n",
      "note_on channel=0 note=63 velocity=0 time=0\n",
      "note_on channel=0 note=67 velocity=0 time=0\n",
      "note_on channel=0 note=58 velocity=83 time=121\n",
      "note_on channel=0 note=58 velocity=0 time=227\n",
      "note_on channel=0 note=70 velocity=93 time=13\n",
      "note_on channel=0 note=70 velocity=0 time=227\n",
      "note_on channel=0 note=58 velocity=83 time=43\n",
      "note_on channel=0 note=58 velocity=0 time=84\n",
      "note_on channel=0 note=58 velocity=89 time=126\n",
      "note_on channel=0 note=62 velocity=101 time=0\n",
      "note_on channel=0 note=65 velocity=101 time=0\n",
      "note_on channel=0 note=58 velocity=0 time=227\n",
      "note_on channel=0 note=62 velocity=0 time=0\n",
      "note_on channel=0 note=65 velocity=0 time=0\n",
      "note_on channel=0 note=58 velocity=97 time=43\n",
      "note_on channel=0 note=58 velocity=0 time=84\n",
      "note_on channel=0 note=70 velocity=96 time=126\n",
      "note_on channel=0 note=70 velocity=0 time=227\n",
      "note_on channel=0 note=58 velocity=81 time=13\n",
      "note_on channel=0 note=58 velocity=0 time=119\n",
      "note_on channel=0 note=63 velocity=103 time=121\n",
      "note_on channel=0 note=67 velocity=103 time=0\n",
      "note_on channel=0 note=63 velocity=0 time=227\n",
      "note_on channel=0 note=67 velocity=0 time=0\n",
      "note_on channel=0 note=60 velocity=93 time=13\n",
      "note_on channel=0 note=60 velocity=0 time=119\n",
      "note_on channel=0 note=72 velocity=98 time=121\n",
      "note_on channel=0 note=72 velocity=0 time=119\n",
      "note_on channel=0 note=60 velocity=90 time=136\n",
      "note_on channel=0 note=60 velocity=0 time=212\n",
      "note_on channel=0 note=59 velocity=91 time=13\n",
      "note_on channel=0 note=62 velocity=95 time=0\n",
      "note_on channel=0 note=65 velocity=93 time=0\n",
      "note_on channel=0 note=67 velocity=87 time=0\n",
      "note_on channel=0 note=59 velocity=0 time=239\n",
      "note_on channel=0 note=62 velocity=0 time=0\n",
      "note_on channel=0 note=65 velocity=0 time=0\n",
      "note_on channel=0 note=67 velocity=0 time=0\n",
      "note_on channel=0 note=60 velocity=94 time=241\n",
      "note_on channel=0 note=63 velocity=95 time=0\n",
      "note_on channel=0 note=67 velocity=101 time=0\n",
      "note_on channel=0 note=60 velocity=0 time=239\n",
      "note_on channel=0 note=63 velocity=0 time=0\n",
      "note_on channel=0 note=67 velocity=0 time=0\n",
      "note_on channel=0 note=59 velocity=98 time=241\n",
      "note_on channel=0 note=62 velocity=104 time=0\n",
      "note_on channel=0 note=65 velocity=99 time=0\n",
      "note_on channel=0 note=67 velocity=96 time=0\n",
      "note_on channel=0 note=59 velocity=0 time=239\n",
      "note_on channel=0 note=62 velocity=0 time=0\n",
      "note_on channel=0 note=65 velocity=0 time=0\n",
      "note_on channel=0 note=67 velocity=0 time=0\n",
      "note_on channel=0 note=60 velocity=95 time=241\n",
      "note_on channel=0 note=63 velocity=90 time=0\n",
      "note_on channel=0 note=67 velocity=99 time=0\n",
      "note_on channel=0 note=60 velocity=0 time=239\n",
      "note_on channel=0 note=63 velocity=0 time=0\n",
      "note_on channel=0 note=67 velocity=0 time=0\n",
      "note_on channel=0 note=62 velocity=102 time=241\n",
      "note_on channel=0 note=65 velocity=98 time=0\n",
      "note_on channel=0 note=70 velocity=96 time=0\n",
      "note_on channel=0 note=62 velocity=0 time=239\n",
      "note_on channel=0 note=65 velocity=0 time=0\n",
      "note_on channel=0 note=70 velocity=0 time=0\n",
      "note_on channel=0 note=63 velocity=92 time=241\n",
      "note_on channel=0 note=67 velocity=108 time=0\n",
      "note_on channel=0 note=70 velocity=95 time=0\n",
      "note_on channel=0 note=63 velocity=0 time=239\n",
      "note_on channel=0 note=67 velocity=0 time=0\n",
      "note_on channel=0 note=70 velocity=0 time=0\n",
      "note_on channel=0 note=62 velocity=86 time=241\n",
      "note_on channel=0 note=66 velocity=92 time=0\n",
      "note_on channel=0 note=69 velocity=105 time=0\n",
      "note_on channel=0 note=74 velocity=100 time=0\n",
      "note_on channel=0 note=62 velocity=0 time=227\n",
      "note_on channel=0 note=66 velocity=0 time=0\n",
      "note_on channel=0 note=69 velocity=0 time=0\n",
      "note_on channel=0 note=74 velocity=0 time=0\n",
      "note_on channel=0 note=62 velocity=93 time=73\n",
      "note_on channel=0 note=62 velocity=0 time=89\n",
      "note_on channel=0 note=81 velocity=89 time=91\n",
      "note_on channel=0 note=81 velocity=0 time=227\n",
      "note_on channel=0 note=69 velocity=86 time=13\n",
      "note_on channel=0 note=69 velocity=0 time=119\n",
      "note_on channel=0 note=62 velocity=99 time=121\n",
      "note_on channel=0 note=67 velocity=99 time=0\n",
      "note_on channel=0 note=70 velocity=98 time=0\n",
      "note_on channel=0 note=62 velocity=0 time=119\n",
      "note_on channel=0 note=67 velocity=0 time=0\n",
      "note_on channel=0 note=70 velocity=0 time=0\n",
      "note_on channel=0 note=62 velocity=96 time=121\n",
      "note_on channel=0 note=62 velocity=0 time=119\n",
      "note_on channel=0 note=74 velocity=98 time=121\n",
      "note_on channel=0 note=74 velocity=0 time=119\n",
      "note_on channel=0 note=62 velocity=96 time=121\n",
      "note_on channel=0 note=62 velocity=0 time=119\n",
      "note_on channel=0 note=60 velocity=89 time=121\n",
      "note_on channel=0 note=63 velocity=86 time=0\n",
      "note_on channel=0 note=68 velocity=78 time=0\n",
      "note_on channel=0 note=60 velocity=0 time=119\n",
      "note_on channel=0 note=63 velocity=0 time=0\n",
      "note_on channel=0 note=68 velocity=0 time=0\n",
      "note_on channel=0 note=60 velocity=82 time=121\n",
      "note_on channel=0 note=60 velocity=0 time=227\n",
      "note_on channel=0 note=68 velocity=91 time=13\n",
      "note_on channel=0 note=68 velocity=0 time=227\n",
      "note_on channel=0 note=63 velocity=83 time=13\n",
      "note_on channel=0 note=63 velocity=0 time=119\n",
      "note_on channel=0 note=63 velocity=83 time=121\n",
      "note_on channel=0 note=67 velocity=91 time=0\n",
      "note_on channel=0 note=70 velocity=79 time=0\n",
      "note_on channel=0 note=63 velocity=0 time=119\n",
      "note_on channel=0 note=67 velocity=0 time=0\n",
      "note_on channel=0 note=70 velocity=0 time=0\n",
      "note_on channel=0 note=63 velocity=81 time=121\n",
      "note_on channel=0 note=63 velocity=0 time=227\n",
      "note_on channel=0 note=75 velocity=83 time=13\n",
      "note_on channel=0 note=75 velocity=0 time=227\n",
      "note_on channel=0 note=63 velocity=86 time=13\n",
      "note_on channel=0 note=63 velocity=0 time=119\n",
      "note_on channel=0 note=60 velocity=80 time=121\n",
      "note_on channel=0 note=63 velocity=83 time=0\n",
      "note_on channel=0 note=67 velocity=93 time=0\n",
      "note_on channel=0 note=60 velocity=0 time=227\n",
      "note_on channel=0 note=63 velocity=0 time=0\n",
      "note_on channel=0 note=67 velocity=0 time=0\n",
      "note_on channel=0 note=60 velocity=89 time=13\n",
      "note_on channel=0 note=60 velocity=0 time=227\n",
      "note_on channel=0 note=67 velocity=98 time=13\n",
      "note_on channel=0 note=67 velocity=0 time=227\n",
      "note_on channel=0 note=60 velocity=99 time=13\n",
      "note_on channel=0 note=60 velocity=0 time=119\n",
      "note_on channel=0 note=58 velocity=91 time=121\n",
      "note_on channel=0 note=62 velocity=105 time=0\n",
      "note_on channel=0 note=58 velocity=0 time=227\n",
      "note_on channel=0 note=62 velocity=0 time=0\n",
      "note_on channel=0 note=55 velocity=96 time=13\n",
      "note_on channel=0 note=55 velocity=0 time=227\n",
      "note_on channel=0 note=67 velocity=91 time=13\n",
      "note_on channel=0 note=67 velocity=0 time=227\n",
      "note_on channel=0 note=55 velocity=83 time=13\n",
      "note_on channel=0 note=55 velocity=0 time=119\n",
      "note_on channel=0 note=63 velocity=85 time=121\n",
      "note_on channel=0 note=67 velocity=93 time=0\n",
      "note_on channel=0 note=63 velocity=0 time=227\n",
      "note_on channel=0 note=67 velocity=0 time=0\n",
      "note_on channel=0 note=60 velocity=85 time=13\n",
      "note_on channel=0 note=60 velocity=0 time=227\n",
      "note_on channel=0 note=63 velocity=100 time=13\n",
      "note_on channel=0 note=63 velocity=0 time=227\n",
      "note_on channel=0 note=67 velocity=109 time=13\n",
      "note_on channel=0 note=67 velocity=0 time=119\n",
      "note_on channel=0 note=58 velocity=86 time=121\n",
      "note_on channel=0 note=62 velocity=99 time=0\n",
      "note_on channel=0 note=58 velocity=0 time=227\n",
      "note_on channel=0 note=62 velocity=0 time=0\n",
      "note_on channel=0 note=55 velocity=93 time=13\n",
      "note_on channel=0 note=55 velocity=0 time=227\n",
      "note_on channel=0 note=58 velocity=92 time=13\n",
      "note_on channel=0 note=58 velocity=0 time=227\n",
      "note_on channel=0 note=62 velocity=94 time=28\n",
      "note_on channel=0 note=62 velocity=0 time=212\n",
      "note_on channel=0 note=60 velocity=79 time=13\n",
      "note_on channel=0 note=63 velocity=92 time=0\n",
      "note_on channel=0 note=60 velocity=0 time=113\n",
      "note_on channel=0 note=67 velocity=113 time=7\n",
      "note_on channel=0 note=63 velocity=0 time=107\n",
      "note_on channel=0 note=60 velocity=97 time=13\n",
      "note_on channel=0 note=67 velocity=0 time=59\n",
      "note_on channel=0 note=63 velocity=116 time=181\n",
      "note_on channel=0 note=63 velocity=0 time=227\n",
      "note_on channel=0 note=67 velocity=116 time=13\n",
      "note_on channel=0 note=67 velocity=0 time=119\n",
      "note_on channel=0 note=60 velocity=0 time=84\n",
      "note_on channel=0 note=44 velocity=56 time=37\n",
      "note_on channel=0 note=59 velocity=95 time=120\n",
      "note_on channel=0 note=63 velocity=99 time=120\n",
      "note_on channel=0 note=44 velocity=0 time=215\n",
      "note_on channel=0 note=59 velocity=0 time=6\n",
      "note_on channel=0 note=63 velocity=0 time=6\n",
      "note_on channel=0 note=46 velocity=72 time=13\n",
      "note_on channel=0 note=60 velocity=95 time=480\n",
      "note_on channel=0 note=63 velocity=109 time=480\n",
      "note_on channel=0 note=60 velocity=0 time=431\n",
      "note_on channel=0 note=60 velocity=67 time=49\n",
      "note_on channel=0 note=46 velocity=0 time=839\n",
      "note_on channel=0 note=63 velocity=0 time=48\n",
      "note_on channel=0 note=60 velocity=0 time=24\n",
      "note_on channel=0 note=63 velocity=69 time=49\n",
      "note_on channel=0 note=67 velocity=87 time=0\n",
      "note_on channel=0 note=63 velocity=0 time=119\n",
      "note_on channel=0 note=67 velocity=0 time=0\n",
      "note_on channel=0 note=63 velocity=92 time=121\n",
      "note_on channel=0 note=63 velocity=0 time=227\n",
      "note_on channel=0 note=67 velocity=105 time=13\n",
      "note_on channel=0 note=67 velocity=0 time=227\n",
      "note_on channel=0 note=70 velocity=102 time=13\n",
      "note_on channel=0 note=70 velocity=0 time=227\n",
      "note_on channel=0 note=72 velocity=98 time=13\n",
      "note_on channel=0 note=72 velocity=0 time=227\n",
      "note_on channel=0 note=74 velocity=105 time=13\n",
      "note_on channel=0 note=74 velocity=0 time=227\n",
      "note_on channel=0 note=72 velocity=102 time=13\n",
      "note_on channel=0 note=72 velocity=0 time=227\n",
      "note_on channel=0 note=74 velocity=98 time=13\n",
      "note_on channel=0 note=74 velocity=0 time=119\n",
      "note_on channel=0 note=63 velocity=73 time=121\n",
      "note_on channel=0 note=67 velocity=78 time=0\n",
      "note_on channel=0 note=70 velocity=68 time=0\n",
      "note_on channel=0 note=63 velocity=0 time=239\n",
      "note_on channel=0 note=67 velocity=0 time=0\n",
      "note_on channel=0 note=70 velocity=0 time=0\n",
      "note_on channel=0 note=63 velocity=87 time=1\n",
      "note_on channel=0 note=67 velocity=104 time=240\n",
      "note_on channel=0 note=67 velocity=0 time=227\n",
      "note_on channel=0 note=70 velocity=104 time=13\n",
      "note_on channel=0 note=70 velocity=0 time=119\n",
      "note_on channel=0 note=63 velocity=0 time=84\n",
      "note_on channel=0 note=72 velocity=109 time=37\n",
      "note_on channel=0 note=72 velocity=0 time=227\n",
      "note_on channel=0 note=74 velocity=98 time=13\n",
      "note_on channel=0 note=74 velocity=0 time=227\n",
      "note_on channel=0 note=72 velocity=109 time=13\n",
      "note_on channel=0 note=72 velocity=0 time=227\n",
      "note_on channel=0 note=74 velocity=110 time=13\n",
      "note_on channel=0 note=74 velocity=0 time=119\n",
      "note_on channel=0 note=62 velocity=85 time=1\n",
      "note_on channel=0 note=70 velocity=98 time=120\n",
      "note_on channel=0 note=62 velocity=0 time=221\n",
      "note_on channel=0 note=70 velocity=0 time=18\n",
      "note_on channel=0 note=62 velocity=101 time=1\n",
      "note_on channel=0 note=65 velocity=116 time=240\n",
      "note_on channel=0 note=65 velocity=0 time=239\n",
      "note_on channel=0 note=62 velocity=0 time=204\n",
      "note_on channel=0 note=61 velocity=81 time=37\n",
      "note_on channel=0 note=65 velocity=98 time=0\n",
      "note_on channel=0 note=70 velocity=99 time=0\n",
      "note_on channel=0 note=61 velocity=0 time=227\n",
      "note_on channel=0 note=65 velocity=0 time=0\n",
      "note_on channel=0 note=70 velocity=0 time=0\n",
      "note_on channel=0 note=72 velocity=87 time=13\n",
      "note_on channel=0 note=72 velocity=0 time=227\n",
      "note_on channel=0 note=70 velocity=93 time=13\n",
      "note_on channel=0 note=70 velocity=0 time=227\n",
      "note_on channel=0 note=72 velocity=98 time=13\n",
      "note_on channel=0 note=72 velocity=0 time=119\n",
      "note_on channel=0 note=60 velocity=71 time=121\n",
      "note_on channel=0 note=64 velocity=81 time=0\n",
      "note_on channel=0 note=67 velocity=91 time=0\n",
      "note_on channel=0 note=60 velocity=0 time=239\n",
      "note_on channel=0 note=64 velocity=0 time=0\n",
      "note_on channel=0 note=67 velocity=0 time=0\n",
      "note_on channel=0 note=60 velocity=93 time=1\n",
      "note_on channel=0 note=64 velocity=105 time=240\n",
      "note_on channel=0 note=64 velocity=0 time=227\n",
      "note_on channel=0 note=67 velocity=114 time=13\n",
      "note_on channel=0 note=67 velocity=0 time=119\n",
      "note_on channel=0 note=60 velocity=0 time=84\n",
      "note_on channel=0 note=70 velocity=103 time=37\n",
      "note_on channel=0 note=70 velocity=0 time=227\n",
      "note_on channel=0 note=68 velocity=109 time=13\n",
      "note_on channel=0 note=68 velocity=0 time=119\n",
      "note_on channel=0 note=68 velocity=100 time=121\n",
      "note_on channel=0 note=68 velocity=0 time=113\n",
      "note_on channel=0 note=67 velocity=70 time=7\n",
      "note_on channel=0 note=67 velocity=0 time=120\n",
      "note_on channel=0 note=67 velocity=72 time=0\n",
      "note_on channel=0 note=64 velocity=90 time=240\n",
      "note_on channel=0 note=64 velocity=0 time=0\n",
      "note_on channel=0 note=60 velocity=95 time=240\n",
      "note_on channel=0 note=58 velocity=86 time=120\n",
      "note_on channel=0 note=67 velocity=0 time=83\n",
      "note_on channel=0 note=41 velocity=85 time=37\n",
      "note_on channel=0 note=60 velocity=0 time=443\n",
      "note_on channel=0 note=58 velocity=0 time=6\n",
      "note_on channel=0 note=65 velocity=89 time=31\n",
      "note_on channel=0 note=69 velocity=66 time=240\n",
      "note_on channel=0 note=74 velocity=83 time=240\n",
      "note_on channel=0 note=65 velocity=0 time=240\n",
      "note_on channel=0 note=69 velocity=0 time=659\n",
      "note_on channel=0 note=69 velocity=70 time=61\n",
      "note_on channel=0 note=72 velocity=77 time=0\n",
      "note_on channel=0 note=68 velocity=64 time=480\n",
      "note_on channel=0 note=71 velocity=86 time=0\n",
      "note_on channel=0 note=67 velocity=77 time=480\n",
      "note_on channel=0 note=70 velocity=61 time=0\n",
      "note_on channel=0 note=41 velocity=0 time=311\n",
      "note_on channel=0 note=74 velocity=0 time=48\n",
      "note_on channel=0 note=69 velocity=0 time=48\n",
      "note_on channel=0 note=72 velocity=0 time=0\n",
      "note_on channel=0 note=68 velocity=0 time=24\n",
      "note_on channel=0 note=71 velocity=0 time=0\n",
      "note_on channel=0 note=67 velocity=0 time=24\n",
      "note_on channel=0 note=70 velocity=0 time=0\n",
      "note_on channel=0 note=53 velocity=61 time=25\n",
      "note_on channel=0 note=57 velocity=45 time=0\n",
      "note_on channel=0 note=60 velocity=46 time=0\n",
      "note_on channel=0 note=53 velocity=0 time=455\n",
      "note_on channel=0 note=57 velocity=0 time=0\n",
      "note_on channel=0 note=60 velocity=0 time=0\n",
      "<meta message end_of_track time=1>\n",
      "Track 1: \n",
      "<meta message key_signature key='Eb' time=0>\n",
      "<meta message midi_port port=0 time=0>\n",
      "note_on channel=0 note=31 velocity=106 time=9600\n",
      "note_on channel=0 note=43 velocity=97 time=0\n",
      "note_on channel=0 note=31 velocity=0 time=1823\n",
      "note_on channel=0 note=43 velocity=0 time=0\n",
      "note_on channel=0 note=34 velocity=97 time=97\n",
      "note_on channel=0 note=46 velocity=91 time=0\n",
      "note_on channel=0 note=58 velocity=93 time=480\n",
      "note_on channel=0 note=62 velocity=89 time=0\n",
      "note_on channel=0 note=58 velocity=0 time=455\n",
      "note_on channel=0 note=62 velocity=0 time=0\n",
      "note_on channel=0 note=34 velocity=0 time=888\n",
      "note_on channel=0 note=46 velocity=0 time=0\n",
      "note_on channel=0 note=39 velocity=88 time=97\n",
      "note_on channel=0 note=51 velocity=100 time=0\n",
      "note_on channel=0 note=63 velocity=85 time=960\n",
      "note_on channel=0 note=68 velocity=88 time=0\n",
      "note_on channel=0 note=63 velocity=0 time=239\n",
      "note_on channel=0 note=68 velocity=0 time=0\n",
      "note_on channel=0 note=39 velocity=0 time=168\n",
      "note_on channel=0 note=51 velocity=0 time=0\n",
      "note_on channel=0 note=67 velocity=103 time=73\n",
      "note_on channel=0 note=67 velocity=0 time=227\n",
      "note_on channel=0 note=75 velocity=101 time=13\n",
      "note_on channel=0 note=75 velocity=0 time=119\n",
      "note_on channel=0 note=36 velocity=96 time=121\n",
      "note_on channel=0 note=48 velocity=96 time=0\n",
      "note_on channel=0 note=60 velocity=81 time=480\n",
      "note_on channel=0 note=63 velocity=84 time=0\n",
      "note_on channel=0 note=60 velocity=0 time=119\n",
      "note_on channel=0 note=63 velocity=0 time=0\n",
      "note_on channel=0 note=60 velocity=80 time=121\n",
      "note_on channel=0 note=60 velocity=0 time=227\n",
      "note_on channel=0 note=60 velocity=70 time=253\n",
      "note_on channel=0 note=36 velocity=0 time=167\n",
      "note_on channel=0 note=48 velocity=0 time=0\n",
      "note_on channel=0 note=60 velocity=0 time=60\n",
      "note_on channel=0 note=41 velocity=82 time=493\n",
      "note_on channel=0 note=67 velocity=58 time=480\n",
      "note_on channel=0 note=67 velocity=0 time=119\n",
      "note_on channel=0 note=60 velocity=80 time=121\n",
      "note_on channel=0 note=60 velocity=0 time=683\n",
      "note_on channel=0 note=41 velocity=0 time=420\n",
      "note_on channel=0 note=63 velocity=55 time=97\n",
      "note_on channel=0 note=63 velocity=0 time=239\n",
      "note_on channel=0 note=62 velocity=72 time=271\n",
      "note_on channel=0 note=62 velocity=0 time=426\n",
      "note_on channel=0 note=61 velocity=38 time=24\n",
      "note_on channel=0 note=61 velocity=0 time=239\n",
      "note_on channel=0 note=62 velocity=75 time=241\n",
      "note_on channel=0 note=62 velocity=0 time=239\n",
      "note_on channel=0 note=63 velocity=82 time=241\n",
      "note_on channel=0 note=63 velocity=0 time=239\n",
      "note_on channel=0 note=62 velocity=83 time=241\n",
      "note_on channel=0 note=65 velocity=84 time=0\n",
      "note_on channel=0 note=62 velocity=0 time=239\n",
      "note_on channel=0 note=65 velocity=0 time=0\n",
      "note_on channel=0 note=61 velocity=76 time=241\n",
      "note_on channel=0 note=64 velocity=98 time=0\n",
      "note_on channel=0 note=61 velocity=0 time=239\n",
      "note_on channel=0 note=64 velocity=0 time=0\n",
      "note_on channel=0 note=62 velocity=86 time=241\n",
      "note_on channel=0 note=65 velocity=91 time=0\n",
      "note_on channel=0 note=62 velocity=0 time=239\n",
      "note_on channel=0 note=65 velocity=0 time=0\n",
      "note_on channel=0 note=39 velocity=80 time=241\n",
      "note_on channel=0 note=51 velocity=84 time=0\n",
      "note_on channel=0 note=67 velocity=107 time=480\n",
      "note_on channel=0 note=70 velocity=95 time=0\n",
      "note_on channel=0 note=67 velocity=0 time=239\n",
      "note_on channel=0 note=70 velocity=0 time=0\n",
      "note_on channel=0 note=39 velocity=0 time=192\n",
      "note_on channel=0 note=51 velocity=0 time=0\n",
      "note_on channel=0 note=38 velocity=94 time=49\n",
      "note_on channel=0 note=50 velocity=89 time=0\n",
      "note_on channel=0 note=65 velocity=105 time=480\n",
      "note_on channel=0 note=65 velocity=0 time=239\n",
      "note_on channel=0 note=38 velocity=0 time=192\n",
      "note_on channel=0 note=50 velocity=0 time=0\n",
      "note_on channel=0 note=37 velocity=88 time=49\n",
      "note_on channel=0 note=49 velocity=85 time=0\n",
      "note_on channel=0 note=61 velocity=90 time=480\n",
      "note_on channel=0 note=64 velocity=99 time=0\n",
      "note_on channel=0 note=37 velocity=0 time=431\n",
      "note_on channel=0 note=49 velocity=0 time=0\n",
      "note_on channel=0 note=61 velocity=0 time=24\n",
      "note_on channel=0 note=64 velocity=0 time=0\n",
      "note_on channel=0 note=36 velocity=93 time=25\n",
      "note_on channel=0 note=48 velocity=93 time=0\n",
      "note_on channel=0 note=60 velocity=74 time=480\n",
      "note_on channel=0 note=63 velocity=85 time=0\n",
      "note_on channel=0 note=65 velocity=99 time=0\n",
      "note_on channel=0 note=60 velocity=0 time=720\n",
      "note_on channel=0 note=63 velocity=0 time=191\n",
      "note_on channel=0 note=65 velocity=0 time=0\n",
      "note_on channel=0 note=69 velocity=86 time=529\n",
      "note_on channel=0 note=69 velocity=0 time=239\n",
      "note_on channel=0 note=36 velocity=0 time=576\n",
      "note_on channel=0 note=48 velocity=0 time=0\n",
      "note_on channel=0 note=34 velocity=70 time=145\n",
      "note_on channel=0 note=46 velocity=55 time=0\n",
      "note_on channel=0 note=67 velocity=114 time=960\n",
      "note_on channel=0 note=67 velocity=0 time=239\n",
      "note_on channel=0 note=34 velocity=0 time=168\n",
      "note_on channel=0 note=46 velocity=0 time=0\n",
      "note_on channel=0 note=65 velocity=105 time=73\n",
      "note_on channel=0 note=65 velocity=0 time=227\n",
      "note_on channel=0 note=53 velocity=72 time=13\n",
      "note_on channel=0 note=53 velocity=0 time=119\n",
      "note_on channel=0 note=34 velocity=76 time=121\n",
      "note_on channel=0 note=46 velocity=59 time=0\n",
      "note_on channel=0 note=67 velocity=111 time=960\n",
      "note_on channel=0 note=67 velocity=0 time=239\n",
      "note_on channel=0 note=34 velocity=0 time=168\n",
      "note_on channel=0 note=46 velocity=0 time=0\n",
      "note_on channel=0 note=65 velocity=107 time=73\n",
      "note_on channel=0 note=65 velocity=0 time=239\n",
      "note_on channel=0 note=34 velocity=100 time=241\n",
      "note_on channel=0 note=46 velocity=85 time=0\n",
      "note_on channel=0 note=67 velocity=103 time=960\n",
      "note_on channel=0 note=67 velocity=0 time=239\n",
      "note_on channel=0 note=34 velocity=0 time=168\n",
      "note_on channel=0 note=46 velocity=0 time=0\n",
      "note_on channel=0 note=65 velocity=102 time=73\n",
      "note_on channel=0 note=65 velocity=0 time=239\n",
      "note_on channel=0 note=31 velocity=93 time=241\n",
      "note_on channel=0 note=43 velocity=87 time=0\n",
      "note_on channel=0 note=69 velocity=115 time=960\n",
      "note_on channel=0 note=69 velocity=0 time=239\n",
      "note_on channel=0 note=31 velocity=0 time=168\n",
      "note_on channel=0 note=43 velocity=0 time=0\n",
      "note_on channel=0 note=67 velocity=111 time=73\n",
      "note_on channel=0 note=67 velocity=0 time=239\n",
      "note_on channel=0 note=36 velocity=86 time=241\n",
      "note_on channel=0 note=48 velocity=85 time=0\n",
      "note_on channel=0 note=74 velocity=115 time=960\n",
      "note_on channel=0 note=74 velocity=0 time=239\n",
      "note_on channel=0 note=72 velocity=104 time=241\n",
      "note_on channel=0 note=72 velocity=0 time=239\n",
      "note_on channel=0 note=36 velocity=0 time=144\n",
      "note_on channel=0 note=48 velocity=0 time=0\n",
      "note_on channel=0 note=36 velocity=83 time=97\n",
      "note_on channel=0 note=48 velocity=86 time=0\n",
      "note_on channel=0 note=36 velocity=0 time=455\n",
      "note_on channel=0 note=48 velocity=0 time=0\n",
      "note_on channel=0 note=53 velocity=70 time=505\n",
      "note_on channel=0 note=41 velocity=71 time=0\n",
      "note_on channel=0 note=53 velocity=0 time=455\n",
      "note_on channel=0 note=41 velocity=0 time=456\n",
      "note_on channel=0 note=34 velocity=84 time=49\n",
      "note_on channel=0 note=46 velocity=72 time=0\n",
      "note_on channel=0 note=34 velocity=0 time=911\n",
      "note_on channel=0 note=46 velocity=0 time=0\n",
      "note_on channel=0 note=67 velocity=101 time=49\n",
      "note_on channel=0 note=67 velocity=0 time=239\n",
      "note_on channel=0 note=65 velocity=103 time=241\n",
      "note_on channel=0 note=65 velocity=0 time=239\n",
      "note_on channel=0 note=31 velocity=88 time=241\n",
      "note_on channel=0 note=43 velocity=79 time=0\n",
      "note_on channel=0 note=69 velocity=115 time=960\n",
      "note_on channel=0 note=69 velocity=0 time=239\n",
      "note_on channel=0 note=31 velocity=0 time=168\n",
      "note_on channel=0 note=43 velocity=0 time=0\n",
      "note_on channel=0 note=67 velocity=106 time=73\n",
      "note_on channel=0 note=67 velocity=0 time=239\n",
      "note_on channel=0 note=36 velocity=86 time=241\n",
      "note_on channel=0 note=48 velocity=89 time=0\n",
      "note_on channel=0 note=36 velocity=0 time=455\n",
      "note_on channel=0 note=48 velocity=0 time=0\n",
      "note_on channel=0 note=35 velocity=91 time=505\n",
      "note_on channel=0 note=47 velocity=86 time=0\n",
      "note_on channel=0 note=35 velocity=0 time=239\n",
      "note_on channel=0 note=47 velocity=0 time=0\n",
      "note_on channel=0 note=34 velocity=97 time=241\n",
      "note_on channel=0 note=46 velocity=85 time=0\n",
      "note_on channel=0 note=34 velocity=0 time=239\n",
      "note_on channel=0 note=46 velocity=0 time=0\n",
      "note_on channel=0 note=33 velocity=101 time=241\n",
      "note_on channel=0 note=45 velocity=96 time=0\n",
      "note_on channel=0 note=33 velocity=0 time=911\n",
      "note_on channel=0 note=45 velocity=0 time=0\n",
      "note_on channel=0 note=32 velocity=111 time=49\n",
      "note_on channel=0 note=44 velocity=87 time=0\n",
      "note_on channel=0 note=32 velocity=0 time=239\n",
      "note_on channel=0 note=44 velocity=0 time=0\n",
      "note_on channel=0 note=31 velocity=102 time=241\n",
      "note_on channel=0 note=43 velocity=103 time=0\n",
      "note_on channel=0 note=31 velocity=0 time=239\n",
      "note_on channel=0 note=43 velocity=0 time=0\n",
      "note_on channel=0 note=39 velocity=102 time=241\n",
      "note_on channel=0 note=51 velocity=115 time=0\n",
      "note_on channel=0 note=67 velocity=115 time=480\n",
      "note_on channel=0 note=70 velocity=102 time=0\n",
      "note_on channel=0 note=67 velocity=0 time=239\n",
      "note_on channel=0 note=70 velocity=0 time=0\n",
      "note_on channel=0 note=67 velocity=109 time=241\n",
      "note_on channel=0 note=67 velocity=0 time=239\n",
      "note_on channel=0 note=39 velocity=0 time=168\n",
      "note_on channel=0 note=51 velocity=0 time=0\n",
      "note_on channel=0 note=38 velocity=113 time=73\n",
      "note_on channel=0 note=50 velocity=103 time=0\n",
      "note_on channel=0 note=38 velocity=0 time=239\n",
      "note_on channel=0 note=50 velocity=0 time=0\n",
      "note_on channel=0 note=36 velocity=89 time=241\n",
      "note_on channel=0 note=48 velocity=98 time=0\n",
      "note_on channel=0 note=74 velocity=127 time=960\n",
      "note_on channel=0 note=74 velocity=0 time=239\n",
      "note_on channel=0 note=36 velocity=0 time=168\n",
      "note_on channel=0 note=48 velocity=0 time=0\n",
      "note_on channel=0 note=72 velocity=122 time=73\n",
      "note_on channel=0 note=72 velocity=0 time=239\n",
      "note_on channel=0 note=41 velocity=110 time=241\n",
      "note_on channel=0 note=53 velocity=106 time=0\n",
      "note_on channel=0 note=41 velocity=0 time=455\n",
      "note_on channel=0 note=53 velocity=0 time=0\n",
      "note_on channel=0 note=68 velocity=98 time=100\n",
      "note_on channel=0 note=72 velocity=87 time=0\n",
      "note_on channel=0 note=68 velocity=0 time=41\n",
      "note_on channel=0 note=72 velocity=0 time=0\n",
      "note_on channel=0 note=40 velocity=104 time=124\n",
      "note_on channel=0 note=52 velocity=108 time=0\n",
      "note_on channel=0 note=40 velocity=0 time=119\n",
      "note_on channel=0 note=52 velocity=0 time=0\n",
      "note_on channel=0 note=39 velocity=114 time=121\n",
      "note_on channel=0 note=51 velocity=112 time=0\n",
      "note_on channel=0 note=39 velocity=0 time=455\n",
      "note_on channel=0 note=51 velocity=0 time=0\n",
      "note_on channel=0 note=38 velocity=110 time=25\n",
      "note_on channel=0 note=50 velocity=94 time=0\n",
      "note_on channel=0 note=38 velocity=0 time=239\n",
      "note_on channel=0 note=50 velocity=0 time=0\n",
      "note_on channel=0 note=34 velocity=102 time=241\n",
      "note_on channel=0 note=46 velocity=84 time=0\n",
      "note_on channel=0 note=34 velocity=0 time=227\n",
      "note_on channel=0 note=46 velocity=0 time=0\n",
      "note_on channel=0 note=34 velocity=74 time=13\n",
      "note_on channel=0 note=34 velocity=0 time=59\n",
      "note_on channel=0 note=34 velocity=97 time=61\n",
      "note_on channel=0 note=34 velocity=0 time=59\n",
      "note_on channel=0 note=34 velocity=109 time=61\n",
      "note_on channel=0 note=46 velocity=90 time=0\n",
      "note_on channel=0 note=34 velocity=0 time=227\n",
      "note_on channel=0 note=46 velocity=0 time=0\n",
      "note_on channel=0 note=34 velocity=98 time=28\n",
      "note_on channel=0 note=34 velocity=0 time=41\n",
      "note_on channel=0 note=34 velocity=108 time=64\n",
      "note_on channel=0 note=34 velocity=0 time=59\n",
      "note_on channel=0 note=34 velocity=123 time=61\n",
      "note_on channel=0 note=46 velocity=92 time=0\n",
      "note_on channel=0 note=34 velocity=0 time=227\n",
      "note_on channel=0 note=46 velocity=0 time=0\n",
      "note_on channel=0 note=34 velocity=94 time=13\n",
      "note_on channel=0 note=34 velocity=0 time=59\n",
      "note_on channel=0 note=34 velocity=97 time=76\n",
      "note_on channel=0 note=34 velocity=0 time=41\n",
      "note_on channel=0 note=34 velocity=115 time=79\n",
      "note_on channel=0 note=46 velocity=104 time=0\n",
      "note_on channel=0 note=34 velocity=0 time=41\n",
      "note_on channel=0 note=46 velocity=0 time=0\n",
      "note_on channel=0 note=34 velocity=115 time=64\n",
      "note_on channel=0 note=34 velocity=0 time=59\n",
      "note_on channel=0 note=34 velocity=125 time=61\n",
      "note_on channel=0 note=34 velocity=0 time=119\n",
      "note_on channel=0 note=39 velocity=114 time=121\n",
      "note_on channel=0 note=51 velocity=102 time=0\n",
      "note_on channel=0 note=67 velocity=118 time=480\n",
      "note_on channel=0 note=70 velocity=95 time=0\n",
      "note_on channel=0 note=67 velocity=0 time=239\n",
      "note_on channel=0 note=70 velocity=0 time=0\n",
      "note_on channel=0 note=39 velocity=0 time=192\n",
      "note_on channel=0 note=51 velocity=0 time=0\n",
      "note_on channel=0 note=38 velocity=99 time=49\n",
      "note_on channel=0 note=50 velocity=107 time=0\n",
      "note_on channel=0 note=50 velocity=0 time=455\n",
      "note_on channel=0 note=65 velocity=116 time=25\n",
      "note_on channel=0 note=38 velocity=0 time=431\n",
      "note_on channel=0 note=65 velocity=0 time=24\n",
      "note_on channel=0 note=36 velocity=81 time=25\n",
      "note_on channel=0 note=48 velocity=86 time=0\n",
      "note_on channel=0 note=36 velocity=0 time=455\n",
      "note_on channel=0 note=48 velocity=0 time=0\n",
      "note_on channel=0 note=63 velocity=88 time=25\n",
      "note_on channel=0 note=63 velocity=0 time=239\n",
      "note_on channel=0 note=32 velocity=84 time=241\n",
      "note_on channel=0 note=44 velocity=69 time=0\n",
      "note_on channel=0 note=32 velocity=0 time=911\n",
      "note_on channel=0 note=44 velocity=0 time=0\n",
      "note_on channel=0 note=39 velocity=57 time=49\n",
      "note_on channel=0 note=51 velocity=69 time=0\n",
      "note_on channel=0 note=68 velocity=71 time=960\n",
      "note_on channel=0 note=68 velocity=0 time=239\n",
      "note_on channel=0 note=67 velocity=78 time=241\n",
      "note_on channel=0 note=67 velocity=0 time=239\n",
      "note_on channel=0 note=66 velocity=83 time=241\n",
      "note_on channel=0 note=66 velocity=0 time=239\n",
      "note_on channel=0 note=39 velocity=0 time=120\n",
      "note_on channel=0 note=51 velocity=0 time=0\n",
      "note_on channel=0 note=65 velocity=76 time=121\n",
      "note_on channel=0 note=65 velocity=0 time=239\n",
      "note_on channel=0 note=34 velocity=76 time=241\n",
      "note_on channel=0 note=46 velocity=70 time=0\n",
      "note_on channel=0 note=34 velocity=0 time=911\n",
      "note_on channel=0 note=46 velocity=0 time=0\n",
      "note_on channel=0 note=67 velocity=116 time=49\n",
      "note_on channel=0 note=67 velocity=0 time=239\n",
      "note_on channel=0 note=65 velocity=98 time=241\n",
      "note_on channel=0 note=65 velocity=0 time=239\n",
      "note_on channel=0 note=34 velocity=87 time=241\n",
      "note_on channel=0 note=46 velocity=71 time=0\n",
      "note_on channel=0 note=34 velocity=0 time=119\n",
      "note_on channel=0 note=46 velocity=0 time=0\n",
      "note_on channel=0 note=53 velocity=69 time=121\n",
      "note_on channel=0 note=53 velocity=0 time=227\n",
      "note_on channel=0 note=58 velocity=93 time=13\n",
      "note_on channel=0 note=58 velocity=0 time=227\n",
      "note_on channel=0 note=62 velocity=95 time=13\n",
      "note_on channel=0 note=62 velocity=0 time=227\n",
      "note_on channel=0 note=67 velocity=125 time=13\n",
      "note_on channel=0 note=67 velocity=0 time=239\n",
      "note_on channel=0 note=65 velocity=111 time=241\n",
      "note_on channel=0 note=65 velocity=0 time=239\n",
      "note_on channel=0 note=34 velocity=97 time=241\n",
      "note_on channel=0 note=46 velocity=79 time=0\n",
      "note_on channel=0 note=34 velocity=0 time=119\n",
      "note_on channel=0 note=46 velocity=0 time=0\n",
      "note_on channel=0 note=53 velocity=100 time=121\n",
      "note_on channel=0 note=53 velocity=0 time=227\n",
      "note_on channel=0 note=58 velocity=102 time=13\n",
      "note_on channel=0 note=58 velocity=0 time=227\n",
      "note_on channel=0 note=62 velocity=105 time=13\n",
      "note_on channel=0 note=62 velocity=0 time=227\n",
      "note_on channel=0 note=67 velocity=120 time=13\n",
      "note_on channel=0 note=67 velocity=0 time=239\n",
      "note_on channel=0 note=65 velocity=114 time=241\n",
      "note_on channel=0 note=65 velocity=0 time=239\n",
      "note_on channel=0 note=31 velocity=98 time=241\n",
      "note_on channel=0 note=43 velocity=79 time=0\n",
      "note_on channel=0 note=31 velocity=0 time=239\n",
      "note_on channel=0 note=43 velocity=0 time=0\n",
      "note_on channel=0 note=69 velocity=121 time=721\n",
      "note_on channel=0 note=69 velocity=0 time=239\n",
      "note_on channel=0 note=67 velocity=118 time=241\n",
      "note_on channel=0 note=67 velocity=0 time=239\n",
      "note_on channel=0 note=36 velocity=95 time=241\n",
      "note_on channel=0 note=48 velocity=82 time=0\n",
      "note_on channel=0 note=74 velocity=119 time=960\n",
      "note_on channel=0 note=72 velocity=116 time=480\n",
      "note_on channel=0 note=36 velocity=0 time=383\n",
      "note_on channel=0 note=48 velocity=0 time=0\n",
      "note_on channel=0 note=74 velocity=0 time=48\n",
      "note_on channel=0 note=72 velocity=0 time=24\n",
      "note_on channel=0 note=36 velocity=95 time=25\n",
      "note_on channel=0 note=48 velocity=90 time=0\n",
      "note_on channel=0 note=36 velocity=0 time=239\n",
      "note_on channel=0 note=48 velocity=0 time=0\n",
      "note_on channel=0 note=41 velocity=106 time=721\n",
      "note_on channel=0 note=53 velocity=96 time=0\n",
      "note_on channel=0 note=41 velocity=0 time=239\n",
      "note_on channel=0 note=53 velocity=0 time=0\n",
      "note_on channel=0 note=34 velocity=86 time=721\n",
      "note_on channel=0 note=46 velocity=76 time=0\n",
      "note_on channel=0 note=34 velocity=0 time=455\n",
      "note_on channel=0 note=46 velocity=0 time=0\n",
      "note_on channel=0 note=67 velocity=120 time=505\n",
      "note_on channel=0 note=67 velocity=0 time=239\n",
      "note_on channel=0 note=65 velocity=115 time=241\n",
      "note_on channel=0 note=65 velocity=0 time=239\n",
      "note_on channel=0 note=31 velocity=104 time=241\n",
      "note_on channel=0 note=43 velocity=86 time=0\n",
      "note_on channel=0 note=31 velocity=0 time=239\n",
      "note_on channel=0 note=43 velocity=0 time=0\n",
      "note_on channel=0 note=69 velocity=125 time=721\n",
      "note_on channel=0 note=69 velocity=0 time=239\n",
      "note_on channel=0 note=67 velocity=115 time=241\n",
      "note_on channel=0 note=67 velocity=0 time=239\n",
      "note_on channel=0 note=36 velocity=98 time=241\n",
      "note_on channel=0 note=48 velocity=92 time=0\n",
      "note_on channel=0 note=36 velocity=0 time=239\n",
      "note_on channel=0 note=48 velocity=0 time=0\n",
      "note_on channel=0 note=35 velocity=115 time=721\n",
      "note_on channel=0 note=47 velocity=101 time=0\n",
      "note_on channel=0 note=35 velocity=0 time=239\n",
      "note_on channel=0 note=47 velocity=0 time=0\n",
      "note_on channel=0 note=34 velocity=111 time=241\n",
      "note_on channel=0 note=46 velocity=93 time=0\n",
      "note_on channel=0 note=34 velocity=0 time=239\n",
      "note_on channel=0 note=46 velocity=0 time=0\n",
      "note_on channel=0 note=33 velocity=114 time=241\n",
      "note_on channel=0 note=45 velocity=104 time=0\n",
      "note_on channel=0 note=33 velocity=0 time=455\n",
      "note_on channel=0 note=45 velocity=0 time=0\n",
      "note_on channel=0 note=32 velocity=117 time=505\n",
      "note_on channel=0 note=44 velocity=91 time=0\n",
      "note_on channel=0 note=32 velocity=0 time=119\n",
      "note_on channel=0 note=44 velocity=0 time=0\n",
      "note_on channel=0 note=67 velocity=125 time=121\n",
      "note_on channel=0 note=67 velocity=0 time=227\n",
      "note_on channel=0 note=31 velocity=117 time=13\n",
      "note_on channel=0 note=43 velocity=106 time=0\n",
      "note_on channel=0 note=31 velocity=0 time=227\n",
      "note_on channel=0 note=43 velocity=0 time=0\n",
      "note_on channel=0 note=67 velocity=127 time=28\n",
      "note_on channel=0 note=67 velocity=0 time=212\n",
      "note_on channel=0 note=39 velocity=114 time=13\n",
      "note_on channel=0 note=51 velocity=109 time=0\n",
      "note_on channel=0 note=67 velocity=105 time=480\n",
      "note_on channel=0 note=70 velocity=102 time=0\n",
      "note_on channel=0 note=67 velocity=0 time=455\n",
      "note_on channel=0 note=70 velocity=0 time=0\n",
      "note_on channel=0 note=67 velocity=122 time=25\n",
      "note_on channel=0 note=39 velocity=0 time=407\n",
      "note_on channel=0 note=51 velocity=0 time=0\n",
      "note_on channel=0 note=67 velocity=0 time=48\n",
      "note_on channel=0 note=38 velocity=111 time=25\n",
      "note_on channel=0 note=50 velocity=103 time=0\n",
      "note_on channel=0 note=38 velocity=0 time=455\n",
      "note_on channel=0 note=50 velocity=0 time=0\n",
      "note_on channel=0 note=36 velocity=110 time=25\n",
      "note_on channel=0 note=48 velocity=106 time=0\n",
      "note_on channel=0 note=74 velocity=127 time=960\n",
      "note_on channel=0 note=72 velocity=126 time=480\n",
      "note_on channel=0 note=36 velocity=0 time=383\n",
      "note_on channel=0 note=48 velocity=0 time=0\n",
      "note_on channel=0 note=74 velocity=0 time=48\n",
      "note_on channel=0 note=72 velocity=0 time=24\n",
      "note_on channel=0 note=41 velocity=116 time=25\n",
      "note_on channel=0 note=53 velocity=114 time=0\n",
      "note_on channel=0 note=41 velocity=0 time=455\n",
      "note_on channel=0 note=53 velocity=0 time=0\n",
      "note_on channel=0 note=68 velocity=105 time=25\n",
      "note_on channel=0 note=72 velocity=121 time=0\n",
      "note_on channel=0 note=68 velocity=0 time=119\n",
      "note_on channel=0 note=72 velocity=0 time=0\n",
      "note_on channel=0 note=40 velocity=110 time=136\n",
      "note_on channel=0 note=52 velocity=109 time=0\n",
      "note_on channel=0 note=40 velocity=0 time=212\n",
      "note_on channel=0 note=52 velocity=0 time=0\n",
      "note_on channel=0 note=39 velocity=127 time=13\n",
      "note_on channel=0 note=51 velocity=101 time=0\n",
      "note_on channel=0 note=39 velocity=0 time=239\n",
      "note_on channel=0 note=51 velocity=0 time=0\n",
      "note_on channel=0 note=38 velocity=115 time=241\n",
      "note_on channel=0 note=50 velocity=110 time=0\n",
      "note_on channel=0 note=38 velocity=0 time=227\n",
      "note_on channel=0 note=50 velocity=0 time=0\n",
      "note_on channel=0 note=62 velocity=110 time=43\n",
      "note_on channel=0 note=62 velocity=0 time=44\n",
      "note_on channel=0 note=34 velocity=117 time=166\n",
      "note_on channel=0 note=46 velocity=92 time=0\n",
      "note_on channel=0 note=34 velocity=0 time=227\n",
      "note_on channel=0 note=46 velocity=0 time=0\n",
      "note_on channel=0 note=34 velocity=97 time=43\n",
      "note_on channel=0 note=46 velocity=84 time=0\n",
      "note_on channel=0 note=34 velocity=0 time=44\n",
      "note_on channel=0 note=46 velocity=0 time=0\n",
      "note_on channel=0 note=34 velocity=108 time=76\n",
      "note_on channel=0 note=46 velocity=84 time=0\n",
      "note_on channel=0 note=34 velocity=0 time=44\n",
      "note_on channel=0 note=46 velocity=0 time=0\n",
      "note_on channel=0 note=34 velocity=125 time=46\n",
      "note_on channel=0 note=46 velocity=103 time=0\n",
      "note_on channel=0 note=34 velocity=0 time=119\n",
      "note_on channel=0 note=46 velocity=0 time=0\n",
      "note_on channel=0 note=34 velocity=104 time=136\n",
      "note_on channel=0 note=46 velocity=97 time=0\n",
      "note_on channel=0 note=34 velocity=0 time=41\n",
      "note_on channel=0 note=46 velocity=0 time=0\n",
      "note_on channel=0 note=34 velocity=105 time=64\n",
      "note_on channel=0 note=46 velocity=93 time=0\n",
      "note_on channel=0 note=34 velocity=0 time=59\n",
      "note_on channel=0 note=46 velocity=0 time=0\n",
      "note_on channel=0 note=34 velocity=119 time=61\n",
      "note_on channel=0 note=46 velocity=101 time=0\n",
      "note_on channel=0 note=34 velocity=0 time=119\n",
      "note_on channel=0 note=46 velocity=0 time=0\n",
      "note_on channel=0 note=34 velocity=104 time=136\n",
      "note_on channel=0 note=46 velocity=88 time=0\n",
      "note_on channel=0 note=34 velocity=0 time=41\n",
      "note_on channel=0 note=46 velocity=0 time=0\n",
      "note_on channel=0 note=34 velocity=100 time=79\n",
      "note_on channel=0 note=46 velocity=86 time=0\n",
      "note_on channel=0 note=34 velocity=0 time=41\n",
      "note_on channel=0 note=46 velocity=0 time=0\n",
      "note_on channel=0 note=34 velocity=105 time=64\n",
      "note_on channel=0 note=46 velocity=101 time=0\n",
      "note_on channel=0 note=34 velocity=0 time=59\n",
      "note_on channel=0 note=46 velocity=0 time=0\n",
      "note_on channel=0 note=34 velocity=108 time=76\n",
      "note_on channel=0 note=46 velocity=105 time=0\n",
      "note_on channel=0 note=34 velocity=0 time=41\n",
      "note_on channel=0 note=46 velocity=0 time=0\n",
      "note_on channel=0 note=34 velocity=127 time=64\n",
      "note_on channel=0 note=46 velocity=109 time=0\n",
      "note_on channel=0 note=34 velocity=0 time=119\n",
      "note_on channel=0 note=46 velocity=0 time=0\n",
      "note_on channel=0 note=39 velocity=127 time=121\n",
      "note_on channel=0 note=51 velocity=115 time=0\n",
      "note_on channel=0 note=63 velocity=119 time=480\n",
      "note_on channel=0 note=67 velocity=120 time=0\n",
      "note_on channel=0 note=63 velocity=0 time=239\n",
      "note_on channel=0 note=67 velocity=0 time=0\n",
      "note_on channel=0 note=39 velocity=0 time=192\n",
      "note_on channel=0 note=51 velocity=0 time=0\n",
      "note_on channel=0 note=38 velocity=122 time=49\n",
      "note_on channel=0 note=50 velocity=111 time=0\n",
      "note_on channel=0 note=38 velocity=0 time=455\n",
      "note_on channel=0 note=50 velocity=0 time=0\n",
      "note_on channel=0 note=62 velocity=126 time=25\n",
      "note_on channel=0 note=65 velocity=110 time=0\n",
      "note_on channel=0 note=62 velocity=0 time=227\n",
      "note_on channel=0 note=65 velocity=0 time=0\n",
      "note_on channel=0 note=38 velocity=113 time=13\n",
      "note_on channel=0 note=50 velocity=109 time=0\n",
      "note_on channel=0 note=38 velocity=0 time=119\n",
      "note_on channel=0 note=50 velocity=0 time=0\n",
      "note_on channel=0 note=36 velocity=103 time=121\n",
      "note_on channel=0 note=48 velocity=109 time=0\n",
      "note_on channel=0 note=60 velocity=115 time=480\n",
      "note_on channel=0 note=63 velocity=117 time=240\n",
      "note_on channel=0 note=74 velocity=127 time=240\n",
      "note_on channel=0 note=60 velocity=0 time=240\n",
      "note_on channel=0 note=72 velocity=126 time=240\n",
      "note_on channel=0 note=36 velocity=0 time=383\n",
      "note_on channel=0 note=48 velocity=0 time=0\n",
      "note_on channel=0 note=63 velocity=0 time=36\n",
      "note_on channel=0 note=74 velocity=0 time=12\n",
      "note_on channel=0 note=72 velocity=0 time=24\n",
      "note_on channel=0 note=41 velocity=110 time=25\n",
      "note_on channel=0 note=53 velocity=109 time=0\n",
      "note_on channel=0 note=41 velocity=0 time=239\n",
      "note_on channel=0 note=53 velocity=0 time=0\n",
      "note_on channel=0 note=68 velocity=103 time=241\n",
      "note_on channel=0 note=72 velocity=119 time=0\n",
      "note_on channel=0 note=68 velocity=0 time=119\n",
      "note_on channel=0 note=72 velocity=0 time=0\n",
      "note_on channel=0 note=40 velocity=111 time=121\n",
      "note_on channel=0 note=52 velocity=113 time=0\n",
      "note_on channel=0 note=40 velocity=0 time=119\n",
      "note_on channel=0 note=52 velocity=0 time=0\n",
      "note_on channel=0 note=39 velocity=123 time=121\n",
      "note_on channel=0 note=51 velocity=123 time=0\n",
      "note_on channel=0 note=39 velocity=0 time=239\n",
      "note_on channel=0 note=51 velocity=0 time=0\n",
      "note_on channel=0 note=38 velocity=125 time=241\n",
      "note_on channel=0 note=50 velocity=122 time=0\n",
      "note_on channel=0 note=38 velocity=0 time=119\n",
      "note_on channel=0 note=50 velocity=0 time=0\n",
      "note_on channel=0 note=62 velocity=103 time=151\n",
      "note_on channel=0 note=62 velocity=0 time=84\n",
      "note_on channel=0 note=34 velocity=117 time=126\n",
      "note_on channel=0 note=46 velocity=105 time=0\n",
      "note_on channel=0 note=34 velocity=0 time=227\n",
      "note_on channel=0 note=46 velocity=0 time=0\n",
      "note_on channel=0 note=34 velocity=97 time=73\n",
      "note_on channel=0 note=34 velocity=0 time=59\n",
      "note_on channel=0 note=34 velocity=109 time=76\n",
      "note_on channel=0 note=46 velocity=105 time=0\n",
      "note_on channel=0 note=34 velocity=0 time=41\n",
      "note_on channel=0 note=46 velocity=0 time=0\n",
      "note_on channel=0 note=34 velocity=127 time=4\n",
      "note_on channel=0 note=46 velocity=117 time=0\n",
      "note_on channel=0 note=34 velocity=0 time=227\n",
      "note_on channel=0 note=46 velocity=0 time=0\n",
      "note_on channel=0 note=34 velocity=109 time=133\n",
      "note_on channel=0 note=46 velocity=105 time=0\n",
      "note_on channel=0 note=34 velocity=0 time=59\n",
      "note_on channel=0 note=46 velocity=0 time=0\n",
      "note_on channel=0 note=34 velocity=117 time=61\n",
      "note_on channel=0 note=46 velocity=97 time=0\n",
      "note_on channel=0 note=34 velocity=0 time=59\n",
      "note_on channel=0 note=46 velocity=0 time=0\n",
      "note_on channel=0 note=34 velocity=127 time=61\n",
      "note_on channel=0 note=46 velocity=112 time=0\n",
      "note_on channel=0 note=34 velocity=0 time=119\n",
      "note_on channel=0 note=46 velocity=0 time=0\n",
      "note_on channel=0 note=34 velocity=111 time=121\n",
      "note_on channel=0 note=46 velocity=101 time=0\n",
      "note_on channel=0 note=34 velocity=0 time=59\n",
      "note_on channel=0 note=46 velocity=0 time=0\n",
      "note_on channel=0 note=34 velocity=114 time=61\n",
      "note_on channel=0 note=46 velocity=101 time=0\n",
      "note_on channel=0 note=34 velocity=0 time=44\n",
      "note_on channel=0 note=46 velocity=0 time=0\n",
      "note_on channel=0 note=34 velocity=119 time=46\n",
      "note_on channel=0 note=46 velocity=109 time=0\n",
      "note_on channel=0 note=34 velocity=0 time=84\n",
      "note_on channel=0 note=46 velocity=0 time=0\n",
      "note_on channel=0 note=34 velocity=119 time=6\n",
      "note_on channel=0 note=34 velocity=0 time=98\n",
      "note_on channel=0 note=34 velocity=127 time=7\n",
      "note_on channel=0 note=34 velocity=0 time=184\n",
      "note_on channel=0 note=39 velocity=127 time=11\n",
      "note_on channel=0 note=51 velocity=123 time=0\n",
      "note_on channel=0 note=67 velocity=120 time=480\n",
      "note_on channel=0 note=67 velocity=0 time=239\n",
      "note_on channel=0 note=39 velocity=0 time=192\n",
      "note_on channel=0 note=51 velocity=0 time=0\n",
      "note_on channel=0 note=38 velocity=127 time=49\n",
      "note_on channel=0 note=50 velocity=113 time=0\n",
      "note_on channel=0 note=65 velocity=125 time=480\n",
      "note_on channel=0 note=65 velocity=0 time=239\n",
      "note_on channel=0 note=38 velocity=0 time=192\n",
      "note_on channel=0 note=50 velocity=0 time=0\n",
      "note_on channel=0 note=36 velocity=113 time=49\n",
      "note_on channel=0 note=48 velocity=120 time=0\n",
      "note_on channel=0 note=74 velocity=127 time=960\n",
      "note_on channel=0 note=74 velocity=0 time=239\n",
      "note_on channel=0 note=36 velocity=0 time=168\n",
      "note_on channel=0 note=48 velocity=0 time=0\n",
      "note_on channel=0 note=72 velocity=127 time=73\n",
      "note_on channel=0 note=72 velocity=0 time=227\n",
      "note_on channel=0 note=60 velocity=108 time=13\n",
      "note_on channel=0 note=60 velocity=0 time=119\n",
      "note_on channel=0 note=41 velocity=110 time=121\n",
      "note_on channel=0 note=53 velocity=117 time=0\n",
      "note_on channel=0 note=41 velocity=0 time=455\n",
      "note_on channel=0 note=53 velocity=0 time=0\n",
      "note_on channel=0 note=68 velocity=98 time=25\n",
      "note_on channel=0 note=72 velocity=103 time=0\n",
      "note_on channel=0 note=68 velocity=0 time=119\n",
      "note_on channel=0 note=72 velocity=0 time=0\n",
      "note_on channel=0 note=40 velocity=127 time=121\n",
      "note_on channel=0 note=52 velocity=113 time=0\n",
      "note_on channel=0 note=40 velocity=0 time=119\n",
      "note_on channel=0 note=52 velocity=0 time=0\n",
      "note_on channel=0 note=39 velocity=127 time=121\n",
      "note_on channel=0 note=51 velocity=112 time=0\n",
      "note_on channel=0 note=39 velocity=0 time=239\n",
      "note_on channel=0 note=51 velocity=0 time=0\n",
      "note_on channel=0 note=38 velocity=125 time=241\n",
      "note_on channel=0 note=50 velocity=117 time=0\n",
      "note_on channel=0 note=38 velocity=0 time=239\n",
      "note_on channel=0 note=50 velocity=0 time=0\n",
      "note_on channel=0 note=37 velocity=127 time=241\n",
      "note_on channel=0 note=49 velocity=112 time=0\n",
      "note_on channel=0 note=65 velocity=121 time=360\n",
      "note_on channel=0 note=65 velocity=0 time=59\n",
      "note_on channel=0 note=37 velocity=0 time=36\n",
      "note_on channel=0 note=49 velocity=0 time=0\n",
      "note_on channel=0 note=65 velocity=121 time=25\n",
      "note_on channel=0 note=65 velocity=0 time=155\n",
      "note_on channel=0 note=37 velocity=127 time=10\n",
      "note_on channel=0 note=37 velocity=0 time=155\n",
      "note_on channel=0 note=36 velocity=127 time=10\n",
      "note_on channel=0 note=36 velocity=0 time=141\n",
      "note_on channel=0 note=35 velocity=127 time=9\n",
      "note_on channel=0 note=47 velocity=127 time=0\n",
      "note_on channel=0 note=35 velocity=0 time=239\n",
      "note_on channel=0 note=47 velocity=0 time=0\n",
      "note_on channel=0 note=34 velocity=127 time=241\n",
      "note_on channel=0 note=46 velocity=121 time=0\n",
      "note_on channel=0 note=34 velocity=0 time=455\n",
      "note_on channel=0 note=46 velocity=0 time=0\n",
      "note_on channel=0 note=33 velocity=97 time=25\n",
      "note_on channel=0 note=45 velocity=90 time=0\n",
      "note_on channel=0 note=33 velocity=0 time=239\n",
      "note_on channel=0 note=45 velocity=0 time=0\n",
      "note_on channel=0 note=57 velocity=86 time=241\n",
      "note_on channel=0 note=61 velocity=85 time=0\n",
      "note_on channel=0 note=57 velocity=0 time=239\n",
      "note_on channel=0 note=61 velocity=0 time=0\n",
      "note_on channel=0 note=57 velocity=88 time=241\n",
      "note_on channel=0 note=61 velocity=88 time=0\n",
      "note_on channel=0 note=57 velocity=0 time=239\n",
      "note_on channel=0 note=61 velocity=0 time=0\n",
      "note_on channel=0 note=57 velocity=86 time=241\n",
      "note_on channel=0 note=61 velocity=92 time=0\n",
      "note_on channel=0 note=57 velocity=0 time=239\n",
      "note_on channel=0 note=61 velocity=0 time=0\n",
      "note_on channel=0 note=57 velocity=88 time=241\n",
      "note_on channel=0 note=61 velocity=96 time=0\n",
      "note_on channel=0 note=57 velocity=0 time=239\n",
      "note_on channel=0 note=61 velocity=0 time=0\n",
      "note_on channel=0 note=57 velocity=82 time=241\n",
      "note_on channel=0 note=61 velocity=96 time=0\n",
      "note_on channel=0 note=57 velocity=0 time=239\n",
      "note_on channel=0 note=61 velocity=0 time=0\n",
      "note_on channel=0 note=57 velocity=91 time=241\n",
      "note_on channel=0 note=61 velocity=102 time=0\n",
      "note_on channel=0 note=57 velocity=0 time=239\n",
      "note_on channel=0 note=61 velocity=0 time=0\n",
      "note_on channel=0 note=57 velocity=83 time=241\n",
      "note_on channel=0 note=61 velocity=91 time=0\n",
      "note_on channel=0 note=57 velocity=0 time=239\n",
      "note_on channel=0 note=61 velocity=0 time=0\n",
      "note_on channel=0 note=57 velocity=91 time=241\n",
      "note_on channel=0 note=62 velocity=98 time=0\n",
      "note_on channel=0 note=57 velocity=0 time=239\n",
      "note_on channel=0 note=62 velocity=0 time=0\n",
      "note_on channel=0 note=57 velocity=83 time=241\n",
      "note_on channel=0 note=61 velocity=81 time=0\n",
      "note_on channel=0 note=57 velocity=0 time=119\n",
      "note_on channel=0 note=61 velocity=0 time=0\n",
      "note_on channel=0 note=57 velocity=76 time=121\n",
      "note_on channel=0 note=61 velocity=83 time=0\n",
      "note_on channel=0 note=57 velocity=0 time=119\n",
      "note_on channel=0 note=61 velocity=0 time=0\n",
      "note_on channel=0 note=57 velocity=88 time=121\n",
      "note_on channel=0 note=60 velocity=98 time=0\n",
      "note_on channel=0 note=57 velocity=0 time=239\n",
      "note_on channel=0 note=60 velocity=0 time=0\n",
      "note_on channel=0 note=57 velocity=83 time=241\n",
      "note_on channel=0 note=61 velocity=96 time=0\n",
      "note_on channel=0 note=57 velocity=0 time=239\n",
      "note_on channel=0 note=61 velocity=0 time=0\n",
      "note_on channel=0 note=57 velocity=78 time=241\n",
      "note_on channel=0 note=62 velocity=95 time=0\n",
      "note_on channel=0 note=57 velocity=0 time=239\n",
      "note_on channel=0 note=62 velocity=0 time=0\n",
      "note_on channel=0 note=57 velocity=76 time=271\n",
      "note_on channel=0 note=61 velocity=84 time=0\n",
      "note_on channel=0 note=57 velocity=0 time=84\n",
      "note_on channel=0 note=61 velocity=0 time=0\n",
      "note_on channel=0 note=57 velocity=72 time=126\n",
      "note_on channel=0 note=61 velocity=85 time=0\n",
      "note_on channel=0 note=57 velocity=0 time=119\n",
      "note_on channel=0 note=61 velocity=0 time=0\n",
      "note_on channel=0 note=57 velocity=84 time=121\n",
      "note_on channel=0 note=60 velocity=90 time=0\n",
      "note_on channel=0 note=57 velocity=0 time=239\n",
      "note_on channel=0 note=60 velocity=0 time=0\n",
      "note_on channel=0 note=57 velocity=84 time=241\n",
      "note_on channel=0 note=61 velocity=99 time=0\n",
      "note_on channel=0 note=57 velocity=0 time=119\n",
      "note_on channel=0 note=61 velocity=0 time=0\n",
      "note_on channel=0 note=57 velocity=78 time=121\n",
      "note_on channel=0 note=61 velocity=88 time=0\n",
      "note_on channel=0 note=57 velocity=0 time=119\n",
      "note_on channel=0 note=61 velocity=0 time=0\n",
      "note_on channel=0 note=62 velocity=98 time=121\n",
      "note_on channel=0 note=66 velocity=117 time=0\n",
      "note_on channel=0 note=62 velocity=0 time=239\n",
      "note_on channel=0 note=66 velocity=0 time=0\n",
      "note_on channel=0 note=57 velocity=88 time=241\n",
      "note_on channel=0 note=61 velocity=88 time=0\n",
      "note_on channel=0 note=57 velocity=0 time=119\n",
      "note_on channel=0 note=61 velocity=0 time=0\n",
      "note_on channel=0 note=57 velocity=63 time=151\n",
      "note_on channel=0 note=61 velocity=85 time=0\n",
      "note_on channel=0 note=57 velocity=0 time=44\n",
      "note_on channel=0 note=61 velocity=0 time=0\n",
      "note_on channel=0 note=62 velocity=98 time=181\n",
      "note_on channel=0 note=66 velocity=115 time=0\n",
      "note_on channel=0 note=62 velocity=0 time=212\n",
      "note_on channel=0 note=66 velocity=0 time=0\n",
      "note_on channel=0 note=57 velocity=80 time=253\n",
      "note_on channel=0 note=61 velocity=85 time=0\n",
      "note_on channel=0 note=57 velocity=0 time=119\n",
      "note_on channel=0 note=61 velocity=0 time=0\n",
      "note_on channel=0 note=57 velocity=77 time=121\n",
      "note_on channel=0 note=61 velocity=93 time=0\n",
      "note_on channel=0 note=57 velocity=0 time=119\n",
      "note_on channel=0 note=61 velocity=0 time=0\n",
      "note_on channel=0 note=57 velocity=91 time=151\n",
      "note_on channel=0 note=60 velocity=102 time=0\n",
      "note_on channel=0 note=57 velocity=0 time=84\n",
      "note_on channel=0 note=60 velocity=0 time=0\n",
      "note_on channel=0 note=57 velocity=70 time=156\n",
      "note_on channel=0 note=60 velocity=76 time=0\n",
      "note_on channel=0 note=57 velocity=0 time=44\n",
      "note_on channel=0 note=60 velocity=0 time=0\n",
      "note_on channel=0 note=57 velocity=91 time=166\n",
      "note_on channel=0 note=61 velocity=115 time=0\n",
      "note_on channel=0 note=57 velocity=0 time=239\n",
      "note_on channel=0 note=61 velocity=0 time=0\n",
      "note_on channel=0 note=57 velocity=84 time=301\n",
      "note_on channel=0 note=62 velocity=102 time=0\n",
      "note_on channel=0 note=57 velocity=0 time=89\n",
      "note_on channel=0 note=62 velocity=0 time=0\n",
      "note_on channel=0 note=57 velocity=90 time=331\n",
      "note_on channel=0 note=61 velocity=86 time=0\n",
      "note_on channel=0 note=57 velocity=0 time=239\n",
      "note_on channel=0 note=61 velocity=0 time=0\n",
      "note_on channel=0 note=32 velocity=104 time=241\n",
      "note_on channel=0 note=44 velocity=94 time=0\n",
      "note_on channel=0 note=32 velocity=0 time=119\n",
      "note_on channel=0 note=44 velocity=0 time=0\n",
      "note_on channel=0 note=32 velocity=104 time=121\n",
      "note_on channel=0 note=44 velocity=75 time=0\n",
      "note_on channel=0 note=32 velocity=0 time=119\n",
      "note_on channel=0 note=44 velocity=0 time=0\n",
      "note_on channel=0 note=32 velocity=106 time=121\n",
      "note_on channel=0 note=44 velocity=102 time=0\n",
      "note_on channel=0 note=32 velocity=0 time=119\n",
      "note_on channel=0 note=44 velocity=0 time=0\n",
      "note_on channel=0 note=32 velocity=110 time=121\n",
      "note_on channel=0 note=44 velocity=97 time=0\n",
      "note_on channel=0 note=32 velocity=0 time=119\n",
      "note_on channel=0 note=44 velocity=0 time=0\n",
      "note_on channel=0 note=32 velocity=114 time=121\n",
      "note_on channel=0 note=44 velocity=108 time=0\n",
      "note_on channel=0 note=32 velocity=0 time=239\n",
      "note_on channel=0 note=44 velocity=0 time=0\n",
      "note_on channel=0 note=32 velocity=123 time=241\n",
      "note_on channel=0 note=44 velocity=110 time=0\n",
      "note_on channel=0 note=32 velocity=0 time=239\n",
      "note_on channel=0 note=44 velocity=0 time=0\n",
      "note_on channel=0 note=31 velocity=107 time=241\n",
      "note_on channel=0 note=43 velocity=93 time=0\n",
      "note_on channel=0 note=31 velocity=0 time=119\n",
      "note_on channel=0 note=43 velocity=0 time=0\n",
      "note_on channel=0 note=31 velocity=101 time=121\n",
      "note_on channel=0 note=43 velocity=108 time=0\n",
      "note_on channel=0 note=31 velocity=0 time=119\n",
      "note_on channel=0 note=43 velocity=0 time=0\n",
      "note_on channel=0 note=31 velocity=105 time=121\n",
      "note_on channel=0 note=43 velocity=100 time=0\n",
      "note_on channel=0 note=31 velocity=0 time=119\n",
      "note_on channel=0 note=43 velocity=0 time=0\n",
      "note_on channel=0 note=31 velocity=103 time=121\n",
      "note_on channel=0 note=43 velocity=117 time=0\n",
      "note_on channel=0 note=31 velocity=0 time=119\n",
      "note_on channel=0 note=43 velocity=0 time=0\n",
      "note_on channel=0 note=40 velocity=117 time=121\n",
      "note_on channel=0 note=40 velocity=0 time=239\n",
      "note_on channel=0 note=40 velocity=113 time=241\n",
      "note_on channel=0 note=40 velocity=0 time=239\n",
      "note_on channel=0 note=33 velocity=125 time=241\n",
      "note_on channel=0 note=45 velocity=117 time=0\n",
      "note_on channel=0 note=33 velocity=0 time=239\n",
      "note_on channel=0 note=45 velocity=0 time=0\n",
      "note_on channel=0 note=45 velocity=94 time=4081\n",
      "note_on channel=0 note=45 velocity=0 time=119\n",
      "note_on channel=0 note=45 velocity=110 time=121\n",
      "note_on channel=0 note=45 velocity=0 time=119\n",
      "note_on channel=0 note=46 velocity=110 time=121\n",
      "note_on channel=0 note=46 velocity=0 time=227\n",
      "note_on channel=0 note=45 velocity=103 time=13\n",
      "note_on channel=0 note=45 velocity=0 time=119\n",
      "note_on channel=0 note=43 velocity=103 time=121\n",
      "note_on channel=0 note=43 velocity=0 time=119\n",
      "note_on channel=0 note=41 velocity=99 time=121\n",
      "note_on channel=0 note=41 velocity=0 time=119\n",
      "note_on channel=0 note=40 velocity=115 time=121\n",
      "note_on channel=0 note=40 velocity=0 time=239\n",
      "note_on channel=0 note=63 velocity=70 time=2641\n",
      "note_on channel=0 note=66 velocity=81 time=0\n",
      "note_on channel=0 note=63 velocity=0 time=239\n",
      "note_on channel=0 note=66 velocity=0 time=0\n",
      "note_on channel=0 note=62 velocity=81 time=241\n",
      "note_on channel=0 note=65 velocity=89 time=0\n",
      "note_on channel=0 note=62 velocity=0 time=239\n",
      "note_on channel=0 note=65 velocity=0 time=0\n",
      "note_on channel=0 note=61 velocity=71 time=241\n",
      "note_on channel=0 note=64 velocity=84 time=0\n",
      "note_on channel=0 note=61 velocity=0 time=239\n",
      "note_on channel=0 note=64 velocity=0 time=0\n",
      "note_on channel=0 note=62 velocity=85 time=241\n",
      "note_on channel=0 note=65 velocity=86 time=0\n",
      "note_on channel=0 note=62 velocity=0 time=239\n",
      "note_on channel=0 note=65 velocity=0 time=0\n",
      "note_on channel=0 note=63 velocity=67 time=241\n",
      "note_on channel=0 note=66 velocity=86 time=0\n",
      "note_on channel=0 note=63 velocity=0 time=239\n",
      "note_on channel=0 note=66 velocity=0 time=0\n",
      "note_on channel=0 note=62 velocity=83 time=241\n",
      "note_on channel=0 note=65 velocity=84 time=0\n",
      "note_on channel=0 note=62 velocity=0 time=239\n",
      "note_on channel=0 note=65 velocity=0 time=0\n",
      "note_on channel=0 note=61 velocity=64 time=241\n",
      "note_on channel=0 note=64 velocity=93 time=0\n",
      "note_on channel=0 note=61 velocity=0 time=239\n",
      "note_on channel=0 note=64 velocity=0 time=0\n",
      "note_on channel=0 note=62 velocity=95 time=241\n",
      "note_on channel=0 note=65 velocity=91 time=0\n",
      "note_on channel=0 note=62 velocity=0 time=239\n",
      "note_on channel=0 note=65 velocity=0 time=0\n",
      "note_on channel=0 note=39 velocity=104 time=241\n",
      "note_on channel=0 note=51 velocity=110 time=0\n",
      "note_on channel=0 note=39 velocity=0 time=455\n",
      "note_on channel=0 note=51 velocity=0 time=0\n",
      "note_on channel=0 note=39 velocity=93 time=25\n",
      "note_on channel=0 note=51 velocity=91 time=0\n",
      "note_on channel=0 note=39 velocity=0 time=119\n",
      "note_on channel=0 note=51 velocity=0 time=0\n",
      "note_on channel=0 note=39 velocity=88 time=121\n",
      "note_on channel=0 note=51 velocity=89 time=0\n",
      "note_on channel=0 note=39 velocity=0 time=119\n",
      "note_on channel=0 note=51 velocity=0 time=0\n",
      "note_on channel=0 note=39 velocity=114 time=121\n",
      "note_on channel=0 note=51 velocity=107 time=0\n",
      "note_on channel=0 note=39 velocity=0 time=455\n",
      "note_on channel=0 note=51 velocity=0 time=0\n",
      "note_on channel=0 note=39 velocity=99 time=25\n",
      "note_on channel=0 note=51 velocity=100 time=0\n",
      "note_on channel=0 note=39 velocity=0 time=239\n",
      "note_on channel=0 note=51 velocity=0 time=0\n",
      "note_on channel=0 note=39 velocity=86 time=241\n",
      "note_on channel=0 note=51 velocity=92 time=0\n",
      "note_on channel=0 note=39 velocity=0 time=119\n",
      "note_on channel=0 note=51 velocity=0 time=0\n",
      "note_on channel=0 note=39 velocity=97 time=121\n",
      "note_on channel=0 note=51 velocity=92 time=0\n",
      "note_on channel=0 note=39 velocity=0 time=119\n",
      "note_on channel=0 note=51 velocity=0 time=0\n",
      "note_on channel=0 note=39 velocity=102 time=121\n",
      "note_on channel=0 note=51 velocity=110 time=0\n",
      "note_on channel=0 note=39 velocity=0 time=455\n",
      "note_on channel=0 note=51 velocity=0 time=0\n",
      "note_on channel=0 note=39 velocity=102 time=25\n",
      "note_on channel=0 note=51 velocity=104 time=0\n",
      "note_on channel=0 note=39 velocity=0 time=119\n",
      "note_on channel=0 note=51 velocity=0 time=0\n",
      "note_on channel=0 note=39 velocity=92 time=121\n",
      "note_on channel=0 note=51 velocity=91 time=0\n",
      "note_on channel=0 note=39 velocity=0 time=119\n",
      "note_on channel=0 note=51 velocity=0 time=0\n",
      "note_on channel=0 note=39 velocity=109 time=121\n",
      "note_on channel=0 note=51 velocity=109 time=0\n",
      "note_on channel=0 note=39 velocity=0 time=455\n",
      "note_on channel=0 note=51 velocity=0 time=0\n",
      "note_on channel=0 note=44 velocity=107 time=25\n",
      "note_on channel=0 note=56 velocity=93 time=0\n",
      "note_on channel=0 note=63 velocity=100 time=540\n",
      "note_on channel=0 note=63 velocity=0 time=89\n",
      "note_on channel=0 note=63 velocity=93 time=91\n",
      "note_on channel=0 note=63 velocity=0 time=119\n",
      "note_on channel=0 note=44 velocity=0 time=72\n",
      "note_on channel=0 note=56 velocity=0 time=0\n",
      "note_on channel=0 note=43 velocity=100 time=49\n",
      "note_on channel=0 note=55 velocity=116 time=0\n",
      "note_on channel=0 note=63 velocity=97 time=510\n",
      "note_on channel=0 note=67 velocity=112 time=0\n",
      "note_on channel=0 note=63 velocity=0 time=84\n",
      "note_on channel=0 note=67 velocity=0 time=0\n",
      "note_on channel=0 note=63 velocity=81 time=156\n",
      "note_on channel=0 note=63 velocity=0 time=84\n",
      "note_on channel=0 note=43 velocity=0 time=77\n",
      "note_on channel=0 note=55 velocity=0 time=0\n",
      "note_on channel=0 note=41 velocity=105 time=49\n",
      "note_on channel=0 note=53 velocity=108 time=0\n",
      "note_on channel=0 note=60 velocity=89 time=480\n",
      "note_on channel=0 note=63 velocity=100 time=0\n",
      "note_on channel=0 note=60 velocity=0 time=119\n",
      "note_on channel=0 note=63 velocity=0 time=0\n",
      "note_on channel=0 note=60 velocity=85 time=151\n",
      "note_on channel=0 note=63 velocity=90 time=0\n",
      "note_on channel=0 note=60 velocity=0 time=44\n",
      "note_on channel=0 note=63 velocity=0 time=0\n",
      "note_on channel=0 note=41 velocity=0 time=117\n",
      "note_on channel=0 note=53 velocity=0 time=0\n",
      "note_on channel=0 note=34 velocity=92 time=49\n",
      "note_on channel=0 note=46 velocity=89 time=0\n",
      "note_on channel=0 note=34 velocity=0 time=239\n",
      "note_on channel=0 note=46 velocity=0 time=0\n",
      "note_on channel=0 note=68 velocity=83 time=721\n",
      "note_on channel=0 note=68 velocity=0 time=239\n",
      "note_on channel=0 note=67 velocity=89 time=241\n",
      "note_on channel=0 note=67 velocity=0 time=227\n",
      "note_on channel=0 note=75 velocity=93 time=13\n",
      "note_on channel=0 note=75 velocity=0 time=227\n",
      "note_on channel=0 note=66 velocity=96 time=13\n",
      "note_on channel=0 note=66 velocity=0 time=239\n",
      "note_on channel=0 note=65 velocity=95 time=241\n",
      "note_on channel=0 note=65 velocity=0 time=239\n",
      "note_on channel=0 note=63 velocity=69 time=241\n",
      "note_on channel=0 note=66 velocity=78 time=0\n",
      "note_on channel=0 note=63 velocity=0 time=239\n",
      "note_on channel=0 note=66 velocity=0 time=0\n",
      "note_on channel=0 note=62 velocity=85 time=241\n",
      "note_on channel=0 note=65 velocity=84 time=0\n",
      "note_on channel=0 note=62 velocity=0 time=239\n",
      "note_on channel=0 note=65 velocity=0 time=0\n",
      "note_on channel=0 note=61 velocity=64 time=241\n",
      "note_on channel=0 note=64 velocity=90 time=0\n",
      "note_on channel=0 note=61 velocity=0 time=239\n",
      "note_on channel=0 note=64 velocity=0 time=0\n",
      "note_on channel=0 note=62 velocity=81 time=286\n",
      "note_on channel=0 note=65 velocity=83 time=0\n",
      "note_on channel=0 note=62 velocity=0 time=184\n",
      "note_on channel=0 note=65 velocity=0 time=0\n",
      "note_on channel=0 note=63 velocity=74 time=251\n",
      "note_on channel=0 note=66 velocity=82 time=0\n",
      "note_on channel=0 note=63 velocity=0 time=239\n",
      "note_on channel=0 note=66 velocity=0 time=0\n",
      "note_on channel=0 note=62 velocity=91 time=241\n",
      "note_on channel=0 note=65 velocity=84 time=0\n",
      "note_on channel=0 note=62 velocity=0 time=239\n",
      "note_on channel=0 note=65 velocity=0 time=0\n",
      "note_on channel=0 note=61 velocity=71 time=241\n",
      "note_on channel=0 note=64 velocity=98 time=0\n",
      "note_on channel=0 note=61 velocity=0 time=239\n",
      "note_on channel=0 note=64 velocity=0 time=0\n",
      "note_on channel=0 note=34 velocity=102 time=241\n",
      "note_on channel=0 note=46 velocity=104 time=0\n",
      "note_on channel=0 note=34 velocity=0 time=239\n",
      "note_on channel=0 note=46 velocity=0 time=0\n",
      "note_on channel=0 note=39 velocity=103 time=241\n",
      "note_on channel=0 note=51 velocity=112 time=0\n",
      "note_on channel=0 note=39 velocity=0 time=239\n",
      "note_on channel=0 note=51 velocity=0 time=0\n",
      "note_on channel=0 note=34 velocity=109 time=241\n",
      "note_on channel=0 note=46 velocity=104 time=0\n",
      "note_on channel=0 note=34 velocity=0 time=239\n",
      "note_on channel=0 note=46 velocity=0 time=0\n",
      "note_on channel=0 note=39 velocity=110 time=241\n",
      "note_on channel=0 note=51 velocity=114 time=0\n",
      "note_on channel=0 note=39 velocity=0 time=683\n",
      "note_on channel=0 note=51 velocity=0 time=0\n",
      "note_on channel=0 note=34 velocity=96 time=37\n",
      "note_on channel=0 note=46 velocity=88 time=0\n",
      "note_on channel=0 note=34 velocity=0 time=119\n",
      "note_on channel=0 note=46 velocity=0 time=0\n",
      "note_on channel=0 note=34 velocity=95 time=121\n",
      "note_on channel=0 note=46 velocity=87 time=0\n",
      "note_on channel=0 note=34 velocity=0 time=119\n",
      "note_on channel=0 note=46 velocity=0 time=0\n",
      "note_on channel=0 note=34 velocity=103 time=121\n",
      "note_on channel=0 note=46 velocity=91 time=0\n",
      "note_on channel=0 note=34 velocity=0 time=119\n",
      "note_on channel=0 note=46 velocity=0 time=0\n",
      "note_on channel=0 note=34 velocity=106 time=121\n",
      "note_on channel=0 note=46 velocity=95 time=0\n",
      "note_on channel=0 note=34 velocity=0 time=119\n",
      "note_on channel=0 note=46 velocity=0 time=0\n",
      "note_on channel=0 note=34 velocity=106 time=121\n",
      "note_on channel=0 note=46 velocity=92 time=0\n",
      "note_on channel=0 note=34 velocity=0 time=119\n",
      "note_on channel=0 note=46 velocity=0 time=0\n",
      "note_on channel=0 note=34 velocity=104 time=121\n",
      "note_on channel=0 note=46 velocity=92 time=0\n",
      "note_on channel=0 note=34 velocity=0 time=239\n",
      "note_on channel=0 note=46 velocity=0 time=0\n",
      "note_on channel=0 note=34 velocity=112 time=1201\n",
      "note_on channel=0 note=46 velocity=124 time=0\n",
      "note_on channel=0 note=34 velocity=0 time=239\n",
      "note_on channel=0 note=46 velocity=0 time=0\n",
      "note_on channel=0 note=39 velocity=118 time=241\n",
      "note_on channel=0 note=51 velocity=122 time=0\n",
      "note_on channel=0 note=39 velocity=0 time=239\n",
      "note_on channel=0 note=51 velocity=0 time=0\n",
      "note_on channel=0 note=34 velocity=96 time=301\n",
      "note_on channel=0 note=46 velocity=114 time=0\n",
      "note_on channel=0 note=34 velocity=0 time=89\n",
      "note_on channel=0 note=46 velocity=0 time=0\n",
      "note_on channel=0 note=34 velocity=109 time=121\n",
      "note_on channel=0 note=46 velocity=114 time=0\n",
      "note_on channel=0 note=34 velocity=0 time=84\n",
      "note_on channel=0 note=46 velocity=0 time=0\n",
      "note_on channel=0 note=34 velocity=109 time=126\n",
      "note_on channel=0 note=46 velocity=112 time=0\n",
      "note_on channel=0 note=34 velocity=0 time=119\n",
      "note_on channel=0 note=46 velocity=0 time=0\n",
      "note_on channel=0 note=34 velocity=103 time=151\n",
      "note_on channel=0 note=46 velocity=112 time=0\n",
      "note_on channel=0 note=34 velocity=0 time=84\n",
      "note_on channel=0 note=46 velocity=0 time=0\n",
      "note_on channel=0 note=34 velocity=98 time=126\n",
      "note_on channel=0 note=46 velocity=99 time=0\n",
      "note_on channel=0 note=34 velocity=0 time=119\n",
      "note_on channel=0 note=46 velocity=0 time=0\n",
      "note_on channel=0 note=34 velocity=99 time=121\n",
      "note_on channel=0 note=46 velocity=92 time=0\n",
      "note_on channel=0 note=34 velocity=0 time=119\n",
      "note_on channel=0 note=46 velocity=0 time=0\n",
      "note_on channel=0 note=34 velocity=109 time=121\n",
      "note_on channel=0 note=46 velocity=118 time=0\n",
      "note_on channel=0 note=34 velocity=0 time=239\n",
      "note_on channel=0 note=46 velocity=0 time=0\n",
      "note_on channel=0 note=34 velocity=110 time=1201\n",
      "note_on channel=0 note=46 velocity=126 time=0\n",
      "note_on channel=0 note=34 velocity=0 time=239\n",
      "note_on channel=0 note=46 velocity=0 time=0\n",
      "note_on channel=0 note=39 velocity=126 time=241\n",
      "note_on channel=0 note=51 velocity=124 time=0\n",
      "note_on channel=0 note=39 velocity=0 time=239\n",
      "note_on channel=0 note=51 velocity=0 time=0\n",
      "note_on channel=0 note=34 velocity=103 time=241\n",
      "note_on channel=0 note=46 velocity=126 time=0\n",
      "note_on channel=0 note=34 velocity=0 time=119\n",
      "note_on channel=0 note=46 velocity=0 time=0\n",
      "note_on channel=0 note=34 velocity=118 time=121\n",
      "note_on channel=0 note=46 velocity=118 time=0\n",
      "note_on channel=0 note=34 velocity=0 time=119\n",
      "note_on channel=0 note=46 velocity=0 time=0\n",
      "note_on channel=0 note=34 velocity=124 time=121\n",
      "note_on channel=0 note=46 velocity=127 time=0\n",
      "note_on channel=0 note=34 velocity=0 time=119\n",
      "note_on channel=0 note=46 velocity=0 time=0\n",
      "note_on channel=0 note=34 velocity=106 time=121\n",
      "note_on channel=0 note=46 velocity=114 time=0\n",
      "note_on channel=0 note=34 velocity=0 time=119\n",
      "note_on channel=0 note=46 velocity=0 time=0\n",
      "note_on channel=0 note=34 velocity=104 time=121\n",
      "note_on channel=0 note=46 velocity=109 time=0\n",
      "note_on channel=0 note=34 velocity=0 time=119\n",
      "note_on channel=0 note=46 velocity=0 time=0\n",
      "note_on channel=0 note=34 velocity=98 time=121\n",
      "note_on channel=0 note=46 velocity=102 time=0\n",
      "note_on channel=0 note=34 velocity=0 time=119\n",
      "note_on channel=0 note=46 velocity=0 time=0\n",
      "note_on channel=0 note=34 velocity=116 time=121\n",
      "note_on channel=0 note=46 velocity=120 time=0\n",
      "note_on channel=0 note=34 velocity=0 time=239\n",
      "note_on channel=0 note=46 velocity=0 time=0\n",
      "note_on channel=0 note=34 velocity=116 time=721\n",
      "note_on channel=0 note=46 velocity=114 time=0\n",
      "note_on channel=0 note=34 velocity=0 time=119\n",
      "note_on channel=0 note=46 velocity=0 time=0\n",
      "note_on channel=0 note=34 velocity=106 time=121\n",
      "note_on channel=0 note=46 velocity=100 time=0\n",
      "note_on channel=0 note=34 velocity=0 time=119\n",
      "note_on channel=0 note=46 velocity=0 time=0\n",
      "note_on channel=0 note=34 velocity=102 time=121\n",
      "note_on channel=0 note=46 velocity=98 time=0\n",
      "note_on channel=0 note=34 velocity=0 time=119\n",
      "note_on channel=0 note=46 velocity=0 time=0\n",
      "note_on channel=0 note=34 velocity=104 time=121\n",
      "note_on channel=0 note=46 velocity=100 time=0\n",
      "note_on channel=0 note=34 velocity=0 time=119\n",
      "note_on channel=0 note=46 velocity=0 time=0\n",
      "note_on channel=0 note=34 velocity=116 time=121\n",
      "note_on channel=0 note=46 velocity=118 time=0\n",
      "note_on channel=0 note=34 velocity=0 time=239\n",
      "note_on channel=0 note=46 velocity=0 time=0\n",
      "note_on channel=0 note=34 velocity=100 time=721\n",
      "note_on channel=0 note=46 velocity=104 time=0\n",
      "note_on channel=0 note=34 velocity=0 time=119\n",
      "note_on channel=0 note=46 velocity=0 time=0\n",
      "note_on channel=0 note=34 velocity=99 time=121\n",
      "note_on channel=0 note=46 velocity=99 time=0\n",
      "note_on channel=0 note=34 velocity=0 time=119\n",
      "note_on channel=0 note=46 velocity=0 time=0\n",
      "note_on channel=0 note=34 velocity=103 time=121\n",
      "note_on channel=0 note=46 velocity=114 time=0\n",
      "note_on channel=0 note=34 velocity=0 time=119\n",
      "note_on channel=0 note=46 velocity=0 time=0\n",
      "note_on channel=0 note=34 velocity=104 time=121\n",
      "note_on channel=0 note=46 velocity=104 time=0\n",
      "note_on channel=0 note=34 velocity=0 time=119\n",
      "note_on channel=0 note=46 velocity=0 time=0\n",
      "note_on channel=0 note=34 velocity=107 time=121\n",
      "note_on channel=0 note=46 velocity=104 time=0\n",
      "note_on channel=0 note=34 velocity=0 time=239\n",
      "note_on channel=0 note=46 velocity=0 time=0\n",
      "note_on channel=0 note=35 velocity=103 time=2641\n",
      "note_on channel=0 note=47 velocity=110 time=0\n",
      "note_on channel=0 note=35 velocity=0 time=239\n",
      "note_on channel=0 note=47 velocity=0 time=0\n",
      "note_on channel=0 note=33 velocity=100 time=241\n",
      "note_on channel=0 note=45 velocity=113 time=0\n",
      "note_on channel=0 note=33 velocity=0 time=239\n",
      "note_on channel=0 note=45 velocity=0 time=0\n",
      "note_on channel=0 note=38 velocity=119 time=241\n",
      "note_on channel=0 note=50 velocity=115 time=0\n",
      "note_on channel=0 note=38 velocity=0 time=239\n",
      "note_on channel=0 note=50 velocity=0 time=0\n",
      "note_on channel=0 note=37 velocity=118 time=241\n",
      "note_on channel=0 note=49 velocity=122 time=0\n",
      "note_on channel=0 note=37 velocity=0 time=239\n",
      "note_on channel=0 note=49 velocity=0 time=0\n",
      "note_on channel=0 note=42 velocity=122 time=271\n",
      "note_on channel=0 note=54 velocity=118 time=0\n",
      "note_on channel=0 note=42 velocity=0 time=426\n",
      "note_on channel=0 note=54 velocity=0 time=0\n",
      "note_on channel=0 note=34 velocity=99 time=24\n",
      "note_on channel=0 note=46 velocity=106 time=0\n",
      "note_on channel=0 note=34 velocity=0 time=239\n",
      "note_on channel=0 note=46 velocity=0 time=0\n",
      "note_on channel=0 note=39 velocity=112 time=241\n",
      "note_on channel=0 note=51 velocity=118 time=0\n",
      "note_on channel=0 note=39 velocity=0 time=239\n",
      "note_on channel=0 note=51 velocity=0 time=0\n",
      "note_on channel=0 note=39 velocity=97 time=2221\n",
      "note_on channel=0 note=39 velocity=0 time=89\n",
      "note_on channel=0 note=39 velocity=120 time=151\n",
      "note_on channel=0 note=39 velocity=0 time=89\n",
      "note_on channel=0 note=44 velocity=110 time=91\n",
      "note_on channel=0 note=44 velocity=0 time=227\n",
      "note_on channel=0 note=39 velocity=98 time=73\n",
      "note_on channel=0 note=39 velocity=0 time=89\n",
      "note_on channel=0 note=38 velocity=99 time=91\n",
      "note_on channel=0 note=38 velocity=0 time=119\n",
      "note_on channel=0 note=36 velocity=100 time=121\n",
      "note_on channel=0 note=36 velocity=0 time=119\n",
      "note_on channel=0 note=34 velocity=102 time=121\n",
      "note_on channel=0 note=34 velocity=0 time=239\n",
      "note_on channel=0 note=39 velocity=106 time=721\n",
      "note_on channel=0 note=51 velocity=109 time=0\n",
      "note_on channel=0 note=39 velocity=0 time=455\n",
      "note_on channel=0 note=51 velocity=0 time=0\n",
      "note_on channel=0 note=67 velocity=112 time=265\n",
      "note_on channel=0 note=67 velocity=0 time=227\n",
      "note_on channel=0 note=32 velocity=102 time=13\n",
      "note_on channel=0 note=44 velocity=99 time=0\n",
      "note_on channel=0 note=32 velocity=0 time=239\n",
      "note_on channel=0 note=44 velocity=0 time=0\n",
      "note_on channel=0 note=60 velocity=105 time=241\n",
      "note_on channel=0 note=63 velocity=110 time=0\n",
      "note_on channel=0 note=60 velocity=0 time=239\n",
      "note_on channel=0 note=63 velocity=0 time=0\n",
      "note_on channel=0 note=38 velocity=110 time=241\n",
      "note_on channel=0 note=50 velocity=115 time=0\n",
      "note_on channel=0 note=38 velocity=0 time=239\n",
      "note_on channel=0 note=50 velocity=0 time=0\n",
      "note_on channel=0 note=62 velocity=105 time=241\n",
      "note_on channel=0 note=62 velocity=0 time=227\n",
      "note_on channel=0 note=62 velocity=106 time=13\n",
      "note_on channel=0 note=62 velocity=0 time=119\n",
      "note_on channel=0 note=43 velocity=105 time=121\n",
      "note_on channel=0 note=55 velocity=116 time=0\n",
      "note_on channel=0 note=43 velocity=0 time=455\n",
      "note_on channel=0 note=55 velocity=0 time=0\n",
      "note_on channel=0 note=62 velocity=105 time=25\n",
      "note_on channel=0 note=62 velocity=0 time=239\n",
      "note_on channel=0 note=34 velocity=106 time=241\n",
      "note_on channel=0 note=46 velocity=100 time=0\n",
      "note_on channel=0 note=34 velocity=0 time=119\n",
      "note_on channel=0 note=46 velocity=0 time=0\n",
      "note_on channel=0 note=34 velocity=86 time=121\n",
      "note_on channel=0 note=34 velocity=0 time=119\n",
      "note_on channel=0 note=34 velocity=100 time=121\n",
      "note_on channel=0 note=34 velocity=0 time=119\n",
      "note_on channel=0 note=34 velocity=110 time=121\n",
      "note_on channel=0 note=34 velocity=0 time=119\n",
      "note_on channel=0 note=34 velocity=114 time=121\n",
      "note_on channel=0 note=34 velocity=0 time=119\n",
      "note_on channel=0 note=34 velocity=103 time=136\n",
      "note_on channel=0 note=34 velocity=0 time=212\n",
      "note_on channel=0 note=34 velocity=110 time=28\n",
      "note_on channel=0 note=34 velocity=0 time=212\n",
      "note_on channel=0 note=34 velocity=100 time=28\n",
      "note_on channel=0 note=34 velocity=0 time=212\n",
      "note_on channel=0 note=34 velocity=124 time=13\n",
      "note_on channel=0 note=34 velocity=0 time=119\n",
      "note_on channel=0 note=34 velocity=80 time=136\n",
      "note_on channel=0 note=34 velocity=0 time=212\n",
      "note_on channel=0 note=34 velocity=110 time=13\n",
      "note_on channel=0 note=34 velocity=0 time=119\n",
      "note_on channel=0 note=34 velocity=103 time=151\n",
      "note_on channel=0 note=34 velocity=0 time=44\n",
      "note_on channel=0 note=34 velocity=109 time=211\n",
      "note_on channel=0 note=34 velocity=0 time=184\n",
      "note_on channel=0 note=34 velocity=102 time=41\n",
      "note_on channel=0 note=34 velocity=0 time=44\n",
      "note_on channel=0 note=34 velocity=106 time=196\n",
      "note_on channel=0 note=34 velocity=0 time=44\n",
      "note_on channel=0 note=34 velocity=99 time=181\n",
      "note_on channel=0 note=34 velocity=0 time=212\n",
      "note_on channel=0 note=34 velocity=114 time=13\n",
      "note_on channel=0 note=34 velocity=0 time=119\n",
      "note_on channel=0 note=34 velocity=98 time=121\n",
      "note_on channel=0 note=34 velocity=0 time=119\n",
      "note_on channel=0 note=34 velocity=107 time=121\n",
      "note_on channel=0 note=34 velocity=0 time=119\n",
      "note_on channel=0 note=34 velocity=112 time=121\n",
      "note_on channel=0 note=34 velocity=0 time=119\n",
      "note_on channel=0 note=34 velocity=114 time=121\n",
      "note_on channel=0 note=34 velocity=0 time=119\n",
      "note_on channel=0 note=34 velocity=106 time=136\n",
      "note_on channel=0 note=34 velocity=0 time=212\n",
      "note_on channel=0 note=34 velocity=112 time=28\n",
      "note_on channel=0 note=34 velocity=0 time=212\n",
      "note_on channel=0 note=34 velocity=112 time=28\n",
      "note_on channel=0 note=34 velocity=0 time=212\n",
      "note_on channel=0 note=34 velocity=116 time=13\n",
      "note_on channel=0 note=34 velocity=0 time=119\n",
      "note_on channel=0 note=34 velocity=104 time=136\n",
      "note_on channel=0 note=34 velocity=0 time=212\n",
      "note_on channel=0 note=34 velocity=102 time=13\n",
      "note_on channel=0 note=34 velocity=0 time=119\n",
      "note_on channel=0 note=34 velocity=103 time=121\n",
      "note_on channel=0 note=34 velocity=0 time=119\n",
      "note_on channel=0 note=34 velocity=104 time=121\n",
      "note_on channel=0 note=34 velocity=0 time=119\n",
      "note_on channel=0 note=34 velocity=112 time=121\n",
      "note_on channel=0 note=34 velocity=0 time=119\n",
      "note_on channel=0 note=34 velocity=120 time=121\n",
      "note_on channel=0 note=34 velocity=0 time=239\n",
      "note_on channel=0 note=34 velocity=91 time=70801\n",
      "note_on channel=0 note=34 velocity=0 time=119\n",
      "note_on channel=0 note=36 velocity=89 time=121\n",
      "note_on channel=0 note=36 velocity=0 time=119\n",
      "note_on channel=0 note=34 velocity=96 time=121\n",
      "note_on channel=0 note=34 velocity=0 time=227\n",
      "note_on channel=0 note=36 velocity=86 time=13\n",
      "note_on channel=0 note=36 velocity=0 time=119\n",
      "note_on channel=0 note=38 velocity=95 time=121\n",
      "note_on channel=0 note=38 velocity=0 time=119\n",
      "note_on channel=0 note=39 velocity=97 time=121\n",
      "note_on channel=0 note=39 velocity=0 time=119\n",
      "note_on channel=0 note=38 velocity=95 time=121\n",
      "note_on channel=0 note=38 velocity=0 time=119\n",
      "note_on channel=0 note=39 velocity=93 time=121\n",
      "note_on channel=0 note=39 velocity=0 time=119\n",
      "note_on channel=0 note=41 velocity=91 time=121\n",
      "note_on channel=0 note=41 velocity=0 time=227\n",
      "note_on channel=0 note=43 velocity=85 time=13\n",
      "note_on channel=0 note=43 velocity=0 time=119\n",
      "note_on channel=0 note=44 velocity=92 time=121\n",
      "note_on channel=0 note=44 velocity=0 time=119\n",
      "note_on channel=0 note=43 velocity=91 time=121\n",
      "note_on channel=0 note=43 velocity=0 time=119\n",
      "note_on channel=0 note=44 velocity=84 time=121\n",
      "note_on channel=0 note=44 velocity=0 time=119\n",
      "note_on channel=0 note=46 velocity=83 time=121\n",
      "note_on channel=0 note=46 velocity=0 time=119\n",
      "note_on channel=0 note=48 velocity=87 time=121\n",
      "note_on channel=0 note=48 velocity=0 time=119\n",
      "note_on channel=0 note=46 velocity=81 time=121\n",
      "note_on channel=0 note=46 velocity=0 time=119\n",
      "note_on channel=0 note=50 velocity=92 time=121\n",
      "note_on channel=0 note=50 velocity=0 time=119\n",
      "note_on channel=0 note=46 velocity=88 time=121\n",
      "note_on channel=0 note=46 velocity=0 time=119\n",
      "note_on channel=0 note=53 velocity=96 time=121\n",
      "note_on channel=0 note=53 velocity=0 time=119\n",
      "note_on channel=0 note=46 velocity=81 time=121\n",
      "note_on channel=0 note=46 velocity=0 time=227\n",
      "note_on channel=0 note=39 velocity=92 time=13\n",
      "note_on channel=0 note=51 velocity=93 time=0\n",
      "note_on channel=0 note=63 velocity=100 time=480\n",
      "note_on channel=0 note=67 velocity=109 time=0\n",
      "note_on channel=0 note=63 velocity=0 time=239\n",
      "note_on channel=0 note=67 velocity=0 time=0\n",
      "note_on channel=0 note=39 velocity=0 time=192\n",
      "note_on channel=0 note=51 velocity=0 time=0\n",
      "note_on channel=0 note=38 velocity=108 time=49\n",
      "note_on channel=0 note=50 velocity=105 time=0\n",
      "note_on channel=0 note=62 velocity=105 time=480\n",
      "note_on channel=0 note=65 velocity=97 time=0\n",
      "note_on channel=0 note=62 velocity=0 time=239\n",
      "note_on channel=0 note=65 velocity=0 time=0\n",
      "note_on channel=0 note=38 velocity=0 time=192\n",
      "note_on channel=0 note=50 velocity=0 time=0\n",
      "note_on channel=0 note=36 velocity=96 time=49\n",
      "note_on channel=0 note=48 velocity=100 time=0\n",
      "note_on channel=0 note=63 velocity=89 time=480\n",
      "note_on channel=0 note=67 velocity=103 time=0\n",
      "note_on channel=0 note=63 velocity=0 time=239\n",
      "note_on channel=0 note=67 velocity=0 time=0\n",
      "note_on channel=0 note=36 velocity=0 time=192\n",
      "note_on channel=0 note=48 velocity=0 time=0\n",
      "note_on channel=0 note=47 velocity=103 time=49\n",
      "note_on channel=0 note=47 velocity=0 time=239\n",
      "note_on channel=0 note=48 velocity=106 time=241\n",
      "note_on channel=0 note=48 velocity=0 time=455\n",
      "note_on channel=0 note=47 velocity=98 time=25\n",
      "note_on channel=0 note=47 velocity=0 time=455\n",
      "note_on channel=0 note=68 velocity=102 time=25\n",
      "note_on channel=0 note=68 velocity=0 time=39\n",
      "note_on channel=0 note=48 velocity=106 time=41\n",
      "note_on channel=0 note=48 velocity=0 time=151\n",
      "note_on channel=0 note=34 velocity=92 time=249\n",
      "note_on channel=0 note=46 velocity=98 time=0\n",
      "note_on channel=0 note=34 velocity=0 time=455\n",
      "note_on channel=0 note=46 velocity=0 time=0\n",
      "note_on channel=0 note=39 velocity=104 time=25\n",
      "note_on channel=0 note=51 velocity=106 time=0\n",
      "note_on channel=0 note=39 velocity=0 time=455\n",
      "note_on channel=0 note=51 velocity=0 time=0\n",
      "note_on channel=0 note=38 velocity=105 time=25\n",
      "note_on channel=0 note=50 velocity=106 time=0\n",
      "note_on channel=0 note=38 velocity=0 time=455\n",
      "note_on channel=0 note=50 velocity=0 time=0\n",
      "note_on channel=0 note=69 velocity=86 time=25\n",
      "note_on channel=0 note=74 velocity=98 time=0\n",
      "note_on channel=0 note=78 velocity=92 time=0\n",
      "note_on channel=0 note=69 velocity=0 time=239\n",
      "note_on channel=0 note=74 velocity=0 time=0\n",
      "note_on channel=0 note=78 velocity=0 time=0\n",
      "note_on channel=0 note=43 velocity=100 time=241\n",
      "note_on channel=0 note=55 velocity=110 time=0\n",
      "note_on channel=0 note=67 velocity=99 time=480\n",
      "note_on channel=0 note=70 velocity=84 time=0\n",
      "note_on channel=0 note=67 velocity=0 time=239\n",
      "note_on channel=0 note=70 velocity=0 time=0\n",
      "note_on channel=0 note=43 velocity=0 time=192\n",
      "note_on channel=0 note=55 velocity=0 time=0\n",
      "note_on channel=0 note=44 velocity=76 time=49\n",
      "note_on channel=0 note=56 velocity=88 time=0\n",
      "note_on channel=0 note=44 velocity=0 time=911\n",
      "note_on channel=0 note=56 velocity=0 time=0\n",
      "note_on channel=0 note=39 velocity=73 time=49\n",
      "note_on channel=0 note=51 velocity=86 time=0\n",
      "note_on channel=0 note=39 velocity=0 time=911\n",
      "note_on channel=0 note=51 velocity=0 time=0\n",
      "note_on channel=0 note=36 velocity=75 time=49\n",
      "note_on channel=0 note=48 velocity=83 time=0\n",
      "note_on channel=0 note=63 velocity=95 time=480\n",
      "note_on channel=0 note=63 velocity=0 time=239\n",
      "note_on channel=0 note=36 velocity=0 time=192\n",
      "note_on channel=0 note=48 velocity=0 time=0\n",
      "note_on channel=0 note=31 velocity=98 time=49\n",
      "note_on channel=0 note=43 velocity=95 time=0\n",
      "note_on channel=0 note=31 velocity=0 time=911\n",
      "note_on channel=0 note=43 velocity=0 time=0\n",
      "note_on channel=0 note=36 velocity=86 time=49\n",
      "note_on channel=0 note=48 velocity=91 time=0\n",
      "note_on channel=0 note=36 velocity=0 time=911\n",
      "note_on channel=0 note=48 velocity=0 time=0\n",
      "note_on channel=0 note=31 velocity=88 time=49\n",
      "note_on channel=0 note=43 velocity=88 time=0\n",
      "note_on channel=0 note=31 velocity=0 time=239\n",
      "note_on channel=0 note=43 velocity=0 time=0\n",
      "note_on channel=0 note=36 velocity=82 time=721\n",
      "note_on channel=0 note=48 velocity=77 time=0\n",
      "note_on channel=0 note=36 velocity=0 time=911\n",
      "note_on channel=0 note=48 velocity=0 time=0\n",
      "note_on channel=0 note=32 velocity=81 time=49\n",
      "note_on channel=0 note=56 velocity=60 time=120\n",
      "note_on channel=0 note=32 velocity=0 time=335\n",
      "note_on channel=0 note=56 velocity=0 time=6\n",
      "note_on channel=0 note=34 velocity=76 time=19\n",
      "note_on channel=0 note=56 velocity=77 time=480\n",
      "note_on channel=0 note=56 velocity=0 time=911\n",
      "note_on channel=0 note=56 velocity=53 time=49\n",
      "note_on channel=0 note=39 velocity=79 time=480\n",
      "note_on channel=0 note=51 velocity=70 time=0\n",
      "note_on channel=0 note=34 velocity=0 time=359\n",
      "note_on channel=0 note=56 velocity=0 time=72\n",
      "note_on channel=0 note=63 velocity=78 time=1009\n",
      "note_on channel=0 note=68 velocity=91 time=0\n",
      "note_on channel=0 note=63 velocity=0 time=455\n",
      "note_on channel=0 note=68 velocity=0 time=0\n",
      "note_on channel=0 note=63 velocity=92 time=25\n",
      "note_on channel=0 note=68 velocity=95 time=0\n",
      "note_on channel=0 note=39 velocity=0 time=359\n",
      "note_on channel=0 note=51 velocity=0 time=0\n",
      "note_on channel=0 note=63 velocity=0 time=96\n",
      "note_on channel=0 note=68 velocity=0 time=0\n",
      "note_on channel=0 note=39 velocity=82 time=25\n",
      "note_on channel=0 note=51 velocity=70 time=0\n",
      "note_on channel=0 note=66 velocity=94 time=960\n",
      "note_on channel=0 note=69 velocity=106 time=0\n",
      "note_on channel=0 note=66 velocity=0 time=239\n",
      "note_on channel=0 note=69 velocity=0 time=0\n",
      "note_on channel=0 note=66 velocity=97 time=241\n",
      "note_on channel=0 note=69 velocity=107 time=0\n",
      "note_on channel=0 note=66 velocity=0 time=239\n",
      "note_on channel=0 note=69 velocity=0 time=0\n",
      "note_on channel=0 note=39 velocity=0 time=144\n",
      "note_on channel=0 note=51 velocity=0 time=0\n",
      "note_on channel=0 note=38 velocity=93 time=97\n",
      "note_on channel=0 note=50 velocity=87 time=0\n",
      "note_on channel=0 note=65 velocity=98 time=120\n",
      "note_on channel=0 note=70 velocity=96 time=120\n",
      "note_on channel=0 note=65 velocity=0 time=59\n",
      "note_on channel=0 note=37 velocity=86 time=181\n",
      "note_on channel=0 note=70 velocity=0 time=335\n",
      "note_on channel=0 note=38 velocity=0 time=96\n",
      "note_on channel=0 note=50 velocity=0 time=0\n",
      "note_on channel=0 note=49 velocity=71 time=49\n",
      "note_on channel=0 note=61 velocity=78 time=480\n",
      "note_on channel=0 note=65 velocity=87 time=0\n",
      "note_on channel=0 note=37 velocity=0 time=407\n",
      "note_on channel=0 note=49 velocity=0 time=24\n",
      "note_on channel=0 note=61 velocity=0 time=24\n",
      "note_on channel=0 note=65 velocity=0 time=0\n",
      "note_on channel=0 note=36 velocity=84 time=25\n",
      "note_on channel=0 note=48 velocity=85 time=0\n",
      "note_on channel=0 note=61 velocity=101 time=960\n",
      "note_on channel=0 note=64 velocity=70 time=0\n",
      "note_on channel=0 note=61 velocity=0 time=911\n",
      "note_on channel=0 note=64 velocity=0 time=0\n",
      "note_on channel=0 note=60 velocity=73 time=49\n",
      "note_on channel=0 note=64 velocity=74 time=0\n",
      "note_on channel=0 note=60 velocity=0 time=239\n",
      "note_on channel=0 note=64 velocity=0 time=216\n",
      "note_on channel=0 note=36 velocity=0 time=360\n",
      "note_on channel=0 note=48 velocity=0 time=0\n",
      "note_on channel=0 note=57 velocity=81 time=145\n",
      "note_on channel=0 note=60 velocity=83 time=0\n",
      "note_on channel=0 note=77 velocity=90 time=480\n",
      "note_on channel=0 note=65 velocity=45 time=240\n",
      "note_on channel=0 note=70 velocity=60 time=240\n",
      "note_on channel=0 note=77 velocity=0 time=203\n",
      "note_on channel=0 note=77 velocity=82 time=37\n",
      "note_on channel=0 note=77 velocity=0 time=227\n",
      "note_on channel=0 note=77 velocity=73 time=13\n",
      "note_on channel=0 note=77 velocity=0 time=683\n",
      "note_on channel=0 note=77 velocity=83 time=37\n",
      "note_on channel=0 note=70 velocity=0 time=167\n",
      "note_on channel=0 note=77 velocity=0 time=288\n",
      "note_on channel=0 note=77 velocity=73 time=25\n",
      "note_on channel=0 note=57 velocity=0 time=95\n",
      "note_on channel=0 note=60 velocity=0 time=0\n",
      "note_on channel=0 note=65 velocity=0 time=36\n",
      "note_on channel=0 note=77 velocity=0 time=96\n",
      "note_on channel=0 note=41 velocity=42 time=493\n",
      "note_on channel=0 note=41 velocity=0 time=41951\n",
      "<meta message end_of_track time=1>\n"
     ]
    }
   ],
   "source": [
    "mid = mido.MidiFile('data/001.mid')\n",
    "for i, track in enumerate(mid.tracks):\n",
    "    print('Track {}: {}'.format(i, track.name))\n",
    "    for msg in track:\n",
    "        print(msg)"
   ]
  },
  {
   "cell_type": "code",
   "execution_count": 5,
   "metadata": {},
   "outputs": [
    {
     "data": {
      "text/plain": [
       "<midi track '' 2031 messages>"
      ]
     },
     "execution_count": 5,
     "metadata": {},
     "output_type": "execute_result"
    }
   ],
   "source": [
    "mid.tracks[0]"
   ]
  },
  {
   "cell_type": "code",
   "execution_count": null,
   "metadata": {},
   "outputs": [],
   "source": []
  }
 ],
 "metadata": {
  "kernelspec": {
   "display_name": "Python 3",
   "language": "python",
   "name": "python3"
  },
  "language_info": {
   "codemirror_mode": {
    "name": "ipython",
    "version": 3
   },
   "file_extension": ".py",
   "mimetype": "text/x-python",
   "name": "python",
   "nbconvert_exporter": "python",
   "pygments_lexer": "ipython3",
   "version": "3.6.8"
  }
 },
 "nbformat": 4,
 "nbformat_minor": 2
}
